%TF.GenerationSoftware,KiCad,Pcbnew,7.0.1*%
%TF.CreationDate,2023-03-30T22:24:36-04:00*%
%TF.ProjectId,miditerm,6d696469-7465-4726-9d2e-6b696361645f,0.1*%
%TF.SameCoordinates,Original*%
%TF.FileFunction,Legend,Bot*%
%TF.FilePolarity,Positive*%
%FSLAX46Y46*%
G04 Gerber Fmt 4.6, Leading zero omitted, Abs format (unit mm)*
G04 Created by KiCad (PCBNEW 7.0.1) date 2023-03-30 22:24:36*
%MOMM*%
%LPD*%
G01*
G04 APERTURE LIST*
%ADD10C,0.150000*%
G04 APERTURE END LIST*
D10*
X131476190Y-75627619D02*
X131476190Y-76341904D01*
X131476190Y-76341904D02*
X131523809Y-76484761D01*
X131523809Y-76484761D02*
X131619047Y-76580000D01*
X131619047Y-76580000D02*
X131761904Y-76627619D01*
X131761904Y-76627619D02*
X131857142Y-76627619D01*
X130523809Y-76627619D02*
X130999999Y-76627619D01*
X130999999Y-76627619D02*
X130999999Y-75627619D01*
X129619047Y-76532380D02*
X129666666Y-76580000D01*
X129666666Y-76580000D02*
X129809523Y-76627619D01*
X129809523Y-76627619D02*
X129904761Y-76627619D01*
X129904761Y-76627619D02*
X130047618Y-76580000D01*
X130047618Y-76580000D02*
X130142856Y-76484761D01*
X130142856Y-76484761D02*
X130190475Y-76389523D01*
X130190475Y-76389523D02*
X130238094Y-76199047D01*
X130238094Y-76199047D02*
X130238094Y-76056190D01*
X130238094Y-76056190D02*
X130190475Y-75865714D01*
X130190475Y-75865714D02*
X130142856Y-75770476D01*
X130142856Y-75770476D02*
X130047618Y-75675238D01*
X130047618Y-75675238D02*
X129904761Y-75627619D01*
X129904761Y-75627619D02*
X129809523Y-75627619D01*
X129809523Y-75627619D02*
X129666666Y-75675238D01*
X129666666Y-75675238D02*
X129619047Y-75722857D01*
X128904761Y-75627619D02*
X128904761Y-76341904D01*
X128904761Y-76341904D02*
X128952380Y-76484761D01*
X128952380Y-76484761D02*
X129047618Y-76580000D01*
X129047618Y-76580000D02*
X129190475Y-76627619D01*
X129190475Y-76627619D02*
X129285713Y-76627619D01*
X127952380Y-76627619D02*
X128428570Y-76627619D01*
X128428570Y-76627619D02*
X128428570Y-75627619D01*
X127047618Y-76532380D02*
X127095237Y-76580000D01*
X127095237Y-76580000D02*
X127238094Y-76627619D01*
X127238094Y-76627619D02*
X127333332Y-76627619D01*
X127333332Y-76627619D02*
X127476189Y-76580000D01*
X127476189Y-76580000D02*
X127571427Y-76484761D01*
X127571427Y-76484761D02*
X127619046Y-76389523D01*
X127619046Y-76389523D02*
X127666665Y-76199047D01*
X127666665Y-76199047D02*
X127666665Y-76056190D01*
X127666665Y-76056190D02*
X127619046Y-75865714D01*
X127619046Y-75865714D02*
X127571427Y-75770476D01*
X127571427Y-75770476D02*
X127476189Y-75675238D01*
X127476189Y-75675238D02*
X127333332Y-75627619D01*
X127333332Y-75627619D02*
X127238094Y-75627619D01*
X127238094Y-75627619D02*
X127095237Y-75675238D01*
X127095237Y-75675238D02*
X127047618Y-75722857D01*
X126333332Y-75627619D02*
X126333332Y-76341904D01*
X126333332Y-76341904D02*
X126380951Y-76484761D01*
X126380951Y-76484761D02*
X126476189Y-76580000D01*
X126476189Y-76580000D02*
X126619046Y-76627619D01*
X126619046Y-76627619D02*
X126714284Y-76627619D01*
X125380951Y-76627619D02*
X125857141Y-76627619D01*
X125857141Y-76627619D02*
X125857141Y-75627619D01*
X124476189Y-76532380D02*
X124523808Y-76580000D01*
X124523808Y-76580000D02*
X124666665Y-76627619D01*
X124666665Y-76627619D02*
X124761903Y-76627619D01*
X124761903Y-76627619D02*
X124904760Y-76580000D01*
X124904760Y-76580000D02*
X124999998Y-76484761D01*
X124999998Y-76484761D02*
X125047617Y-76389523D01*
X125047617Y-76389523D02*
X125095236Y-76199047D01*
X125095236Y-76199047D02*
X125095236Y-76056190D01*
X125095236Y-76056190D02*
X125047617Y-75865714D01*
X125047617Y-75865714D02*
X124999998Y-75770476D01*
X124999998Y-75770476D02*
X124904760Y-75675238D01*
X124904760Y-75675238D02*
X124761903Y-75627619D01*
X124761903Y-75627619D02*
X124666665Y-75627619D01*
X124666665Y-75627619D02*
X124523808Y-75675238D01*
X124523808Y-75675238D02*
X124476189Y-75722857D01*
X123761903Y-75627619D02*
X123761903Y-76341904D01*
X123761903Y-76341904D02*
X123809522Y-76484761D01*
X123809522Y-76484761D02*
X123904760Y-76580000D01*
X123904760Y-76580000D02*
X124047617Y-76627619D01*
X124047617Y-76627619D02*
X124142855Y-76627619D01*
X122809522Y-76627619D02*
X123285712Y-76627619D01*
X123285712Y-76627619D02*
X123285712Y-75627619D01*
X121904760Y-76532380D02*
X121952379Y-76580000D01*
X121952379Y-76580000D02*
X122095236Y-76627619D01*
X122095236Y-76627619D02*
X122190474Y-76627619D01*
X122190474Y-76627619D02*
X122333331Y-76580000D01*
X122333331Y-76580000D02*
X122428569Y-76484761D01*
X122428569Y-76484761D02*
X122476188Y-76389523D01*
X122476188Y-76389523D02*
X122523807Y-76199047D01*
X122523807Y-76199047D02*
X122523807Y-76056190D01*
X122523807Y-76056190D02*
X122476188Y-75865714D01*
X122476188Y-75865714D02*
X122428569Y-75770476D01*
X122428569Y-75770476D02*
X122333331Y-75675238D01*
X122333331Y-75675238D02*
X122190474Y-75627619D01*
X122190474Y-75627619D02*
X122095236Y-75627619D01*
X122095236Y-75627619D02*
X121952379Y-75675238D01*
X121952379Y-75675238D02*
X121904760Y-75722857D01*
X142035714Y-101387619D02*
X142035714Y-100387619D01*
X142035714Y-100387619D02*
X141702381Y-101101904D01*
X141702381Y-101101904D02*
X141369048Y-100387619D01*
X141369048Y-100387619D02*
X141369048Y-101387619D01*
X140892857Y-101387619D02*
X140892857Y-100720952D01*
X140892857Y-100387619D02*
X140940476Y-100435238D01*
X140940476Y-100435238D02*
X140892857Y-100482857D01*
X140892857Y-100482857D02*
X140845238Y-100435238D01*
X140845238Y-100435238D02*
X140892857Y-100387619D01*
X140892857Y-100387619D02*
X140892857Y-100482857D01*
X139988096Y-101387619D02*
X139988096Y-100387619D01*
X139988096Y-101340000D02*
X140083334Y-101387619D01*
X140083334Y-101387619D02*
X140273810Y-101387619D01*
X140273810Y-101387619D02*
X140369048Y-101340000D01*
X140369048Y-101340000D02*
X140416667Y-101292380D01*
X140416667Y-101292380D02*
X140464286Y-101197142D01*
X140464286Y-101197142D02*
X140464286Y-100911428D01*
X140464286Y-100911428D02*
X140416667Y-100816190D01*
X140416667Y-100816190D02*
X140369048Y-100768571D01*
X140369048Y-100768571D02*
X140273810Y-100720952D01*
X140273810Y-100720952D02*
X140083334Y-100720952D01*
X140083334Y-100720952D02*
X139988096Y-100768571D01*
X139511905Y-101387619D02*
X139511905Y-100720952D01*
X139511905Y-100387619D02*
X139559524Y-100435238D01*
X139559524Y-100435238D02*
X139511905Y-100482857D01*
X139511905Y-100482857D02*
X139464286Y-100435238D01*
X139464286Y-100435238D02*
X139511905Y-100387619D01*
X139511905Y-100387619D02*
X139511905Y-100482857D01*
X139178572Y-100387619D02*
X138607144Y-100387619D01*
X138892858Y-101387619D02*
X138892858Y-100387619D01*
X137892858Y-101340000D02*
X137988096Y-101387619D01*
X137988096Y-101387619D02*
X138178572Y-101387619D01*
X138178572Y-101387619D02*
X138273810Y-101340000D01*
X138273810Y-101340000D02*
X138321429Y-101244761D01*
X138321429Y-101244761D02*
X138321429Y-100863809D01*
X138321429Y-100863809D02*
X138273810Y-100768571D01*
X138273810Y-100768571D02*
X138178572Y-100720952D01*
X138178572Y-100720952D02*
X137988096Y-100720952D01*
X137988096Y-100720952D02*
X137892858Y-100768571D01*
X137892858Y-100768571D02*
X137845239Y-100863809D01*
X137845239Y-100863809D02*
X137845239Y-100959047D01*
X137845239Y-100959047D02*
X138321429Y-101054285D01*
X137416667Y-101387619D02*
X137416667Y-100720952D01*
X137416667Y-100911428D02*
X137369048Y-100816190D01*
X137369048Y-100816190D02*
X137321429Y-100768571D01*
X137321429Y-100768571D02*
X137226191Y-100720952D01*
X137226191Y-100720952D02*
X137130953Y-100720952D01*
X136797619Y-101387619D02*
X136797619Y-100720952D01*
X136797619Y-100816190D02*
X136750000Y-100768571D01*
X136750000Y-100768571D02*
X136654762Y-100720952D01*
X136654762Y-100720952D02*
X136511905Y-100720952D01*
X136511905Y-100720952D02*
X136416667Y-100768571D01*
X136416667Y-100768571D02*
X136369048Y-100863809D01*
X136369048Y-100863809D02*
X136369048Y-101387619D01*
X136369048Y-100863809D02*
X136321429Y-100768571D01*
X136321429Y-100768571D02*
X136226191Y-100720952D01*
X136226191Y-100720952D02*
X136083334Y-100720952D01*
X136083334Y-100720952D02*
X135988095Y-100768571D01*
X135988095Y-100768571D02*
X135940476Y-100863809D01*
X135940476Y-100863809D02*
X135940476Y-101387619D01*
X134750000Y-101101904D02*
X134273810Y-101101904D01*
X134845238Y-101387619D02*
X134511905Y-100387619D01*
X134511905Y-100387619D02*
X134178572Y-101387619D01*
X133416667Y-101387619D02*
X133416667Y-100387619D01*
X133416667Y-101340000D02*
X133511905Y-101387619D01*
X133511905Y-101387619D02*
X133702381Y-101387619D01*
X133702381Y-101387619D02*
X133797619Y-101340000D01*
X133797619Y-101340000D02*
X133845238Y-101292380D01*
X133845238Y-101292380D02*
X133892857Y-101197142D01*
X133892857Y-101197142D02*
X133892857Y-100911428D01*
X133892857Y-100911428D02*
X133845238Y-100816190D01*
X133845238Y-100816190D02*
X133797619Y-100768571D01*
X133797619Y-100768571D02*
X133702381Y-100720952D01*
X133702381Y-100720952D02*
X133511905Y-100720952D01*
X133511905Y-100720952D02*
X133416667Y-100768571D01*
X132511905Y-101387619D02*
X132511905Y-100863809D01*
X132511905Y-100863809D02*
X132559524Y-100768571D01*
X132559524Y-100768571D02*
X132654762Y-100720952D01*
X132654762Y-100720952D02*
X132845238Y-100720952D01*
X132845238Y-100720952D02*
X132940476Y-100768571D01*
X132511905Y-101340000D02*
X132607143Y-101387619D01*
X132607143Y-101387619D02*
X132845238Y-101387619D01*
X132845238Y-101387619D02*
X132940476Y-101340000D01*
X132940476Y-101340000D02*
X132988095Y-101244761D01*
X132988095Y-101244761D02*
X132988095Y-101149523D01*
X132988095Y-101149523D02*
X132940476Y-101054285D01*
X132940476Y-101054285D02*
X132845238Y-101006666D01*
X132845238Y-101006666D02*
X132607143Y-101006666D01*
X132607143Y-101006666D02*
X132511905Y-100959047D01*
X132035714Y-100720952D02*
X132035714Y-101720952D01*
X132035714Y-100768571D02*
X131940476Y-100720952D01*
X131940476Y-100720952D02*
X131750000Y-100720952D01*
X131750000Y-100720952D02*
X131654762Y-100768571D01*
X131654762Y-100768571D02*
X131607143Y-100816190D01*
X131607143Y-100816190D02*
X131559524Y-100911428D01*
X131559524Y-100911428D02*
X131559524Y-101197142D01*
X131559524Y-101197142D02*
X131607143Y-101292380D01*
X131607143Y-101292380D02*
X131654762Y-101340000D01*
X131654762Y-101340000D02*
X131750000Y-101387619D01*
X131750000Y-101387619D02*
X131940476Y-101387619D01*
X131940476Y-101387619D02*
X132035714Y-101340000D01*
X131273809Y-100720952D02*
X130892857Y-100720952D01*
X131130952Y-100387619D02*
X131130952Y-101244761D01*
X131130952Y-101244761D02*
X131083333Y-101340000D01*
X131083333Y-101340000D02*
X130988095Y-101387619D01*
X130988095Y-101387619D02*
X130892857Y-101387619D01*
X130178571Y-101340000D02*
X130273809Y-101387619D01*
X130273809Y-101387619D02*
X130464285Y-101387619D01*
X130464285Y-101387619D02*
X130559523Y-101340000D01*
X130559523Y-101340000D02*
X130607142Y-101244761D01*
X130607142Y-101244761D02*
X130607142Y-100863809D01*
X130607142Y-100863809D02*
X130559523Y-100768571D01*
X130559523Y-100768571D02*
X130464285Y-100720952D01*
X130464285Y-100720952D02*
X130273809Y-100720952D01*
X130273809Y-100720952D02*
X130178571Y-100768571D01*
X130178571Y-100768571D02*
X130130952Y-100863809D01*
X130130952Y-100863809D02*
X130130952Y-100959047D01*
X130130952Y-100959047D02*
X130607142Y-101054285D01*
X129702380Y-101387619D02*
X129702380Y-100720952D01*
X129702380Y-100911428D02*
X129654761Y-100816190D01*
X129654761Y-100816190D02*
X129607142Y-100768571D01*
X129607142Y-100768571D02*
X129511904Y-100720952D01*
X129511904Y-100720952D02*
X129416666Y-100720952D01*
X127988094Y-100863809D02*
X127845237Y-100911428D01*
X127845237Y-100911428D02*
X127797618Y-100959047D01*
X127797618Y-100959047D02*
X127749999Y-101054285D01*
X127749999Y-101054285D02*
X127749999Y-101197142D01*
X127749999Y-101197142D02*
X127797618Y-101292380D01*
X127797618Y-101292380D02*
X127845237Y-101340000D01*
X127845237Y-101340000D02*
X127940475Y-101387619D01*
X127940475Y-101387619D02*
X128321427Y-101387619D01*
X128321427Y-101387619D02*
X128321427Y-100387619D01*
X128321427Y-100387619D02*
X127988094Y-100387619D01*
X127988094Y-100387619D02*
X127892856Y-100435238D01*
X127892856Y-100435238D02*
X127845237Y-100482857D01*
X127845237Y-100482857D02*
X127797618Y-100578095D01*
X127797618Y-100578095D02*
X127797618Y-100673333D01*
X127797618Y-100673333D02*
X127845237Y-100768571D01*
X127845237Y-100768571D02*
X127892856Y-100816190D01*
X127892856Y-100816190D02*
X127988094Y-100863809D01*
X127988094Y-100863809D02*
X128321427Y-100863809D01*
X127178570Y-101387619D02*
X127273808Y-101340000D01*
X127273808Y-101340000D02*
X127321427Y-101292380D01*
X127321427Y-101292380D02*
X127369046Y-101197142D01*
X127369046Y-101197142D02*
X127369046Y-100911428D01*
X127369046Y-100911428D02*
X127321427Y-100816190D01*
X127321427Y-100816190D02*
X127273808Y-100768571D01*
X127273808Y-100768571D02*
X127178570Y-100720952D01*
X127178570Y-100720952D02*
X127035713Y-100720952D01*
X127035713Y-100720952D02*
X126940475Y-100768571D01*
X126940475Y-100768571D02*
X126892856Y-100816190D01*
X126892856Y-100816190D02*
X126845237Y-100911428D01*
X126845237Y-100911428D02*
X126845237Y-101197142D01*
X126845237Y-101197142D02*
X126892856Y-101292380D01*
X126892856Y-101292380D02*
X126940475Y-101340000D01*
X126940475Y-101340000D02*
X127035713Y-101387619D01*
X127035713Y-101387619D02*
X127178570Y-101387619D01*
X125988094Y-101387619D02*
X125988094Y-100863809D01*
X125988094Y-100863809D02*
X126035713Y-100768571D01*
X126035713Y-100768571D02*
X126130951Y-100720952D01*
X126130951Y-100720952D02*
X126321427Y-100720952D01*
X126321427Y-100720952D02*
X126416665Y-100768571D01*
X125988094Y-101340000D02*
X126083332Y-101387619D01*
X126083332Y-101387619D02*
X126321427Y-101387619D01*
X126321427Y-101387619D02*
X126416665Y-101340000D01*
X126416665Y-101340000D02*
X126464284Y-101244761D01*
X126464284Y-101244761D02*
X126464284Y-101149523D01*
X126464284Y-101149523D02*
X126416665Y-101054285D01*
X126416665Y-101054285D02*
X126321427Y-101006666D01*
X126321427Y-101006666D02*
X126083332Y-101006666D01*
X126083332Y-101006666D02*
X125988094Y-100959047D01*
X125511903Y-101387619D02*
X125511903Y-100720952D01*
X125511903Y-100911428D02*
X125464284Y-100816190D01*
X125464284Y-100816190D02*
X125416665Y-100768571D01*
X125416665Y-100768571D02*
X125321427Y-100720952D01*
X125321427Y-100720952D02*
X125226189Y-100720952D01*
X124464284Y-101387619D02*
X124464284Y-100387619D01*
X124464284Y-101340000D02*
X124559522Y-101387619D01*
X124559522Y-101387619D02*
X124749998Y-101387619D01*
X124749998Y-101387619D02*
X124845236Y-101340000D01*
X124845236Y-101340000D02*
X124892855Y-101292380D01*
X124892855Y-101292380D02*
X124940474Y-101197142D01*
X124940474Y-101197142D02*
X124940474Y-100911428D01*
X124940474Y-100911428D02*
X124892855Y-100816190D01*
X124892855Y-100816190D02*
X124845236Y-100768571D01*
X124845236Y-100768571D02*
X124749998Y-100720952D01*
X124749998Y-100720952D02*
X124559522Y-100720952D01*
X124559522Y-100720952D02*
X124464284Y-100768571D01*
X145250001Y-103007619D02*
X145250001Y-102007619D01*
X145250001Y-102007619D02*
X144916668Y-102721904D01*
X144916668Y-102721904D02*
X144583335Y-102007619D01*
X144583335Y-102007619D02*
X144583335Y-103007619D01*
X143678573Y-103007619D02*
X143678573Y-102483809D01*
X143678573Y-102483809D02*
X143726192Y-102388571D01*
X143726192Y-102388571D02*
X143821430Y-102340952D01*
X143821430Y-102340952D02*
X144011906Y-102340952D01*
X144011906Y-102340952D02*
X144107144Y-102388571D01*
X143678573Y-102960000D02*
X143773811Y-103007619D01*
X143773811Y-103007619D02*
X144011906Y-103007619D01*
X144011906Y-103007619D02*
X144107144Y-102960000D01*
X144107144Y-102960000D02*
X144154763Y-102864761D01*
X144154763Y-102864761D02*
X144154763Y-102769523D01*
X144154763Y-102769523D02*
X144107144Y-102674285D01*
X144107144Y-102674285D02*
X144011906Y-102626666D01*
X144011906Y-102626666D02*
X143773811Y-102626666D01*
X143773811Y-102626666D02*
X143678573Y-102579047D01*
X143297620Y-103007619D02*
X142773811Y-102340952D01*
X143297620Y-102340952D02*
X142773811Y-103007619D01*
X141630953Y-103007619D02*
X141630953Y-102007619D01*
X141630953Y-102007619D02*
X141250001Y-102007619D01*
X141250001Y-102007619D02*
X141154763Y-102055238D01*
X141154763Y-102055238D02*
X141107144Y-102102857D01*
X141107144Y-102102857D02*
X141059525Y-102198095D01*
X141059525Y-102198095D02*
X141059525Y-102340952D01*
X141059525Y-102340952D02*
X141107144Y-102436190D01*
X141107144Y-102436190D02*
X141154763Y-102483809D01*
X141154763Y-102483809D02*
X141250001Y-102531428D01*
X141250001Y-102531428D02*
X141630953Y-102531428D01*
X140630953Y-103007619D02*
X140630953Y-102340952D01*
X140630953Y-102531428D02*
X140583334Y-102436190D01*
X140583334Y-102436190D02*
X140535715Y-102388571D01*
X140535715Y-102388571D02*
X140440477Y-102340952D01*
X140440477Y-102340952D02*
X140345239Y-102340952D01*
X139869048Y-103007619D02*
X139964286Y-102960000D01*
X139964286Y-102960000D02*
X140011905Y-102912380D01*
X140011905Y-102912380D02*
X140059524Y-102817142D01*
X140059524Y-102817142D02*
X140059524Y-102531428D01*
X140059524Y-102531428D02*
X140011905Y-102436190D01*
X140011905Y-102436190D02*
X139964286Y-102388571D01*
X139964286Y-102388571D02*
X139869048Y-102340952D01*
X139869048Y-102340952D02*
X139726191Y-102340952D01*
X139726191Y-102340952D02*
X139630953Y-102388571D01*
X139630953Y-102388571D02*
X139583334Y-102436190D01*
X139583334Y-102436190D02*
X139535715Y-102531428D01*
X139535715Y-102531428D02*
X139535715Y-102817142D01*
X139535715Y-102817142D02*
X139583334Y-102912380D01*
X139583334Y-102912380D02*
X139630953Y-102960000D01*
X139630953Y-102960000D02*
X139726191Y-103007619D01*
X139726191Y-103007619D02*
X139869048Y-103007619D01*
X139154762Y-102960000D02*
X139059524Y-103007619D01*
X139059524Y-103007619D02*
X138869048Y-103007619D01*
X138869048Y-103007619D02*
X138773810Y-102960000D01*
X138773810Y-102960000D02*
X138726191Y-102864761D01*
X138726191Y-102864761D02*
X138726191Y-102817142D01*
X138726191Y-102817142D02*
X138773810Y-102721904D01*
X138773810Y-102721904D02*
X138869048Y-102674285D01*
X138869048Y-102674285D02*
X139011905Y-102674285D01*
X139011905Y-102674285D02*
X139107143Y-102626666D01*
X139107143Y-102626666D02*
X139154762Y-102531428D01*
X139154762Y-102531428D02*
X139154762Y-102483809D01*
X139154762Y-102483809D02*
X139107143Y-102388571D01*
X139107143Y-102388571D02*
X139011905Y-102340952D01*
X139011905Y-102340952D02*
X138869048Y-102340952D01*
X138869048Y-102340952D02*
X138773810Y-102388571D01*
X138297619Y-103007619D02*
X138297619Y-102007619D01*
X138202381Y-102626666D02*
X137916667Y-103007619D01*
X137916667Y-102340952D02*
X138297619Y-102721904D01*
X137059524Y-103007619D02*
X137059524Y-102483809D01*
X137059524Y-102483809D02*
X137107143Y-102388571D01*
X137107143Y-102388571D02*
X137202381Y-102340952D01*
X137202381Y-102340952D02*
X137392857Y-102340952D01*
X137392857Y-102340952D02*
X137488095Y-102388571D01*
X137059524Y-102960000D02*
X137154762Y-103007619D01*
X137154762Y-103007619D02*
X137392857Y-103007619D01*
X137392857Y-103007619D02*
X137488095Y-102960000D01*
X137488095Y-102960000D02*
X137535714Y-102864761D01*
X137535714Y-102864761D02*
X137535714Y-102769523D01*
X137535714Y-102769523D02*
X137488095Y-102674285D01*
X137488095Y-102674285D02*
X137392857Y-102626666D01*
X137392857Y-102626666D02*
X137154762Y-102626666D01*
X137154762Y-102626666D02*
X137059524Y-102579047D01*
X136154762Y-102340952D02*
X136154762Y-103007619D01*
X136583333Y-102340952D02*
X136583333Y-102864761D01*
X136583333Y-102864761D02*
X136535714Y-102960000D01*
X136535714Y-102960000D02*
X136440476Y-103007619D01*
X136440476Y-103007619D02*
X136297619Y-103007619D01*
X136297619Y-103007619D02*
X136202381Y-102960000D01*
X136202381Y-102960000D02*
X136154762Y-102912380D01*
X135297619Y-102960000D02*
X135392857Y-103007619D01*
X135392857Y-103007619D02*
X135583333Y-103007619D01*
X135583333Y-103007619D02*
X135678571Y-102960000D01*
X135678571Y-102960000D02*
X135726190Y-102864761D01*
X135726190Y-102864761D02*
X135726190Y-102483809D01*
X135726190Y-102483809D02*
X135678571Y-102388571D01*
X135678571Y-102388571D02*
X135583333Y-102340952D01*
X135583333Y-102340952D02*
X135392857Y-102340952D01*
X135392857Y-102340952D02*
X135297619Y-102388571D01*
X135297619Y-102388571D02*
X135250000Y-102483809D01*
X135250000Y-102483809D02*
X135250000Y-102579047D01*
X135250000Y-102579047D02*
X135726190Y-102674285D01*
X134821428Y-103007619D02*
X134821428Y-102340952D01*
X134821428Y-102531428D02*
X134773809Y-102436190D01*
X134773809Y-102436190D02*
X134726190Y-102388571D01*
X134726190Y-102388571D02*
X134630952Y-102340952D01*
X134630952Y-102340952D02*
X134535714Y-102340952D01*
X132773808Y-102340952D02*
X132535713Y-103007619D01*
X132535713Y-103007619D02*
X132297618Y-102340952D01*
X131726189Y-102007619D02*
X131630951Y-102007619D01*
X131630951Y-102007619D02*
X131535713Y-102055238D01*
X131535713Y-102055238D02*
X131488094Y-102102857D01*
X131488094Y-102102857D02*
X131440475Y-102198095D01*
X131440475Y-102198095D02*
X131392856Y-102388571D01*
X131392856Y-102388571D02*
X131392856Y-102626666D01*
X131392856Y-102626666D02*
X131440475Y-102817142D01*
X131440475Y-102817142D02*
X131488094Y-102912380D01*
X131488094Y-102912380D02*
X131535713Y-102960000D01*
X131535713Y-102960000D02*
X131630951Y-103007619D01*
X131630951Y-103007619D02*
X131726189Y-103007619D01*
X131726189Y-103007619D02*
X131821427Y-102960000D01*
X131821427Y-102960000D02*
X131869046Y-102912380D01*
X131869046Y-102912380D02*
X131916665Y-102817142D01*
X131916665Y-102817142D02*
X131964284Y-102626666D01*
X131964284Y-102626666D02*
X131964284Y-102388571D01*
X131964284Y-102388571D02*
X131916665Y-102198095D01*
X131916665Y-102198095D02*
X131869046Y-102102857D01*
X131869046Y-102102857D02*
X131821427Y-102055238D01*
X131821427Y-102055238D02*
X131726189Y-102007619D01*
X130964284Y-102912380D02*
X130916665Y-102960000D01*
X130916665Y-102960000D02*
X130964284Y-103007619D01*
X130964284Y-103007619D02*
X131011903Y-102960000D01*
X131011903Y-102960000D02*
X130964284Y-102912380D01*
X130964284Y-102912380D02*
X130964284Y-103007619D01*
X129964285Y-103007619D02*
X130535713Y-103007619D01*
X130249999Y-103007619D02*
X130249999Y-102007619D01*
X130249999Y-102007619D02*
X130345237Y-102150476D01*
X130345237Y-102150476D02*
X130440475Y-102245714D01*
X130440475Y-102245714D02*
X130535713Y-102293333D01*
X128011903Y-103007619D02*
X128011903Y-102007619D01*
X128011903Y-102007619D02*
X127678570Y-102721904D01*
X127678570Y-102721904D02*
X127345237Y-102007619D01*
X127345237Y-102007619D02*
X127345237Y-103007619D01*
X126440475Y-103007619D02*
X126440475Y-102483809D01*
X126440475Y-102483809D02*
X126488094Y-102388571D01*
X126488094Y-102388571D02*
X126583332Y-102340952D01*
X126583332Y-102340952D02*
X126773808Y-102340952D01*
X126773808Y-102340952D02*
X126869046Y-102388571D01*
X126440475Y-102960000D02*
X126535713Y-103007619D01*
X126535713Y-103007619D02*
X126773808Y-103007619D01*
X126773808Y-103007619D02*
X126869046Y-102960000D01*
X126869046Y-102960000D02*
X126916665Y-102864761D01*
X126916665Y-102864761D02*
X126916665Y-102769523D01*
X126916665Y-102769523D02*
X126869046Y-102674285D01*
X126869046Y-102674285D02*
X126773808Y-102626666D01*
X126773808Y-102626666D02*
X126535713Y-102626666D01*
X126535713Y-102626666D02*
X126440475Y-102579047D01*
X125964284Y-103007619D02*
X125964284Y-102340952D01*
X125964284Y-102531428D02*
X125916665Y-102436190D01*
X125916665Y-102436190D02*
X125869046Y-102388571D01*
X125869046Y-102388571D02*
X125773808Y-102340952D01*
X125773808Y-102340952D02*
X125678570Y-102340952D01*
X124630950Y-102102857D02*
X124583331Y-102055238D01*
X124583331Y-102055238D02*
X124488093Y-102007619D01*
X124488093Y-102007619D02*
X124249998Y-102007619D01*
X124249998Y-102007619D02*
X124154760Y-102055238D01*
X124154760Y-102055238D02*
X124107141Y-102102857D01*
X124107141Y-102102857D02*
X124059522Y-102198095D01*
X124059522Y-102198095D02*
X124059522Y-102293333D01*
X124059522Y-102293333D02*
X124107141Y-102436190D01*
X124107141Y-102436190D02*
X124678569Y-103007619D01*
X124678569Y-103007619D02*
X124059522Y-103007619D01*
X123440474Y-102007619D02*
X123345236Y-102007619D01*
X123345236Y-102007619D02*
X123249998Y-102055238D01*
X123249998Y-102055238D02*
X123202379Y-102102857D01*
X123202379Y-102102857D02*
X123154760Y-102198095D01*
X123154760Y-102198095D02*
X123107141Y-102388571D01*
X123107141Y-102388571D02*
X123107141Y-102626666D01*
X123107141Y-102626666D02*
X123154760Y-102817142D01*
X123154760Y-102817142D02*
X123202379Y-102912380D01*
X123202379Y-102912380D02*
X123249998Y-102960000D01*
X123249998Y-102960000D02*
X123345236Y-103007619D01*
X123345236Y-103007619D02*
X123440474Y-103007619D01*
X123440474Y-103007619D02*
X123535712Y-102960000D01*
X123535712Y-102960000D02*
X123583331Y-102912380D01*
X123583331Y-102912380D02*
X123630950Y-102817142D01*
X123630950Y-102817142D02*
X123678569Y-102626666D01*
X123678569Y-102626666D02*
X123678569Y-102388571D01*
X123678569Y-102388571D02*
X123630950Y-102198095D01*
X123630950Y-102198095D02*
X123583331Y-102102857D01*
X123583331Y-102102857D02*
X123535712Y-102055238D01*
X123535712Y-102055238D02*
X123440474Y-102007619D01*
X122726188Y-102102857D02*
X122678569Y-102055238D01*
X122678569Y-102055238D02*
X122583331Y-102007619D01*
X122583331Y-102007619D02*
X122345236Y-102007619D01*
X122345236Y-102007619D02*
X122249998Y-102055238D01*
X122249998Y-102055238D02*
X122202379Y-102102857D01*
X122202379Y-102102857D02*
X122154760Y-102198095D01*
X122154760Y-102198095D02*
X122154760Y-102293333D01*
X122154760Y-102293333D02*
X122202379Y-102436190D01*
X122202379Y-102436190D02*
X122773807Y-103007619D01*
X122773807Y-103007619D02*
X122154760Y-103007619D01*
X121821426Y-102007619D02*
X121202379Y-102007619D01*
X121202379Y-102007619D02*
X121535712Y-102388571D01*
X121535712Y-102388571D02*
X121392855Y-102388571D01*
X121392855Y-102388571D02*
X121297617Y-102436190D01*
X121297617Y-102436190D02*
X121249998Y-102483809D01*
X121249998Y-102483809D02*
X121202379Y-102579047D01*
X121202379Y-102579047D02*
X121202379Y-102817142D01*
X121202379Y-102817142D02*
X121249998Y-102912380D01*
X121249998Y-102912380D02*
X121297617Y-102960000D01*
X121297617Y-102960000D02*
X121392855Y-103007619D01*
X121392855Y-103007619D02*
X121678569Y-103007619D01*
X121678569Y-103007619D02*
X121773807Y-102960000D01*
X121773807Y-102960000D02*
X121821426Y-102912380D01*
X147178571Y-103960952D02*
X147178571Y-104770476D01*
X147178571Y-104770476D02*
X147226190Y-104865714D01*
X147226190Y-104865714D02*
X147273809Y-104913333D01*
X147273809Y-104913333D02*
X147369047Y-104960952D01*
X147369047Y-104960952D02*
X147511904Y-104960952D01*
X147511904Y-104960952D02*
X147607142Y-104913333D01*
X147178571Y-104580000D02*
X147273809Y-104627619D01*
X147273809Y-104627619D02*
X147464285Y-104627619D01*
X147464285Y-104627619D02*
X147559523Y-104580000D01*
X147559523Y-104580000D02*
X147607142Y-104532380D01*
X147607142Y-104532380D02*
X147654761Y-104437142D01*
X147654761Y-104437142D02*
X147654761Y-104151428D01*
X147654761Y-104151428D02*
X147607142Y-104056190D01*
X147607142Y-104056190D02*
X147559523Y-104008571D01*
X147559523Y-104008571D02*
X147464285Y-103960952D01*
X147464285Y-103960952D02*
X147273809Y-103960952D01*
X147273809Y-103960952D02*
X147178571Y-104008571D01*
X146702380Y-104627619D02*
X146702380Y-103960952D01*
X146702380Y-103627619D02*
X146749999Y-103675238D01*
X146749999Y-103675238D02*
X146702380Y-103722857D01*
X146702380Y-103722857D02*
X146654761Y-103675238D01*
X146654761Y-103675238D02*
X146702380Y-103627619D01*
X146702380Y-103627619D02*
X146702380Y-103722857D01*
X146369047Y-103960952D02*
X145988095Y-103960952D01*
X146226190Y-103627619D02*
X146226190Y-104484761D01*
X146226190Y-104484761D02*
X146178571Y-104580000D01*
X146178571Y-104580000D02*
X146083333Y-104627619D01*
X146083333Y-104627619D02*
X145988095Y-104627619D01*
X145654761Y-104627619D02*
X145654761Y-103627619D01*
X145226190Y-104627619D02*
X145226190Y-104103809D01*
X145226190Y-104103809D02*
X145273809Y-104008571D01*
X145273809Y-104008571D02*
X145369047Y-103960952D01*
X145369047Y-103960952D02*
X145511904Y-103960952D01*
X145511904Y-103960952D02*
X145607142Y-104008571D01*
X145607142Y-104008571D02*
X145654761Y-104056190D01*
X144321428Y-103960952D02*
X144321428Y-104627619D01*
X144749999Y-103960952D02*
X144749999Y-104484761D01*
X144749999Y-104484761D02*
X144702380Y-104580000D01*
X144702380Y-104580000D02*
X144607142Y-104627619D01*
X144607142Y-104627619D02*
X144464285Y-104627619D01*
X144464285Y-104627619D02*
X144369047Y-104580000D01*
X144369047Y-104580000D02*
X144321428Y-104532380D01*
X143845237Y-104627619D02*
X143845237Y-103627619D01*
X143845237Y-104008571D02*
X143749999Y-103960952D01*
X143749999Y-103960952D02*
X143559523Y-103960952D01*
X143559523Y-103960952D02*
X143464285Y-104008571D01*
X143464285Y-104008571D02*
X143416666Y-104056190D01*
X143416666Y-104056190D02*
X143369047Y-104151428D01*
X143369047Y-104151428D02*
X143369047Y-104437142D01*
X143369047Y-104437142D02*
X143416666Y-104532380D01*
X143416666Y-104532380D02*
X143464285Y-104580000D01*
X143464285Y-104580000D02*
X143559523Y-104627619D01*
X143559523Y-104627619D02*
X143749999Y-104627619D01*
X143749999Y-104627619D02*
X143845237Y-104580000D01*
X142940475Y-104532380D02*
X142892856Y-104580000D01*
X142892856Y-104580000D02*
X142940475Y-104627619D01*
X142940475Y-104627619D02*
X142988094Y-104580000D01*
X142988094Y-104580000D02*
X142940475Y-104532380D01*
X142940475Y-104532380D02*
X142940475Y-104627619D01*
X142035714Y-104580000D02*
X142130952Y-104627619D01*
X142130952Y-104627619D02*
X142321428Y-104627619D01*
X142321428Y-104627619D02*
X142416666Y-104580000D01*
X142416666Y-104580000D02*
X142464285Y-104532380D01*
X142464285Y-104532380D02*
X142511904Y-104437142D01*
X142511904Y-104437142D02*
X142511904Y-104151428D01*
X142511904Y-104151428D02*
X142464285Y-104056190D01*
X142464285Y-104056190D02*
X142416666Y-104008571D01*
X142416666Y-104008571D02*
X142321428Y-103960952D01*
X142321428Y-103960952D02*
X142130952Y-103960952D01*
X142130952Y-103960952D02*
X142035714Y-104008571D01*
X141464285Y-104627619D02*
X141559523Y-104580000D01*
X141559523Y-104580000D02*
X141607142Y-104532380D01*
X141607142Y-104532380D02*
X141654761Y-104437142D01*
X141654761Y-104437142D02*
X141654761Y-104151428D01*
X141654761Y-104151428D02*
X141607142Y-104056190D01*
X141607142Y-104056190D02*
X141559523Y-104008571D01*
X141559523Y-104008571D02*
X141464285Y-103960952D01*
X141464285Y-103960952D02*
X141321428Y-103960952D01*
X141321428Y-103960952D02*
X141226190Y-104008571D01*
X141226190Y-104008571D02*
X141178571Y-104056190D01*
X141178571Y-104056190D02*
X141130952Y-104151428D01*
X141130952Y-104151428D02*
X141130952Y-104437142D01*
X141130952Y-104437142D02*
X141178571Y-104532380D01*
X141178571Y-104532380D02*
X141226190Y-104580000D01*
X141226190Y-104580000D02*
X141321428Y-104627619D01*
X141321428Y-104627619D02*
X141464285Y-104627619D01*
X140702380Y-104627619D02*
X140702380Y-103960952D01*
X140702380Y-104056190D02*
X140654761Y-104008571D01*
X140654761Y-104008571D02*
X140559523Y-103960952D01*
X140559523Y-103960952D02*
X140416666Y-103960952D01*
X140416666Y-103960952D02*
X140321428Y-104008571D01*
X140321428Y-104008571D02*
X140273809Y-104103809D01*
X140273809Y-104103809D02*
X140273809Y-104627619D01*
X140273809Y-104103809D02*
X140226190Y-104008571D01*
X140226190Y-104008571D02*
X140130952Y-103960952D01*
X140130952Y-103960952D02*
X139988095Y-103960952D01*
X139988095Y-103960952D02*
X139892856Y-104008571D01*
X139892856Y-104008571D02*
X139845237Y-104103809D01*
X139845237Y-104103809D02*
X139845237Y-104627619D01*
X138654762Y-103580000D02*
X139511904Y-104865714D01*
X138321428Y-104627619D02*
X138321428Y-103960952D01*
X138321428Y-104056190D02*
X138273809Y-104008571D01*
X138273809Y-104008571D02*
X138178571Y-103960952D01*
X138178571Y-103960952D02*
X138035714Y-103960952D01*
X138035714Y-103960952D02*
X137940476Y-104008571D01*
X137940476Y-104008571D02*
X137892857Y-104103809D01*
X137892857Y-104103809D02*
X137892857Y-104627619D01*
X137892857Y-104103809D02*
X137845238Y-104008571D01*
X137845238Y-104008571D02*
X137750000Y-103960952D01*
X137750000Y-103960952D02*
X137607143Y-103960952D01*
X137607143Y-103960952D02*
X137511904Y-104008571D01*
X137511904Y-104008571D02*
X137464285Y-104103809D01*
X137464285Y-104103809D02*
X137464285Y-104627619D01*
X136988095Y-103960952D02*
X136988095Y-104960952D01*
X136988095Y-104008571D02*
X136892857Y-103960952D01*
X136892857Y-103960952D02*
X136702381Y-103960952D01*
X136702381Y-103960952D02*
X136607143Y-104008571D01*
X136607143Y-104008571D02*
X136559524Y-104056190D01*
X136559524Y-104056190D02*
X136511905Y-104151428D01*
X136511905Y-104151428D02*
X136511905Y-104437142D01*
X136511905Y-104437142D02*
X136559524Y-104532380D01*
X136559524Y-104532380D02*
X136607143Y-104580000D01*
X136607143Y-104580000D02*
X136702381Y-104627619D01*
X136702381Y-104627619D02*
X136892857Y-104627619D01*
X136892857Y-104627619D02*
X136988095Y-104580000D01*
X136083333Y-104627619D02*
X136083333Y-103960952D01*
X136083333Y-104151428D02*
X136035714Y-104056190D01*
X136035714Y-104056190D02*
X135988095Y-104008571D01*
X135988095Y-104008571D02*
X135892857Y-103960952D01*
X135892857Y-103960952D02*
X135797619Y-103960952D01*
X135321428Y-104627619D02*
X135416666Y-104580000D01*
X135416666Y-104580000D02*
X135464285Y-104532380D01*
X135464285Y-104532380D02*
X135511904Y-104437142D01*
X135511904Y-104437142D02*
X135511904Y-104151428D01*
X135511904Y-104151428D02*
X135464285Y-104056190D01*
X135464285Y-104056190D02*
X135416666Y-104008571D01*
X135416666Y-104008571D02*
X135321428Y-103960952D01*
X135321428Y-103960952D02*
X135178571Y-103960952D01*
X135178571Y-103960952D02*
X135083333Y-104008571D01*
X135083333Y-104008571D02*
X135035714Y-104056190D01*
X135035714Y-104056190D02*
X134988095Y-104151428D01*
X134988095Y-104151428D02*
X134988095Y-104437142D01*
X134988095Y-104437142D02*
X135035714Y-104532380D01*
X135035714Y-104532380D02*
X135083333Y-104580000D01*
X135083333Y-104580000D02*
X135178571Y-104627619D01*
X135178571Y-104627619D02*
X135321428Y-104627619D01*
X134607142Y-104580000D02*
X134511904Y-104627619D01*
X134511904Y-104627619D02*
X134321428Y-104627619D01*
X134321428Y-104627619D02*
X134226190Y-104580000D01*
X134226190Y-104580000D02*
X134178571Y-104484761D01*
X134178571Y-104484761D02*
X134178571Y-104437142D01*
X134178571Y-104437142D02*
X134226190Y-104341904D01*
X134226190Y-104341904D02*
X134321428Y-104294285D01*
X134321428Y-104294285D02*
X134464285Y-104294285D01*
X134464285Y-104294285D02*
X134559523Y-104246666D01*
X134559523Y-104246666D02*
X134607142Y-104151428D01*
X134607142Y-104151428D02*
X134607142Y-104103809D01*
X134607142Y-104103809D02*
X134559523Y-104008571D01*
X134559523Y-104008571D02*
X134464285Y-103960952D01*
X134464285Y-103960952D02*
X134321428Y-103960952D01*
X134321428Y-103960952D02*
X134226190Y-104008571D01*
X133749999Y-104627619D02*
X133749999Y-103627619D01*
X133654761Y-104246666D02*
X133369047Y-104627619D01*
X133369047Y-103960952D02*
X133749999Y-104341904D01*
X132226190Y-103580000D02*
X133083332Y-104865714D01*
X131892856Y-104627619D02*
X131892856Y-103960952D01*
X131892856Y-104056190D02*
X131845237Y-104008571D01*
X131845237Y-104008571D02*
X131749999Y-103960952D01*
X131749999Y-103960952D02*
X131607142Y-103960952D01*
X131607142Y-103960952D02*
X131511904Y-104008571D01*
X131511904Y-104008571D02*
X131464285Y-104103809D01*
X131464285Y-104103809D02*
X131464285Y-104627619D01*
X131464285Y-104103809D02*
X131416666Y-104008571D01*
X131416666Y-104008571D02*
X131321428Y-103960952D01*
X131321428Y-103960952D02*
X131178571Y-103960952D01*
X131178571Y-103960952D02*
X131083332Y-104008571D01*
X131083332Y-104008571D02*
X131035713Y-104103809D01*
X131035713Y-104103809D02*
X131035713Y-104627619D01*
X130559523Y-104627619D02*
X130559523Y-103960952D01*
X130559523Y-103627619D02*
X130607142Y-103675238D01*
X130607142Y-103675238D02*
X130559523Y-103722857D01*
X130559523Y-103722857D02*
X130511904Y-103675238D01*
X130511904Y-103675238D02*
X130559523Y-103627619D01*
X130559523Y-103627619D02*
X130559523Y-103722857D01*
X129654762Y-104627619D02*
X129654762Y-103627619D01*
X129654762Y-104580000D02*
X129750000Y-104627619D01*
X129750000Y-104627619D02*
X129940476Y-104627619D01*
X129940476Y-104627619D02*
X130035714Y-104580000D01*
X130035714Y-104580000D02*
X130083333Y-104532380D01*
X130083333Y-104532380D02*
X130130952Y-104437142D01*
X130130952Y-104437142D02*
X130130952Y-104151428D01*
X130130952Y-104151428D02*
X130083333Y-104056190D01*
X130083333Y-104056190D02*
X130035714Y-104008571D01*
X130035714Y-104008571D02*
X129940476Y-103960952D01*
X129940476Y-103960952D02*
X129750000Y-103960952D01*
X129750000Y-103960952D02*
X129654762Y-104008571D01*
X129178571Y-104627619D02*
X129178571Y-103960952D01*
X129178571Y-103627619D02*
X129226190Y-103675238D01*
X129226190Y-103675238D02*
X129178571Y-103722857D01*
X129178571Y-103722857D02*
X129130952Y-103675238D01*
X129130952Y-103675238D02*
X129178571Y-103627619D01*
X129178571Y-103627619D02*
X129178571Y-103722857D01*
X128845238Y-103960952D02*
X128464286Y-103960952D01*
X128702381Y-103627619D02*
X128702381Y-104484761D01*
X128702381Y-104484761D02*
X128654762Y-104580000D01*
X128654762Y-104580000D02*
X128559524Y-104627619D01*
X128559524Y-104627619D02*
X128464286Y-104627619D01*
X127750000Y-104580000D02*
X127845238Y-104627619D01*
X127845238Y-104627619D02*
X128035714Y-104627619D01*
X128035714Y-104627619D02*
X128130952Y-104580000D01*
X128130952Y-104580000D02*
X128178571Y-104484761D01*
X128178571Y-104484761D02*
X128178571Y-104103809D01*
X128178571Y-104103809D02*
X128130952Y-104008571D01*
X128130952Y-104008571D02*
X128035714Y-103960952D01*
X128035714Y-103960952D02*
X127845238Y-103960952D01*
X127845238Y-103960952D02*
X127750000Y-104008571D01*
X127750000Y-104008571D02*
X127702381Y-104103809D01*
X127702381Y-104103809D02*
X127702381Y-104199047D01*
X127702381Y-104199047D02*
X128178571Y-104294285D01*
X127273809Y-104627619D02*
X127273809Y-103960952D01*
X127273809Y-104151428D02*
X127226190Y-104056190D01*
X127226190Y-104056190D02*
X127178571Y-104008571D01*
X127178571Y-104008571D02*
X127083333Y-103960952D01*
X127083333Y-103960952D02*
X126988095Y-103960952D01*
X126654761Y-104627619D02*
X126654761Y-103960952D01*
X126654761Y-104056190D02*
X126607142Y-104008571D01*
X126607142Y-104008571D02*
X126511904Y-103960952D01*
X126511904Y-103960952D02*
X126369047Y-103960952D01*
X126369047Y-103960952D02*
X126273809Y-104008571D01*
X126273809Y-104008571D02*
X126226190Y-104103809D01*
X126226190Y-104103809D02*
X126226190Y-104627619D01*
X126226190Y-104103809D02*
X126178571Y-104008571D01*
X126178571Y-104008571D02*
X126083333Y-103960952D01*
X126083333Y-103960952D02*
X125940476Y-103960952D01*
X125940476Y-103960952D02*
X125845237Y-104008571D01*
X125845237Y-104008571D02*
X125797618Y-104103809D01*
X125797618Y-104103809D02*
X125797618Y-104627619D01*
X125321428Y-104246666D02*
X124559524Y-104246666D01*
X123654762Y-104627619D02*
X123654762Y-104103809D01*
X123654762Y-104103809D02*
X123702381Y-104008571D01*
X123702381Y-104008571D02*
X123797619Y-103960952D01*
X123797619Y-103960952D02*
X123988095Y-103960952D01*
X123988095Y-103960952D02*
X124083333Y-104008571D01*
X123654762Y-104580000D02*
X123750000Y-104627619D01*
X123750000Y-104627619D02*
X123988095Y-104627619D01*
X123988095Y-104627619D02*
X124083333Y-104580000D01*
X124083333Y-104580000D02*
X124130952Y-104484761D01*
X124130952Y-104484761D02*
X124130952Y-104389523D01*
X124130952Y-104389523D02*
X124083333Y-104294285D01*
X124083333Y-104294285D02*
X123988095Y-104246666D01*
X123988095Y-104246666D02*
X123750000Y-104246666D01*
X123750000Y-104246666D02*
X123654762Y-104199047D01*
X122750000Y-104627619D02*
X122750000Y-103627619D01*
X122750000Y-104580000D02*
X122845238Y-104627619D01*
X122845238Y-104627619D02*
X123035714Y-104627619D01*
X123035714Y-104627619D02*
X123130952Y-104580000D01*
X123130952Y-104580000D02*
X123178571Y-104532380D01*
X123178571Y-104532380D02*
X123226190Y-104437142D01*
X123226190Y-104437142D02*
X123226190Y-104151428D01*
X123226190Y-104151428D02*
X123178571Y-104056190D01*
X123178571Y-104056190D02*
X123130952Y-104008571D01*
X123130952Y-104008571D02*
X123035714Y-103960952D01*
X123035714Y-103960952D02*
X122845238Y-103960952D01*
X122845238Y-103960952D02*
X122750000Y-104008571D01*
X121845238Y-104627619D02*
X121845238Y-104103809D01*
X121845238Y-104103809D02*
X121892857Y-104008571D01*
X121892857Y-104008571D02*
X121988095Y-103960952D01*
X121988095Y-103960952D02*
X122178571Y-103960952D01*
X122178571Y-103960952D02*
X122273809Y-104008571D01*
X121845238Y-104580000D02*
X121940476Y-104627619D01*
X121940476Y-104627619D02*
X122178571Y-104627619D01*
X122178571Y-104627619D02*
X122273809Y-104580000D01*
X122273809Y-104580000D02*
X122321428Y-104484761D01*
X122321428Y-104484761D02*
X122321428Y-104389523D01*
X122321428Y-104389523D02*
X122273809Y-104294285D01*
X122273809Y-104294285D02*
X122178571Y-104246666D01*
X122178571Y-104246666D02*
X121940476Y-104246666D01*
X121940476Y-104246666D02*
X121845238Y-104199047D01*
X121369047Y-103960952D02*
X121369047Y-104960952D01*
X121369047Y-104008571D02*
X121273809Y-103960952D01*
X121273809Y-103960952D02*
X121083333Y-103960952D01*
X121083333Y-103960952D02*
X120988095Y-104008571D01*
X120988095Y-104008571D02*
X120940476Y-104056190D01*
X120940476Y-104056190D02*
X120892857Y-104151428D01*
X120892857Y-104151428D02*
X120892857Y-104437142D01*
X120892857Y-104437142D02*
X120940476Y-104532380D01*
X120940476Y-104532380D02*
X120988095Y-104580000D01*
X120988095Y-104580000D02*
X121083333Y-104627619D01*
X121083333Y-104627619D02*
X121273809Y-104627619D01*
X121273809Y-104627619D02*
X121369047Y-104580000D01*
X120607142Y-103960952D02*
X120226190Y-103960952D01*
X120464285Y-103627619D02*
X120464285Y-104484761D01*
X120464285Y-104484761D02*
X120416666Y-104580000D01*
X120416666Y-104580000D02*
X120321428Y-104627619D01*
X120321428Y-104627619D02*
X120226190Y-104627619D01*
X119511904Y-104580000D02*
X119607142Y-104627619D01*
X119607142Y-104627619D02*
X119797618Y-104627619D01*
X119797618Y-104627619D02*
X119892856Y-104580000D01*
X119892856Y-104580000D02*
X119940475Y-104484761D01*
X119940475Y-104484761D02*
X119940475Y-104103809D01*
X119940475Y-104103809D02*
X119892856Y-104008571D01*
X119892856Y-104008571D02*
X119797618Y-103960952D01*
X119797618Y-103960952D02*
X119607142Y-103960952D01*
X119607142Y-103960952D02*
X119511904Y-104008571D01*
X119511904Y-104008571D02*
X119464285Y-104103809D01*
X119464285Y-104103809D02*
X119464285Y-104199047D01*
X119464285Y-104199047D02*
X119940475Y-104294285D01*
X119035713Y-104627619D02*
X119035713Y-103960952D01*
X119035713Y-104151428D02*
X118988094Y-104056190D01*
X118988094Y-104056190D02*
X118940475Y-104008571D01*
X118940475Y-104008571D02*
X118845237Y-103960952D01*
X118845237Y-103960952D02*
X118749999Y-103960952D01*
X156904761Y-87462619D02*
X156571428Y-88462619D01*
X156571428Y-88462619D02*
X156238095Y-87462619D01*
X155571428Y-87938809D02*
X155428571Y-87986428D01*
X155428571Y-87986428D02*
X155380952Y-88034047D01*
X155380952Y-88034047D02*
X155333333Y-88129285D01*
X155333333Y-88129285D02*
X155333333Y-88272142D01*
X155333333Y-88272142D02*
X155380952Y-88367380D01*
X155380952Y-88367380D02*
X155428571Y-88415000D01*
X155428571Y-88415000D02*
X155523809Y-88462619D01*
X155523809Y-88462619D02*
X155904761Y-88462619D01*
X155904761Y-88462619D02*
X155904761Y-87462619D01*
X155904761Y-87462619D02*
X155571428Y-87462619D01*
X155571428Y-87462619D02*
X155476190Y-87510238D01*
X155476190Y-87510238D02*
X155428571Y-87557857D01*
X155428571Y-87557857D02*
X155380952Y-87653095D01*
X155380952Y-87653095D02*
X155380952Y-87748333D01*
X155380952Y-87748333D02*
X155428571Y-87843571D01*
X155428571Y-87843571D02*
X155476190Y-87891190D01*
X155476190Y-87891190D02*
X155571428Y-87938809D01*
X155571428Y-87938809D02*
X155904761Y-87938809D01*
X154904761Y-87462619D02*
X154904761Y-88272142D01*
X154904761Y-88272142D02*
X154857142Y-88367380D01*
X154857142Y-88367380D02*
X154809523Y-88415000D01*
X154809523Y-88415000D02*
X154714285Y-88462619D01*
X154714285Y-88462619D02*
X154523809Y-88462619D01*
X154523809Y-88462619D02*
X154428571Y-88415000D01*
X154428571Y-88415000D02*
X154380952Y-88367380D01*
X154380952Y-88367380D02*
X154333333Y-88272142D01*
X154333333Y-88272142D02*
X154333333Y-87462619D01*
X153904761Y-88415000D02*
X153761904Y-88462619D01*
X153761904Y-88462619D02*
X153523809Y-88462619D01*
X153523809Y-88462619D02*
X153428571Y-88415000D01*
X153428571Y-88415000D02*
X153380952Y-88367380D01*
X153380952Y-88367380D02*
X153333333Y-88272142D01*
X153333333Y-88272142D02*
X153333333Y-88176904D01*
X153333333Y-88176904D02*
X153380952Y-88081666D01*
X153380952Y-88081666D02*
X153428571Y-88034047D01*
X153428571Y-88034047D02*
X153523809Y-87986428D01*
X153523809Y-87986428D02*
X153714285Y-87938809D01*
X153714285Y-87938809D02*
X153809523Y-87891190D01*
X153809523Y-87891190D02*
X153857142Y-87843571D01*
X153857142Y-87843571D02*
X153904761Y-87748333D01*
X153904761Y-87748333D02*
X153904761Y-87653095D01*
X153904761Y-87653095D02*
X153857142Y-87557857D01*
X153857142Y-87557857D02*
X153809523Y-87510238D01*
X153809523Y-87510238D02*
X153714285Y-87462619D01*
X153714285Y-87462619D02*
X153476190Y-87462619D01*
X153476190Y-87462619D02*
X153333333Y-87510238D01*
X151857142Y-88843571D02*
X151904761Y-88795952D01*
X151904761Y-88795952D02*
X151999999Y-88653095D01*
X151999999Y-88653095D02*
X152047618Y-88557857D01*
X152047618Y-88557857D02*
X152095237Y-88415000D01*
X152095237Y-88415000D02*
X152142856Y-88176904D01*
X152142856Y-88176904D02*
X152142856Y-87986428D01*
X152142856Y-87986428D02*
X152095237Y-87748333D01*
X152095237Y-87748333D02*
X152047618Y-87605476D01*
X152047618Y-87605476D02*
X151999999Y-87510238D01*
X151999999Y-87510238D02*
X151904761Y-87367380D01*
X151904761Y-87367380D02*
X151857142Y-87319761D01*
X150904761Y-88462619D02*
X151238094Y-87986428D01*
X151476189Y-88462619D02*
X151476189Y-87462619D01*
X151476189Y-87462619D02*
X151095237Y-87462619D01*
X151095237Y-87462619D02*
X150999999Y-87510238D01*
X150999999Y-87510238D02*
X150952380Y-87557857D01*
X150952380Y-87557857D02*
X150904761Y-87653095D01*
X150904761Y-87653095D02*
X150904761Y-87795952D01*
X150904761Y-87795952D02*
X150952380Y-87891190D01*
X150952380Y-87891190D02*
X150999999Y-87938809D01*
X150999999Y-87938809D02*
X151095237Y-87986428D01*
X151095237Y-87986428D02*
X151476189Y-87986428D01*
X150476189Y-87938809D02*
X150142856Y-87938809D01*
X149999999Y-88462619D02*
X150476189Y-88462619D01*
X150476189Y-88462619D02*
X150476189Y-87462619D01*
X150476189Y-87462619D02*
X149999999Y-87462619D01*
X149571427Y-88462619D02*
X149571427Y-87462619D01*
X149571427Y-87462619D02*
X149333332Y-87462619D01*
X149333332Y-87462619D02*
X149190475Y-87510238D01*
X149190475Y-87510238D02*
X149095237Y-87605476D01*
X149095237Y-87605476D02*
X149047618Y-87700714D01*
X149047618Y-87700714D02*
X148999999Y-87891190D01*
X148999999Y-87891190D02*
X148999999Y-88034047D01*
X148999999Y-88034047D02*
X149047618Y-88224523D01*
X149047618Y-88224523D02*
X149095237Y-88319761D01*
X149095237Y-88319761D02*
X149190475Y-88415000D01*
X149190475Y-88415000D02*
X149333332Y-88462619D01*
X149333332Y-88462619D02*
X149571427Y-88462619D01*
X148666665Y-88843571D02*
X148619046Y-88795952D01*
X148619046Y-88795952D02*
X148523808Y-88653095D01*
X148523808Y-88653095D02*
X148476189Y-88557857D01*
X148476189Y-88557857D02*
X148428570Y-88415000D01*
X148428570Y-88415000D02*
X148380951Y-88176904D01*
X148380951Y-88176904D02*
X148380951Y-87986428D01*
X148380951Y-87986428D02*
X148428570Y-87748333D01*
X148428570Y-87748333D02*
X148476189Y-87605476D01*
X148476189Y-87605476D02*
X148523808Y-87510238D01*
X148523808Y-87510238D02*
X148619046Y-87367380D01*
X148619046Y-87367380D02*
X148666665Y-87319761D01*
X116119048Y-84343571D02*
X116166667Y-84295952D01*
X116166667Y-84295952D02*
X116261905Y-84153095D01*
X116261905Y-84153095D02*
X116309524Y-84057857D01*
X116309524Y-84057857D02*
X116357143Y-83915000D01*
X116357143Y-83915000D02*
X116404762Y-83676904D01*
X116404762Y-83676904D02*
X116404762Y-83486428D01*
X116404762Y-83486428D02*
X116357143Y-83248333D01*
X116357143Y-83248333D02*
X116309524Y-83105476D01*
X116309524Y-83105476D02*
X116261905Y-83010238D01*
X116261905Y-83010238D02*
X116166667Y-82867380D01*
X116166667Y-82867380D02*
X116119048Y-82819761D01*
X115547619Y-83486428D02*
X115547619Y-83962619D01*
X115880952Y-82962619D02*
X115547619Y-83486428D01*
X115547619Y-83486428D02*
X115214286Y-82962619D01*
X114880952Y-83438809D02*
X114547619Y-83438809D01*
X114404762Y-83962619D02*
X114880952Y-83962619D01*
X114880952Y-83962619D02*
X114880952Y-82962619D01*
X114880952Y-82962619D02*
X114404762Y-82962619D01*
X113500000Y-83962619D02*
X113976190Y-83962619D01*
X113976190Y-83962619D02*
X113976190Y-82962619D01*
X112690476Y-83962619D02*
X113166666Y-83962619D01*
X113166666Y-83962619D02*
X113166666Y-82962619D01*
X112166666Y-82962619D02*
X111976190Y-82962619D01*
X111976190Y-82962619D02*
X111880952Y-83010238D01*
X111880952Y-83010238D02*
X111785714Y-83105476D01*
X111785714Y-83105476D02*
X111738095Y-83295952D01*
X111738095Y-83295952D02*
X111738095Y-83629285D01*
X111738095Y-83629285D02*
X111785714Y-83819761D01*
X111785714Y-83819761D02*
X111880952Y-83915000D01*
X111880952Y-83915000D02*
X111976190Y-83962619D01*
X111976190Y-83962619D02*
X112166666Y-83962619D01*
X112166666Y-83962619D02*
X112261904Y-83915000D01*
X112261904Y-83915000D02*
X112357142Y-83819761D01*
X112357142Y-83819761D02*
X112404761Y-83629285D01*
X112404761Y-83629285D02*
X112404761Y-83295952D01*
X112404761Y-83295952D02*
X112357142Y-83105476D01*
X112357142Y-83105476D02*
X112261904Y-83010238D01*
X112261904Y-83010238D02*
X112166666Y-82962619D01*
X111404761Y-82962619D02*
X111166666Y-83962619D01*
X111166666Y-83962619D02*
X110976190Y-83248333D01*
X110976190Y-83248333D02*
X110785714Y-83962619D01*
X110785714Y-83962619D02*
X110547619Y-82962619D01*
X110261904Y-84343571D02*
X110214285Y-84295952D01*
X110214285Y-84295952D02*
X110119047Y-84153095D01*
X110119047Y-84153095D02*
X110071428Y-84057857D01*
X110071428Y-84057857D02*
X110023809Y-83915000D01*
X110023809Y-83915000D02*
X109976190Y-83676904D01*
X109976190Y-83676904D02*
X109976190Y-83486428D01*
X109976190Y-83486428D02*
X110023809Y-83248333D01*
X110023809Y-83248333D02*
X110071428Y-83105476D01*
X110071428Y-83105476D02*
X110119047Y-83010238D01*
X110119047Y-83010238D02*
X110214285Y-82867380D01*
X110214285Y-82867380D02*
X110261904Y-82819761D01*
X108738094Y-83962619D02*
X108738094Y-82962619D01*
X108738094Y-82962619D02*
X108357142Y-82962619D01*
X108357142Y-82962619D02*
X108261904Y-83010238D01*
X108261904Y-83010238D02*
X108214285Y-83057857D01*
X108214285Y-83057857D02*
X108166666Y-83153095D01*
X108166666Y-83153095D02*
X108166666Y-83295952D01*
X108166666Y-83295952D02*
X108214285Y-83391190D01*
X108214285Y-83391190D02*
X108261904Y-83438809D01*
X108261904Y-83438809D02*
X108357142Y-83486428D01*
X108357142Y-83486428D02*
X108738094Y-83486428D01*
X107738094Y-83962619D02*
X107738094Y-82962619D01*
X107261904Y-83962619D02*
X107261904Y-82962619D01*
X107261904Y-82962619D02*
X106690476Y-83962619D01*
X106690476Y-83962619D02*
X106690476Y-82962619D01*
X106261904Y-83057857D02*
X106214285Y-83010238D01*
X106214285Y-83010238D02*
X106119047Y-82962619D01*
X106119047Y-82962619D02*
X105880952Y-82962619D01*
X105880952Y-82962619D02*
X105785714Y-83010238D01*
X105785714Y-83010238D02*
X105738095Y-83057857D01*
X105738095Y-83057857D02*
X105690476Y-83153095D01*
X105690476Y-83153095D02*
X105690476Y-83248333D01*
X105690476Y-83248333D02*
X105738095Y-83391190D01*
X105738095Y-83391190D02*
X106309523Y-83962619D01*
X106309523Y-83962619D02*
X105690476Y-83962619D01*
X156238095Y-85510238D02*
X156333333Y-85462619D01*
X156333333Y-85462619D02*
X156476190Y-85462619D01*
X156476190Y-85462619D02*
X156619047Y-85510238D01*
X156619047Y-85510238D02*
X156714285Y-85605476D01*
X156714285Y-85605476D02*
X156761904Y-85700714D01*
X156761904Y-85700714D02*
X156809523Y-85891190D01*
X156809523Y-85891190D02*
X156809523Y-86034047D01*
X156809523Y-86034047D02*
X156761904Y-86224523D01*
X156761904Y-86224523D02*
X156714285Y-86319761D01*
X156714285Y-86319761D02*
X156619047Y-86415000D01*
X156619047Y-86415000D02*
X156476190Y-86462619D01*
X156476190Y-86462619D02*
X156380952Y-86462619D01*
X156380952Y-86462619D02*
X156238095Y-86415000D01*
X156238095Y-86415000D02*
X156190476Y-86367380D01*
X156190476Y-86367380D02*
X156190476Y-86034047D01*
X156190476Y-86034047D02*
X156380952Y-86034047D01*
X155761904Y-86462619D02*
X155761904Y-85462619D01*
X155761904Y-85462619D02*
X155190476Y-86462619D01*
X155190476Y-86462619D02*
X155190476Y-85462619D01*
X154714285Y-86462619D02*
X154714285Y-85462619D01*
X154714285Y-85462619D02*
X154476190Y-85462619D01*
X154476190Y-85462619D02*
X154333333Y-85510238D01*
X154333333Y-85510238D02*
X154238095Y-85605476D01*
X154238095Y-85605476D02*
X154190476Y-85700714D01*
X154190476Y-85700714D02*
X154142857Y-85891190D01*
X154142857Y-85891190D02*
X154142857Y-86034047D01*
X154142857Y-86034047D02*
X154190476Y-86224523D01*
X154190476Y-86224523D02*
X154238095Y-86319761D01*
X154238095Y-86319761D02*
X154333333Y-86415000D01*
X154333333Y-86415000D02*
X154476190Y-86462619D01*
X154476190Y-86462619D02*
X154714285Y-86462619D01*
X152666666Y-86843571D02*
X152714285Y-86795952D01*
X152714285Y-86795952D02*
X152809523Y-86653095D01*
X152809523Y-86653095D02*
X152857142Y-86557857D01*
X152857142Y-86557857D02*
X152904761Y-86415000D01*
X152904761Y-86415000D02*
X152952380Y-86176904D01*
X152952380Y-86176904D02*
X152952380Y-85986428D01*
X152952380Y-85986428D02*
X152904761Y-85748333D01*
X152904761Y-85748333D02*
X152857142Y-85605476D01*
X152857142Y-85605476D02*
X152809523Y-85510238D01*
X152809523Y-85510238D02*
X152714285Y-85367380D01*
X152714285Y-85367380D02*
X152666666Y-85319761D01*
X151952380Y-85938809D02*
X151809523Y-85986428D01*
X151809523Y-85986428D02*
X151761904Y-86034047D01*
X151761904Y-86034047D02*
X151714285Y-86129285D01*
X151714285Y-86129285D02*
X151714285Y-86272142D01*
X151714285Y-86272142D02*
X151761904Y-86367380D01*
X151761904Y-86367380D02*
X151809523Y-86415000D01*
X151809523Y-86415000D02*
X151904761Y-86462619D01*
X151904761Y-86462619D02*
X152285713Y-86462619D01*
X152285713Y-86462619D02*
X152285713Y-85462619D01*
X152285713Y-85462619D02*
X151952380Y-85462619D01*
X151952380Y-85462619D02*
X151857142Y-85510238D01*
X151857142Y-85510238D02*
X151809523Y-85557857D01*
X151809523Y-85557857D02*
X151761904Y-85653095D01*
X151761904Y-85653095D02*
X151761904Y-85748333D01*
X151761904Y-85748333D02*
X151809523Y-85843571D01*
X151809523Y-85843571D02*
X151857142Y-85891190D01*
X151857142Y-85891190D02*
X151952380Y-85938809D01*
X151952380Y-85938809D02*
X152285713Y-85938809D01*
X150809523Y-86462619D02*
X151285713Y-86462619D01*
X151285713Y-86462619D02*
X151285713Y-85462619D01*
X150523808Y-86176904D02*
X150047618Y-86176904D01*
X150619046Y-86462619D02*
X150285713Y-85462619D01*
X150285713Y-85462619D02*
X149952380Y-86462619D01*
X149047618Y-86367380D02*
X149095237Y-86415000D01*
X149095237Y-86415000D02*
X149238094Y-86462619D01*
X149238094Y-86462619D02*
X149333332Y-86462619D01*
X149333332Y-86462619D02*
X149476189Y-86415000D01*
X149476189Y-86415000D02*
X149571427Y-86319761D01*
X149571427Y-86319761D02*
X149619046Y-86224523D01*
X149619046Y-86224523D02*
X149666665Y-86034047D01*
X149666665Y-86034047D02*
X149666665Y-85891190D01*
X149666665Y-85891190D02*
X149619046Y-85700714D01*
X149619046Y-85700714D02*
X149571427Y-85605476D01*
X149571427Y-85605476D02*
X149476189Y-85510238D01*
X149476189Y-85510238D02*
X149333332Y-85462619D01*
X149333332Y-85462619D02*
X149238094Y-85462619D01*
X149238094Y-85462619D02*
X149095237Y-85510238D01*
X149095237Y-85510238D02*
X149047618Y-85557857D01*
X148619046Y-86462619D02*
X148619046Y-85462619D01*
X148047618Y-86462619D02*
X148476189Y-85891190D01*
X148047618Y-85462619D02*
X148619046Y-86034047D01*
X147714284Y-86843571D02*
X147666665Y-86795952D01*
X147666665Y-86795952D02*
X147571427Y-86653095D01*
X147571427Y-86653095D02*
X147523808Y-86557857D01*
X147523808Y-86557857D02*
X147476189Y-86415000D01*
X147476189Y-86415000D02*
X147428570Y-86176904D01*
X147428570Y-86176904D02*
X147428570Y-85986428D01*
X147428570Y-85986428D02*
X147476189Y-85748333D01*
X147476189Y-85748333D02*
X147523808Y-85605476D01*
X147523808Y-85605476D02*
X147571427Y-85510238D01*
X147571427Y-85510238D02*
X147666665Y-85367380D01*
X147666665Y-85367380D02*
X147714284Y-85319761D01*
X116866072Y-97343571D02*
X116913691Y-97295952D01*
X116913691Y-97295952D02*
X117008929Y-97153095D01*
X117008929Y-97153095D02*
X117056548Y-97057857D01*
X117056548Y-97057857D02*
X117104167Y-96915000D01*
X117104167Y-96915000D02*
X117151786Y-96676904D01*
X117151786Y-96676904D02*
X117151786Y-96486428D01*
X117151786Y-96486428D02*
X117104167Y-96248333D01*
X117104167Y-96248333D02*
X117056548Y-96105476D01*
X117056548Y-96105476D02*
X117008929Y-96010238D01*
X117008929Y-96010238D02*
X116913691Y-95867380D01*
X116913691Y-95867380D02*
X116866072Y-95819761D01*
X116151786Y-96438809D02*
X116008929Y-96486428D01*
X116008929Y-96486428D02*
X115961310Y-96534047D01*
X115961310Y-96534047D02*
X115913691Y-96629285D01*
X115913691Y-96629285D02*
X115913691Y-96772142D01*
X115913691Y-96772142D02*
X115961310Y-96867380D01*
X115961310Y-96867380D02*
X116008929Y-96915000D01*
X116008929Y-96915000D02*
X116104167Y-96962619D01*
X116104167Y-96962619D02*
X116485119Y-96962619D01*
X116485119Y-96962619D02*
X116485119Y-95962619D01*
X116485119Y-95962619D02*
X116151786Y-95962619D01*
X116151786Y-95962619D02*
X116056548Y-96010238D01*
X116056548Y-96010238D02*
X116008929Y-96057857D01*
X116008929Y-96057857D02*
X115961310Y-96153095D01*
X115961310Y-96153095D02*
X115961310Y-96248333D01*
X115961310Y-96248333D02*
X116008929Y-96343571D01*
X116008929Y-96343571D02*
X116056548Y-96391190D01*
X116056548Y-96391190D02*
X116151786Y-96438809D01*
X116151786Y-96438809D02*
X116485119Y-96438809D01*
X115008929Y-96962619D02*
X115485119Y-96962619D01*
X115485119Y-96962619D02*
X115485119Y-95962619D01*
X114723214Y-96676904D02*
X114247024Y-96676904D01*
X114818452Y-96962619D02*
X114485119Y-95962619D01*
X114485119Y-95962619D02*
X114151786Y-96962619D01*
X113247024Y-96867380D02*
X113294643Y-96915000D01*
X113294643Y-96915000D02*
X113437500Y-96962619D01*
X113437500Y-96962619D02*
X113532738Y-96962619D01*
X113532738Y-96962619D02*
X113675595Y-96915000D01*
X113675595Y-96915000D02*
X113770833Y-96819761D01*
X113770833Y-96819761D02*
X113818452Y-96724523D01*
X113818452Y-96724523D02*
X113866071Y-96534047D01*
X113866071Y-96534047D02*
X113866071Y-96391190D01*
X113866071Y-96391190D02*
X113818452Y-96200714D01*
X113818452Y-96200714D02*
X113770833Y-96105476D01*
X113770833Y-96105476D02*
X113675595Y-96010238D01*
X113675595Y-96010238D02*
X113532738Y-95962619D01*
X113532738Y-95962619D02*
X113437500Y-95962619D01*
X113437500Y-95962619D02*
X113294643Y-96010238D01*
X113294643Y-96010238D02*
X113247024Y-96057857D01*
X112818452Y-96962619D02*
X112818452Y-95962619D01*
X112247024Y-96962619D02*
X112675595Y-96391190D01*
X112247024Y-95962619D02*
X112818452Y-96534047D01*
X111913690Y-97343571D02*
X111866071Y-97295952D01*
X111866071Y-97295952D02*
X111770833Y-97153095D01*
X111770833Y-97153095D02*
X111723214Y-97057857D01*
X111723214Y-97057857D02*
X111675595Y-96915000D01*
X111675595Y-96915000D02*
X111627976Y-96676904D01*
X111627976Y-96676904D02*
X111627976Y-96486428D01*
X111627976Y-96486428D02*
X111675595Y-96248333D01*
X111675595Y-96248333D02*
X111723214Y-96105476D01*
X111723214Y-96105476D02*
X111770833Y-96010238D01*
X111770833Y-96010238D02*
X111866071Y-95867380D01*
X111866071Y-95867380D02*
X111913690Y-95819761D01*
X110437499Y-96915000D02*
X110294642Y-96962619D01*
X110294642Y-96962619D02*
X110056547Y-96962619D01*
X110056547Y-96962619D02*
X109961309Y-96915000D01*
X109961309Y-96915000D02*
X109913690Y-96867380D01*
X109913690Y-96867380D02*
X109866071Y-96772142D01*
X109866071Y-96772142D02*
X109866071Y-96676904D01*
X109866071Y-96676904D02*
X109913690Y-96581666D01*
X109913690Y-96581666D02*
X109961309Y-96534047D01*
X109961309Y-96534047D02*
X110056547Y-96486428D01*
X110056547Y-96486428D02*
X110247023Y-96438809D01*
X110247023Y-96438809D02*
X110342261Y-96391190D01*
X110342261Y-96391190D02*
X110389880Y-96343571D01*
X110389880Y-96343571D02*
X110437499Y-96248333D01*
X110437499Y-96248333D02*
X110437499Y-96153095D01*
X110437499Y-96153095D02*
X110389880Y-96057857D01*
X110389880Y-96057857D02*
X110342261Y-96010238D01*
X110342261Y-96010238D02*
X110247023Y-95962619D01*
X110247023Y-95962619D02*
X110008928Y-95962619D01*
X110008928Y-95962619D02*
X109866071Y-96010238D01*
X109437499Y-96962619D02*
X109437499Y-95962619D01*
X109437499Y-96438809D02*
X108866071Y-96438809D01*
X108866071Y-96962619D02*
X108866071Y-95962619D01*
X108389880Y-96962619D02*
X108389880Y-95962619D01*
X107913690Y-96438809D02*
X107580357Y-96438809D01*
X107437500Y-96962619D02*
X107913690Y-96962619D01*
X107913690Y-96962619D02*
X107913690Y-95962619D01*
X107913690Y-95962619D02*
X107437500Y-95962619D01*
X106532738Y-96962619D02*
X107008928Y-96962619D01*
X107008928Y-96962619D02*
X107008928Y-95962619D01*
X106199404Y-96962619D02*
X106199404Y-95962619D01*
X106199404Y-95962619D02*
X105961309Y-95962619D01*
X105961309Y-95962619D02*
X105818452Y-96010238D01*
X105818452Y-96010238D02*
X105723214Y-96105476D01*
X105723214Y-96105476D02*
X105675595Y-96200714D01*
X105675595Y-96200714D02*
X105627976Y-96391190D01*
X105627976Y-96391190D02*
X105627976Y-96534047D01*
X105627976Y-96534047D02*
X105675595Y-96724523D01*
X105675595Y-96724523D02*
X105723214Y-96819761D01*
X105723214Y-96819761D02*
X105818452Y-96915000D01*
X105818452Y-96915000D02*
X105961309Y-96962619D01*
X105961309Y-96962619D02*
X106199404Y-96962619D01*
X116928572Y-90343571D02*
X116976191Y-90295952D01*
X116976191Y-90295952D02*
X117071429Y-90153095D01*
X117071429Y-90153095D02*
X117119048Y-90057857D01*
X117119048Y-90057857D02*
X117166667Y-89915000D01*
X117166667Y-89915000D02*
X117214286Y-89676904D01*
X117214286Y-89676904D02*
X117214286Y-89486428D01*
X117214286Y-89486428D02*
X117166667Y-89248333D01*
X117166667Y-89248333D02*
X117119048Y-89105476D01*
X117119048Y-89105476D02*
X117071429Y-89010238D01*
X117071429Y-89010238D02*
X116976191Y-88867380D01*
X116976191Y-88867380D02*
X116928572Y-88819761D01*
X116214286Y-89438809D02*
X116071429Y-89486428D01*
X116071429Y-89486428D02*
X116023810Y-89534047D01*
X116023810Y-89534047D02*
X115976191Y-89629285D01*
X115976191Y-89629285D02*
X115976191Y-89772142D01*
X115976191Y-89772142D02*
X116023810Y-89867380D01*
X116023810Y-89867380D02*
X116071429Y-89915000D01*
X116071429Y-89915000D02*
X116166667Y-89962619D01*
X116166667Y-89962619D02*
X116547619Y-89962619D01*
X116547619Y-89962619D02*
X116547619Y-88962619D01*
X116547619Y-88962619D02*
X116214286Y-88962619D01*
X116214286Y-88962619D02*
X116119048Y-89010238D01*
X116119048Y-89010238D02*
X116071429Y-89057857D01*
X116071429Y-89057857D02*
X116023810Y-89153095D01*
X116023810Y-89153095D02*
X116023810Y-89248333D01*
X116023810Y-89248333D02*
X116071429Y-89343571D01*
X116071429Y-89343571D02*
X116119048Y-89391190D01*
X116119048Y-89391190D02*
X116214286Y-89438809D01*
X116214286Y-89438809D02*
X116547619Y-89438809D01*
X115071429Y-89962619D02*
X115547619Y-89962619D01*
X115547619Y-89962619D02*
X115547619Y-88962619D01*
X114785714Y-89676904D02*
X114309524Y-89676904D01*
X114880952Y-89962619D02*
X114547619Y-88962619D01*
X114547619Y-88962619D02*
X114214286Y-89962619D01*
X113309524Y-89867380D02*
X113357143Y-89915000D01*
X113357143Y-89915000D02*
X113500000Y-89962619D01*
X113500000Y-89962619D02*
X113595238Y-89962619D01*
X113595238Y-89962619D02*
X113738095Y-89915000D01*
X113738095Y-89915000D02*
X113833333Y-89819761D01*
X113833333Y-89819761D02*
X113880952Y-89724523D01*
X113880952Y-89724523D02*
X113928571Y-89534047D01*
X113928571Y-89534047D02*
X113928571Y-89391190D01*
X113928571Y-89391190D02*
X113880952Y-89200714D01*
X113880952Y-89200714D02*
X113833333Y-89105476D01*
X113833333Y-89105476D02*
X113738095Y-89010238D01*
X113738095Y-89010238D02*
X113595238Y-88962619D01*
X113595238Y-88962619D02*
X113500000Y-88962619D01*
X113500000Y-88962619D02*
X113357143Y-89010238D01*
X113357143Y-89010238D02*
X113309524Y-89057857D01*
X112880952Y-89962619D02*
X112880952Y-88962619D01*
X112309524Y-89962619D02*
X112738095Y-89391190D01*
X112309524Y-88962619D02*
X112880952Y-89534047D01*
X111976190Y-90343571D02*
X111928571Y-90295952D01*
X111928571Y-90295952D02*
X111833333Y-90153095D01*
X111833333Y-90153095D02*
X111785714Y-90057857D01*
X111785714Y-90057857D02*
X111738095Y-89915000D01*
X111738095Y-89915000D02*
X111690476Y-89676904D01*
X111690476Y-89676904D02*
X111690476Y-89486428D01*
X111690476Y-89486428D02*
X111738095Y-89248333D01*
X111738095Y-89248333D02*
X111785714Y-89105476D01*
X111785714Y-89105476D02*
X111833333Y-89010238D01*
X111833333Y-89010238D02*
X111928571Y-88867380D01*
X111928571Y-88867380D02*
X111976190Y-88819761D01*
X110499999Y-89915000D02*
X110357142Y-89962619D01*
X110357142Y-89962619D02*
X110119047Y-89962619D01*
X110119047Y-89962619D02*
X110023809Y-89915000D01*
X110023809Y-89915000D02*
X109976190Y-89867380D01*
X109976190Y-89867380D02*
X109928571Y-89772142D01*
X109928571Y-89772142D02*
X109928571Y-89676904D01*
X109928571Y-89676904D02*
X109976190Y-89581666D01*
X109976190Y-89581666D02*
X110023809Y-89534047D01*
X110023809Y-89534047D02*
X110119047Y-89486428D01*
X110119047Y-89486428D02*
X110309523Y-89438809D01*
X110309523Y-89438809D02*
X110404761Y-89391190D01*
X110404761Y-89391190D02*
X110452380Y-89343571D01*
X110452380Y-89343571D02*
X110499999Y-89248333D01*
X110499999Y-89248333D02*
X110499999Y-89153095D01*
X110499999Y-89153095D02*
X110452380Y-89057857D01*
X110452380Y-89057857D02*
X110404761Y-89010238D01*
X110404761Y-89010238D02*
X110309523Y-88962619D01*
X110309523Y-88962619D02*
X110071428Y-88962619D01*
X110071428Y-88962619D02*
X109928571Y-89010238D01*
X109499999Y-89962619D02*
X109499999Y-88962619D01*
X109499999Y-89438809D02*
X108928571Y-89438809D01*
X108928571Y-89962619D02*
X108928571Y-88962619D01*
X108452380Y-89962619D02*
X108452380Y-88962619D01*
X107976190Y-89438809D02*
X107642857Y-89438809D01*
X107500000Y-89962619D02*
X107976190Y-89962619D01*
X107976190Y-89962619D02*
X107976190Y-88962619D01*
X107976190Y-88962619D02*
X107500000Y-88962619D01*
X106595238Y-89962619D02*
X107071428Y-89962619D01*
X107071428Y-89962619D02*
X107071428Y-88962619D01*
X106261904Y-89962619D02*
X106261904Y-88962619D01*
X106261904Y-88962619D02*
X106023809Y-88962619D01*
X106023809Y-88962619D02*
X105880952Y-89010238D01*
X105880952Y-89010238D02*
X105785714Y-89105476D01*
X105785714Y-89105476D02*
X105738095Y-89200714D01*
X105738095Y-89200714D02*
X105690476Y-89391190D01*
X105690476Y-89391190D02*
X105690476Y-89534047D01*
X105690476Y-89534047D02*
X105738095Y-89724523D01*
X105738095Y-89724523D02*
X105785714Y-89819761D01*
X105785714Y-89819761D02*
X105880952Y-89915000D01*
X105880952Y-89915000D02*
X106023809Y-89962619D01*
X106023809Y-89962619D02*
X106261904Y-89962619D01*
X114309524Y-88343571D02*
X114357143Y-88295952D01*
X114357143Y-88295952D02*
X114452381Y-88153095D01*
X114452381Y-88153095D02*
X114500000Y-88057857D01*
X114500000Y-88057857D02*
X114547619Y-87915000D01*
X114547619Y-87915000D02*
X114595238Y-87676904D01*
X114595238Y-87676904D02*
X114595238Y-87486428D01*
X114595238Y-87486428D02*
X114547619Y-87248333D01*
X114547619Y-87248333D02*
X114500000Y-87105476D01*
X114500000Y-87105476D02*
X114452381Y-87010238D01*
X114452381Y-87010238D02*
X114357143Y-86867380D01*
X114357143Y-86867380D02*
X114309524Y-86819761D01*
X113595238Y-87438809D02*
X113452381Y-87486428D01*
X113452381Y-87486428D02*
X113404762Y-87534047D01*
X113404762Y-87534047D02*
X113357143Y-87629285D01*
X113357143Y-87629285D02*
X113357143Y-87772142D01*
X113357143Y-87772142D02*
X113404762Y-87867380D01*
X113404762Y-87867380D02*
X113452381Y-87915000D01*
X113452381Y-87915000D02*
X113547619Y-87962619D01*
X113547619Y-87962619D02*
X113928571Y-87962619D01*
X113928571Y-87962619D02*
X113928571Y-86962619D01*
X113928571Y-86962619D02*
X113595238Y-86962619D01*
X113595238Y-86962619D02*
X113500000Y-87010238D01*
X113500000Y-87010238D02*
X113452381Y-87057857D01*
X113452381Y-87057857D02*
X113404762Y-87153095D01*
X113404762Y-87153095D02*
X113404762Y-87248333D01*
X113404762Y-87248333D02*
X113452381Y-87343571D01*
X113452381Y-87343571D02*
X113500000Y-87391190D01*
X113500000Y-87391190D02*
X113595238Y-87438809D01*
X113595238Y-87438809D02*
X113928571Y-87438809D01*
X112452381Y-87962619D02*
X112928571Y-87962619D01*
X112928571Y-87962619D02*
X112928571Y-86962619D01*
X112119047Y-86962619D02*
X112119047Y-87772142D01*
X112119047Y-87772142D02*
X112071428Y-87867380D01*
X112071428Y-87867380D02*
X112023809Y-87915000D01*
X112023809Y-87915000D02*
X111928571Y-87962619D01*
X111928571Y-87962619D02*
X111738095Y-87962619D01*
X111738095Y-87962619D02*
X111642857Y-87915000D01*
X111642857Y-87915000D02*
X111595238Y-87867380D01*
X111595238Y-87867380D02*
X111547619Y-87772142D01*
X111547619Y-87772142D02*
X111547619Y-86962619D01*
X111071428Y-87438809D02*
X110738095Y-87438809D01*
X110595238Y-87962619D02*
X111071428Y-87962619D01*
X111071428Y-87962619D02*
X111071428Y-86962619D01*
X111071428Y-86962619D02*
X110595238Y-86962619D01*
X110261904Y-88343571D02*
X110214285Y-88295952D01*
X110214285Y-88295952D02*
X110119047Y-88153095D01*
X110119047Y-88153095D02*
X110071428Y-88057857D01*
X110071428Y-88057857D02*
X110023809Y-87915000D01*
X110023809Y-87915000D02*
X109976190Y-87676904D01*
X109976190Y-87676904D02*
X109976190Y-87486428D01*
X109976190Y-87486428D02*
X110023809Y-87248333D01*
X110023809Y-87248333D02*
X110071428Y-87105476D01*
X110071428Y-87105476D02*
X110119047Y-87010238D01*
X110119047Y-87010238D02*
X110214285Y-86867380D01*
X110214285Y-86867380D02*
X110261904Y-86819761D01*
X108738094Y-87962619D02*
X108738094Y-86962619D01*
X108738094Y-86962619D02*
X108357142Y-86962619D01*
X108357142Y-86962619D02*
X108261904Y-87010238D01*
X108261904Y-87010238D02*
X108214285Y-87057857D01*
X108214285Y-87057857D02*
X108166666Y-87153095D01*
X108166666Y-87153095D02*
X108166666Y-87295952D01*
X108166666Y-87295952D02*
X108214285Y-87391190D01*
X108214285Y-87391190D02*
X108261904Y-87438809D01*
X108261904Y-87438809D02*
X108357142Y-87486428D01*
X108357142Y-87486428D02*
X108738094Y-87486428D01*
X107738094Y-87962619D02*
X107738094Y-86962619D01*
X107261904Y-87962619D02*
X107261904Y-86962619D01*
X107261904Y-86962619D02*
X106690476Y-87962619D01*
X106690476Y-87962619D02*
X106690476Y-86962619D01*
X105785714Y-87295952D02*
X105785714Y-87962619D01*
X106023809Y-86915000D02*
X106261904Y-87629285D01*
X106261904Y-87629285D02*
X105642857Y-87629285D01*
X114880952Y-86343571D02*
X114928571Y-86295952D01*
X114928571Y-86295952D02*
X115023809Y-86153095D01*
X115023809Y-86153095D02*
X115071428Y-86057857D01*
X115071428Y-86057857D02*
X115119047Y-85915000D01*
X115119047Y-85915000D02*
X115166666Y-85676904D01*
X115166666Y-85676904D02*
X115166666Y-85486428D01*
X115166666Y-85486428D02*
X115119047Y-85248333D01*
X115119047Y-85248333D02*
X115071428Y-85105476D01*
X115071428Y-85105476D02*
X115023809Y-85010238D01*
X115023809Y-85010238D02*
X114928571Y-84867380D01*
X114928571Y-84867380D02*
X114880952Y-84819761D01*
X114595237Y-84962619D02*
X114357142Y-85962619D01*
X114357142Y-85962619D02*
X114166666Y-85248333D01*
X114166666Y-85248333D02*
X113976190Y-85962619D01*
X113976190Y-85962619D02*
X113738095Y-84962619D01*
X113357142Y-85962619D02*
X113357142Y-84962619D01*
X113357142Y-85438809D02*
X112785714Y-85438809D01*
X112785714Y-85962619D02*
X112785714Y-84962619D01*
X112309523Y-85962619D02*
X112309523Y-84962619D01*
X111976190Y-84962619D02*
X111404762Y-84962619D01*
X111690476Y-85962619D02*
X111690476Y-84962619D01*
X111071428Y-85438809D02*
X110738095Y-85438809D01*
X110595238Y-85962619D02*
X111071428Y-85962619D01*
X111071428Y-85962619D02*
X111071428Y-84962619D01*
X111071428Y-84962619D02*
X110595238Y-84962619D01*
X110261904Y-86343571D02*
X110214285Y-86295952D01*
X110214285Y-86295952D02*
X110119047Y-86153095D01*
X110119047Y-86153095D02*
X110071428Y-86057857D01*
X110071428Y-86057857D02*
X110023809Y-85915000D01*
X110023809Y-85915000D02*
X109976190Y-85676904D01*
X109976190Y-85676904D02*
X109976190Y-85486428D01*
X109976190Y-85486428D02*
X110023809Y-85248333D01*
X110023809Y-85248333D02*
X110071428Y-85105476D01*
X110071428Y-85105476D02*
X110119047Y-85010238D01*
X110119047Y-85010238D02*
X110214285Y-84867380D01*
X110214285Y-84867380D02*
X110261904Y-84819761D01*
X108738094Y-85962619D02*
X108738094Y-84962619D01*
X108738094Y-84962619D02*
X108357142Y-84962619D01*
X108357142Y-84962619D02*
X108261904Y-85010238D01*
X108261904Y-85010238D02*
X108214285Y-85057857D01*
X108214285Y-85057857D02*
X108166666Y-85153095D01*
X108166666Y-85153095D02*
X108166666Y-85295952D01*
X108166666Y-85295952D02*
X108214285Y-85391190D01*
X108214285Y-85391190D02*
X108261904Y-85438809D01*
X108261904Y-85438809D02*
X108357142Y-85486428D01*
X108357142Y-85486428D02*
X108738094Y-85486428D01*
X107738094Y-85962619D02*
X107738094Y-84962619D01*
X107261904Y-85962619D02*
X107261904Y-84962619D01*
X107261904Y-84962619D02*
X106690476Y-85962619D01*
X106690476Y-85962619D02*
X106690476Y-84962619D01*
X105738095Y-84962619D02*
X106214285Y-84962619D01*
X106214285Y-84962619D02*
X106261904Y-85438809D01*
X106261904Y-85438809D02*
X106214285Y-85391190D01*
X106214285Y-85391190D02*
X106119047Y-85343571D01*
X106119047Y-85343571D02*
X105880952Y-85343571D01*
X105880952Y-85343571D02*
X105785714Y-85391190D01*
X105785714Y-85391190D02*
X105738095Y-85438809D01*
X105738095Y-85438809D02*
X105690476Y-85534047D01*
X105690476Y-85534047D02*
X105690476Y-85772142D01*
X105690476Y-85772142D02*
X105738095Y-85867380D01*
X105738095Y-85867380D02*
X105785714Y-85915000D01*
X105785714Y-85915000D02*
X105880952Y-85962619D01*
X105880952Y-85962619D02*
X106119047Y-85962619D01*
X106119047Y-85962619D02*
X106214285Y-85915000D01*
X106214285Y-85915000D02*
X106261904Y-85867380D01*
X156809523Y-94415000D02*
X156666666Y-94462619D01*
X156666666Y-94462619D02*
X156428571Y-94462619D01*
X156428571Y-94462619D02*
X156333333Y-94415000D01*
X156333333Y-94415000D02*
X156285714Y-94367380D01*
X156285714Y-94367380D02*
X156238095Y-94272142D01*
X156238095Y-94272142D02*
X156238095Y-94176904D01*
X156238095Y-94176904D02*
X156285714Y-94081666D01*
X156285714Y-94081666D02*
X156333333Y-94034047D01*
X156333333Y-94034047D02*
X156428571Y-93986428D01*
X156428571Y-93986428D02*
X156619047Y-93938809D01*
X156619047Y-93938809D02*
X156714285Y-93891190D01*
X156714285Y-93891190D02*
X156761904Y-93843571D01*
X156761904Y-93843571D02*
X156809523Y-93748333D01*
X156809523Y-93748333D02*
X156809523Y-93653095D01*
X156809523Y-93653095D02*
X156761904Y-93557857D01*
X156761904Y-93557857D02*
X156714285Y-93510238D01*
X156714285Y-93510238D02*
X156619047Y-93462619D01*
X156619047Y-93462619D02*
X156380952Y-93462619D01*
X156380952Y-93462619D02*
X156238095Y-93510238D01*
X155809523Y-94462619D02*
X155809523Y-93462619D01*
X155809523Y-93938809D02*
X155238095Y-93938809D01*
X155238095Y-94462619D02*
X155238095Y-93462619D01*
X154761904Y-94462619D02*
X154761904Y-93462619D01*
X154285714Y-93938809D02*
X153952381Y-93938809D01*
X153809524Y-94462619D02*
X154285714Y-94462619D01*
X154285714Y-94462619D02*
X154285714Y-93462619D01*
X154285714Y-93462619D02*
X153809524Y-93462619D01*
X152904762Y-94462619D02*
X153380952Y-94462619D01*
X153380952Y-94462619D02*
X153380952Y-93462619D01*
X152571428Y-94462619D02*
X152571428Y-93462619D01*
X152571428Y-93462619D02*
X152333333Y-93462619D01*
X152333333Y-93462619D02*
X152190476Y-93510238D01*
X152190476Y-93510238D02*
X152095238Y-93605476D01*
X152095238Y-93605476D02*
X152047619Y-93700714D01*
X152047619Y-93700714D02*
X152000000Y-93891190D01*
X152000000Y-93891190D02*
X152000000Y-94034047D01*
X152000000Y-94034047D02*
X152047619Y-94224523D01*
X152047619Y-94224523D02*
X152095238Y-94319761D01*
X152095238Y-94319761D02*
X152190476Y-94415000D01*
X152190476Y-94415000D02*
X152333333Y-94462619D01*
X152333333Y-94462619D02*
X152571428Y-94462619D01*
X150523809Y-94843571D02*
X150571428Y-94795952D01*
X150571428Y-94795952D02*
X150666666Y-94653095D01*
X150666666Y-94653095D02*
X150714285Y-94557857D01*
X150714285Y-94557857D02*
X150761904Y-94415000D01*
X150761904Y-94415000D02*
X150809523Y-94176904D01*
X150809523Y-94176904D02*
X150809523Y-93986428D01*
X150809523Y-93986428D02*
X150761904Y-93748333D01*
X150761904Y-93748333D02*
X150714285Y-93605476D01*
X150714285Y-93605476D02*
X150666666Y-93510238D01*
X150666666Y-93510238D02*
X150571428Y-93367380D01*
X150571428Y-93367380D02*
X150523809Y-93319761D01*
X149809523Y-93938809D02*
X149666666Y-93986428D01*
X149666666Y-93986428D02*
X149619047Y-94034047D01*
X149619047Y-94034047D02*
X149571428Y-94129285D01*
X149571428Y-94129285D02*
X149571428Y-94272142D01*
X149571428Y-94272142D02*
X149619047Y-94367380D01*
X149619047Y-94367380D02*
X149666666Y-94415000D01*
X149666666Y-94415000D02*
X149761904Y-94462619D01*
X149761904Y-94462619D02*
X150142856Y-94462619D01*
X150142856Y-94462619D02*
X150142856Y-93462619D01*
X150142856Y-93462619D02*
X149809523Y-93462619D01*
X149809523Y-93462619D02*
X149714285Y-93510238D01*
X149714285Y-93510238D02*
X149666666Y-93557857D01*
X149666666Y-93557857D02*
X149619047Y-93653095D01*
X149619047Y-93653095D02*
X149619047Y-93748333D01*
X149619047Y-93748333D02*
X149666666Y-93843571D01*
X149666666Y-93843571D02*
X149714285Y-93891190D01*
X149714285Y-93891190D02*
X149809523Y-93938809D01*
X149809523Y-93938809D02*
X150142856Y-93938809D01*
X148666666Y-94462619D02*
X149142856Y-94462619D01*
X149142856Y-94462619D02*
X149142856Y-93462619D01*
X148380951Y-94176904D02*
X147904761Y-94176904D01*
X148476189Y-94462619D02*
X148142856Y-93462619D01*
X148142856Y-93462619D02*
X147809523Y-94462619D01*
X146904761Y-94367380D02*
X146952380Y-94415000D01*
X146952380Y-94415000D02*
X147095237Y-94462619D01*
X147095237Y-94462619D02*
X147190475Y-94462619D01*
X147190475Y-94462619D02*
X147333332Y-94415000D01*
X147333332Y-94415000D02*
X147428570Y-94319761D01*
X147428570Y-94319761D02*
X147476189Y-94224523D01*
X147476189Y-94224523D02*
X147523808Y-94034047D01*
X147523808Y-94034047D02*
X147523808Y-93891190D01*
X147523808Y-93891190D02*
X147476189Y-93700714D01*
X147476189Y-93700714D02*
X147428570Y-93605476D01*
X147428570Y-93605476D02*
X147333332Y-93510238D01*
X147333332Y-93510238D02*
X147190475Y-93462619D01*
X147190475Y-93462619D02*
X147095237Y-93462619D01*
X147095237Y-93462619D02*
X146952380Y-93510238D01*
X146952380Y-93510238D02*
X146904761Y-93557857D01*
X146476189Y-94462619D02*
X146476189Y-93462619D01*
X145904761Y-94462619D02*
X146333332Y-93891190D01*
X145904761Y-93462619D02*
X146476189Y-94034047D01*
X145571427Y-94843571D02*
X145523808Y-94795952D01*
X145523808Y-94795952D02*
X145428570Y-94653095D01*
X145428570Y-94653095D02*
X145380951Y-94557857D01*
X145380951Y-94557857D02*
X145333332Y-94415000D01*
X145333332Y-94415000D02*
X145285713Y-94176904D01*
X145285713Y-94176904D02*
X145285713Y-93986428D01*
X145285713Y-93986428D02*
X145333332Y-93748333D01*
X145333332Y-93748333D02*
X145380951Y-93605476D01*
X145380951Y-93605476D02*
X145428570Y-93510238D01*
X145428570Y-93510238D02*
X145523808Y-93367380D01*
X145523808Y-93367380D02*
X145571427Y-93319761D01*
X156761904Y-92462619D02*
X156761904Y-91462619D01*
X156761904Y-91462619D02*
X156523809Y-91462619D01*
X156523809Y-91462619D02*
X156380952Y-91510238D01*
X156380952Y-91510238D02*
X156285714Y-91605476D01*
X156285714Y-91605476D02*
X156238095Y-91700714D01*
X156238095Y-91700714D02*
X156190476Y-91891190D01*
X156190476Y-91891190D02*
X156190476Y-92034047D01*
X156190476Y-92034047D02*
X156238095Y-92224523D01*
X156238095Y-92224523D02*
X156285714Y-92319761D01*
X156285714Y-92319761D02*
X156380952Y-92415000D01*
X156380952Y-92415000D02*
X156523809Y-92462619D01*
X156523809Y-92462619D02*
X156761904Y-92462619D01*
X155761904Y-92081666D02*
X155000000Y-92081666D01*
X155380952Y-92462619D02*
X155380952Y-91700714D01*
X153476190Y-92843571D02*
X153523809Y-92795952D01*
X153523809Y-92795952D02*
X153619047Y-92653095D01*
X153619047Y-92653095D02*
X153666666Y-92557857D01*
X153666666Y-92557857D02*
X153714285Y-92415000D01*
X153714285Y-92415000D02*
X153761904Y-92176904D01*
X153761904Y-92176904D02*
X153761904Y-91986428D01*
X153761904Y-91986428D02*
X153714285Y-91748333D01*
X153714285Y-91748333D02*
X153666666Y-91605476D01*
X153666666Y-91605476D02*
X153619047Y-91510238D01*
X153619047Y-91510238D02*
X153523809Y-91367380D01*
X153523809Y-91367380D02*
X153476190Y-91319761D01*
X152571428Y-91510238D02*
X152666666Y-91462619D01*
X152666666Y-91462619D02*
X152809523Y-91462619D01*
X152809523Y-91462619D02*
X152952380Y-91510238D01*
X152952380Y-91510238D02*
X153047618Y-91605476D01*
X153047618Y-91605476D02*
X153095237Y-91700714D01*
X153095237Y-91700714D02*
X153142856Y-91891190D01*
X153142856Y-91891190D02*
X153142856Y-92034047D01*
X153142856Y-92034047D02*
X153095237Y-92224523D01*
X153095237Y-92224523D02*
X153047618Y-92319761D01*
X153047618Y-92319761D02*
X152952380Y-92415000D01*
X152952380Y-92415000D02*
X152809523Y-92462619D01*
X152809523Y-92462619D02*
X152714285Y-92462619D01*
X152714285Y-92462619D02*
X152571428Y-92415000D01*
X152571428Y-92415000D02*
X152523809Y-92367380D01*
X152523809Y-92367380D02*
X152523809Y-92034047D01*
X152523809Y-92034047D02*
X152714285Y-92034047D01*
X151523809Y-92462619D02*
X151857142Y-91986428D01*
X152095237Y-92462619D02*
X152095237Y-91462619D01*
X152095237Y-91462619D02*
X151714285Y-91462619D01*
X151714285Y-91462619D02*
X151619047Y-91510238D01*
X151619047Y-91510238D02*
X151571428Y-91557857D01*
X151571428Y-91557857D02*
X151523809Y-91653095D01*
X151523809Y-91653095D02*
X151523809Y-91795952D01*
X151523809Y-91795952D02*
X151571428Y-91891190D01*
X151571428Y-91891190D02*
X151619047Y-91938809D01*
X151619047Y-91938809D02*
X151714285Y-91986428D01*
X151714285Y-91986428D02*
X152095237Y-91986428D01*
X151095237Y-91938809D02*
X150761904Y-91938809D01*
X150619047Y-92462619D02*
X151095237Y-92462619D01*
X151095237Y-92462619D02*
X151095237Y-91462619D01*
X151095237Y-91462619D02*
X150619047Y-91462619D01*
X150190475Y-91938809D02*
X149857142Y-91938809D01*
X149714285Y-92462619D02*
X150190475Y-92462619D01*
X150190475Y-92462619D02*
X150190475Y-91462619D01*
X150190475Y-91462619D02*
X149714285Y-91462619D01*
X149285713Y-92462619D02*
X149285713Y-91462619D01*
X149285713Y-91462619D02*
X148714285Y-92462619D01*
X148714285Y-92462619D02*
X148714285Y-91462619D01*
X148333332Y-92843571D02*
X148285713Y-92795952D01*
X148285713Y-92795952D02*
X148190475Y-92653095D01*
X148190475Y-92653095D02*
X148142856Y-92557857D01*
X148142856Y-92557857D02*
X148095237Y-92415000D01*
X148095237Y-92415000D02*
X148047618Y-92176904D01*
X148047618Y-92176904D02*
X148047618Y-91986428D01*
X148047618Y-91986428D02*
X148095237Y-91748333D01*
X148095237Y-91748333D02*
X148142856Y-91605476D01*
X148142856Y-91605476D02*
X148190475Y-91510238D01*
X148190475Y-91510238D02*
X148285713Y-91367380D01*
X148285713Y-91367380D02*
X148333332Y-91319761D01*
X156761904Y-90462619D02*
X156761904Y-89462619D01*
X156761904Y-89462619D02*
X156523809Y-89462619D01*
X156523809Y-89462619D02*
X156380952Y-89510238D01*
X156380952Y-89510238D02*
X156285714Y-89605476D01*
X156285714Y-89605476D02*
X156238095Y-89700714D01*
X156238095Y-89700714D02*
X156190476Y-89891190D01*
X156190476Y-89891190D02*
X156190476Y-90034047D01*
X156190476Y-90034047D02*
X156238095Y-90224523D01*
X156238095Y-90224523D02*
X156285714Y-90319761D01*
X156285714Y-90319761D02*
X156380952Y-90415000D01*
X156380952Y-90415000D02*
X156523809Y-90462619D01*
X156523809Y-90462619D02*
X156761904Y-90462619D01*
X155761904Y-90081666D02*
X155000000Y-90081666D01*
X153476190Y-90843571D02*
X153523809Y-90795952D01*
X153523809Y-90795952D02*
X153619047Y-90653095D01*
X153619047Y-90653095D02*
X153666666Y-90557857D01*
X153666666Y-90557857D02*
X153714285Y-90415000D01*
X153714285Y-90415000D02*
X153761904Y-90176904D01*
X153761904Y-90176904D02*
X153761904Y-89986428D01*
X153761904Y-89986428D02*
X153714285Y-89748333D01*
X153714285Y-89748333D02*
X153666666Y-89605476D01*
X153666666Y-89605476D02*
X153619047Y-89510238D01*
X153619047Y-89510238D02*
X153523809Y-89367380D01*
X153523809Y-89367380D02*
X153476190Y-89319761D01*
X153190475Y-89462619D02*
X152952380Y-90462619D01*
X152952380Y-90462619D02*
X152761904Y-89748333D01*
X152761904Y-89748333D02*
X152571428Y-90462619D01*
X152571428Y-90462619D02*
X152333333Y-89462619D01*
X151952380Y-90462619D02*
X151952380Y-89462619D01*
X151952380Y-89938809D02*
X151380952Y-89938809D01*
X151380952Y-90462619D02*
X151380952Y-89462619D01*
X150904761Y-90462619D02*
X150904761Y-89462619D01*
X150571428Y-89462619D02*
X150000000Y-89462619D01*
X150285714Y-90462619D02*
X150285714Y-89462619D01*
X149666666Y-89938809D02*
X149333333Y-89938809D01*
X149190476Y-90462619D02*
X149666666Y-90462619D01*
X149666666Y-90462619D02*
X149666666Y-89462619D01*
X149666666Y-89462619D02*
X149190476Y-89462619D01*
X148857142Y-90843571D02*
X148809523Y-90795952D01*
X148809523Y-90795952D02*
X148714285Y-90653095D01*
X148714285Y-90653095D02*
X148666666Y-90557857D01*
X148666666Y-90557857D02*
X148619047Y-90415000D01*
X148619047Y-90415000D02*
X148571428Y-90176904D01*
X148571428Y-90176904D02*
X148571428Y-89986428D01*
X148571428Y-89986428D02*
X148619047Y-89748333D01*
X148619047Y-89748333D02*
X148666666Y-89605476D01*
X148666666Y-89605476D02*
X148714285Y-89510238D01*
X148714285Y-89510238D02*
X148809523Y-89367380D01*
X148809523Y-89367380D02*
X148857142Y-89319761D01*
X113389881Y-93343571D02*
X113437500Y-93295952D01*
X113437500Y-93295952D02*
X113532738Y-93153095D01*
X113532738Y-93153095D02*
X113580357Y-93057857D01*
X113580357Y-93057857D02*
X113627976Y-92915000D01*
X113627976Y-92915000D02*
X113675595Y-92676904D01*
X113675595Y-92676904D02*
X113675595Y-92486428D01*
X113675595Y-92486428D02*
X113627976Y-92248333D01*
X113627976Y-92248333D02*
X113580357Y-92105476D01*
X113580357Y-92105476D02*
X113532738Y-92010238D01*
X113532738Y-92010238D02*
X113437500Y-91867380D01*
X113437500Y-91867380D02*
X113389881Y-91819761D01*
X112437500Y-92962619D02*
X112770833Y-92486428D01*
X113008928Y-92962619D02*
X113008928Y-91962619D01*
X113008928Y-91962619D02*
X112627976Y-91962619D01*
X112627976Y-91962619D02*
X112532738Y-92010238D01*
X112532738Y-92010238D02*
X112485119Y-92057857D01*
X112485119Y-92057857D02*
X112437500Y-92153095D01*
X112437500Y-92153095D02*
X112437500Y-92295952D01*
X112437500Y-92295952D02*
X112485119Y-92391190D01*
X112485119Y-92391190D02*
X112532738Y-92438809D01*
X112532738Y-92438809D02*
X112627976Y-92486428D01*
X112627976Y-92486428D02*
X113008928Y-92486428D01*
X112008928Y-92438809D02*
X111675595Y-92438809D01*
X111532738Y-92962619D02*
X112008928Y-92962619D01*
X112008928Y-92962619D02*
X112008928Y-91962619D01*
X112008928Y-91962619D02*
X111532738Y-91962619D01*
X111104166Y-92962619D02*
X111104166Y-91962619D01*
X111104166Y-91962619D02*
X110866071Y-91962619D01*
X110866071Y-91962619D02*
X110723214Y-92010238D01*
X110723214Y-92010238D02*
X110627976Y-92105476D01*
X110627976Y-92105476D02*
X110580357Y-92200714D01*
X110580357Y-92200714D02*
X110532738Y-92391190D01*
X110532738Y-92391190D02*
X110532738Y-92534047D01*
X110532738Y-92534047D02*
X110580357Y-92724523D01*
X110580357Y-92724523D02*
X110627976Y-92819761D01*
X110627976Y-92819761D02*
X110723214Y-92915000D01*
X110723214Y-92915000D02*
X110866071Y-92962619D01*
X110866071Y-92962619D02*
X111104166Y-92962619D01*
X110199404Y-93343571D02*
X110151785Y-93295952D01*
X110151785Y-93295952D02*
X110056547Y-93153095D01*
X110056547Y-93153095D02*
X110008928Y-93057857D01*
X110008928Y-93057857D02*
X109961309Y-92915000D01*
X109961309Y-92915000D02*
X109913690Y-92676904D01*
X109913690Y-92676904D02*
X109913690Y-92486428D01*
X109913690Y-92486428D02*
X109961309Y-92248333D01*
X109961309Y-92248333D02*
X110008928Y-92105476D01*
X110008928Y-92105476D02*
X110056547Y-92010238D01*
X110056547Y-92010238D02*
X110151785Y-91867380D01*
X110151785Y-91867380D02*
X110199404Y-91819761D01*
X108675594Y-92962619D02*
X108675594Y-91962619D01*
X108675594Y-91962619D02*
X108294642Y-91962619D01*
X108294642Y-91962619D02*
X108199404Y-92010238D01*
X108199404Y-92010238D02*
X108151785Y-92057857D01*
X108151785Y-92057857D02*
X108104166Y-92153095D01*
X108104166Y-92153095D02*
X108104166Y-92295952D01*
X108104166Y-92295952D02*
X108151785Y-92391190D01*
X108151785Y-92391190D02*
X108199404Y-92438809D01*
X108199404Y-92438809D02*
X108294642Y-92486428D01*
X108294642Y-92486428D02*
X108675594Y-92486428D01*
X107675594Y-92962619D02*
X107675594Y-91962619D01*
X107199404Y-92962619D02*
X107199404Y-91962619D01*
X107199404Y-91962619D02*
X106627976Y-92962619D01*
X106627976Y-92962619D02*
X106627976Y-91962619D01*
X105723214Y-92295952D02*
X105723214Y-92962619D01*
X105961309Y-91915000D02*
X106199404Y-92629285D01*
X106199404Y-92629285D02*
X105580357Y-92629285D01*
X115151786Y-95343571D02*
X115199405Y-95295952D01*
X115199405Y-95295952D02*
X115294643Y-95153095D01*
X115294643Y-95153095D02*
X115342262Y-95057857D01*
X115342262Y-95057857D02*
X115389881Y-94915000D01*
X115389881Y-94915000D02*
X115437500Y-94676904D01*
X115437500Y-94676904D02*
X115437500Y-94486428D01*
X115437500Y-94486428D02*
X115389881Y-94248333D01*
X115389881Y-94248333D02*
X115342262Y-94105476D01*
X115342262Y-94105476D02*
X115294643Y-94010238D01*
X115294643Y-94010238D02*
X115199405Y-93867380D01*
X115199405Y-93867380D02*
X115151786Y-93819761D01*
X114437500Y-94438809D02*
X114294643Y-94486428D01*
X114294643Y-94486428D02*
X114247024Y-94534047D01*
X114247024Y-94534047D02*
X114199405Y-94629285D01*
X114199405Y-94629285D02*
X114199405Y-94772142D01*
X114199405Y-94772142D02*
X114247024Y-94867380D01*
X114247024Y-94867380D02*
X114294643Y-94915000D01*
X114294643Y-94915000D02*
X114389881Y-94962619D01*
X114389881Y-94962619D02*
X114770833Y-94962619D01*
X114770833Y-94962619D02*
X114770833Y-93962619D01*
X114770833Y-93962619D02*
X114437500Y-93962619D01*
X114437500Y-93962619D02*
X114342262Y-94010238D01*
X114342262Y-94010238D02*
X114294643Y-94057857D01*
X114294643Y-94057857D02*
X114247024Y-94153095D01*
X114247024Y-94153095D02*
X114247024Y-94248333D01*
X114247024Y-94248333D02*
X114294643Y-94343571D01*
X114294643Y-94343571D02*
X114342262Y-94391190D01*
X114342262Y-94391190D02*
X114437500Y-94438809D01*
X114437500Y-94438809D02*
X114770833Y-94438809D01*
X113294643Y-94962619D02*
X113770833Y-94962619D01*
X113770833Y-94962619D02*
X113770833Y-93962619D01*
X113008928Y-94676904D02*
X112532738Y-94676904D01*
X113104166Y-94962619D02*
X112770833Y-93962619D01*
X112770833Y-93962619D02*
X112437500Y-94962619D01*
X111532738Y-94867380D02*
X111580357Y-94915000D01*
X111580357Y-94915000D02*
X111723214Y-94962619D01*
X111723214Y-94962619D02*
X111818452Y-94962619D01*
X111818452Y-94962619D02*
X111961309Y-94915000D01*
X111961309Y-94915000D02*
X112056547Y-94819761D01*
X112056547Y-94819761D02*
X112104166Y-94724523D01*
X112104166Y-94724523D02*
X112151785Y-94534047D01*
X112151785Y-94534047D02*
X112151785Y-94391190D01*
X112151785Y-94391190D02*
X112104166Y-94200714D01*
X112104166Y-94200714D02*
X112056547Y-94105476D01*
X112056547Y-94105476D02*
X111961309Y-94010238D01*
X111961309Y-94010238D02*
X111818452Y-93962619D01*
X111818452Y-93962619D02*
X111723214Y-93962619D01*
X111723214Y-93962619D02*
X111580357Y-94010238D01*
X111580357Y-94010238D02*
X111532738Y-94057857D01*
X111104166Y-94962619D02*
X111104166Y-93962619D01*
X110532738Y-94962619D02*
X110961309Y-94391190D01*
X110532738Y-93962619D02*
X111104166Y-94534047D01*
X110199404Y-95343571D02*
X110151785Y-95295952D01*
X110151785Y-95295952D02*
X110056547Y-95153095D01*
X110056547Y-95153095D02*
X110008928Y-95057857D01*
X110008928Y-95057857D02*
X109961309Y-94915000D01*
X109961309Y-94915000D02*
X109913690Y-94676904D01*
X109913690Y-94676904D02*
X109913690Y-94486428D01*
X109913690Y-94486428D02*
X109961309Y-94248333D01*
X109961309Y-94248333D02*
X110008928Y-94105476D01*
X110008928Y-94105476D02*
X110056547Y-94010238D01*
X110056547Y-94010238D02*
X110151785Y-93867380D01*
X110151785Y-93867380D02*
X110199404Y-93819761D01*
X108675594Y-94962619D02*
X108675594Y-93962619D01*
X108675594Y-93962619D02*
X108294642Y-93962619D01*
X108294642Y-93962619D02*
X108199404Y-94010238D01*
X108199404Y-94010238D02*
X108151785Y-94057857D01*
X108151785Y-94057857D02*
X108104166Y-94153095D01*
X108104166Y-94153095D02*
X108104166Y-94295952D01*
X108104166Y-94295952D02*
X108151785Y-94391190D01*
X108151785Y-94391190D02*
X108199404Y-94438809D01*
X108199404Y-94438809D02*
X108294642Y-94486428D01*
X108294642Y-94486428D02*
X108675594Y-94486428D01*
X107675594Y-94962619D02*
X107675594Y-93962619D01*
X107199404Y-94962619D02*
X107199404Y-93962619D01*
X107199404Y-93962619D02*
X106627976Y-94962619D01*
X106627976Y-94962619D02*
X106627976Y-93962619D01*
X105675595Y-93962619D02*
X106151785Y-93962619D01*
X106151785Y-93962619D02*
X106199404Y-94438809D01*
X106199404Y-94438809D02*
X106151785Y-94391190D01*
X106151785Y-94391190D02*
X106056547Y-94343571D01*
X106056547Y-94343571D02*
X105818452Y-94343571D01*
X105818452Y-94343571D02*
X105723214Y-94391190D01*
X105723214Y-94391190D02*
X105675595Y-94438809D01*
X105675595Y-94438809D02*
X105627976Y-94534047D01*
X105627976Y-94534047D02*
X105627976Y-94772142D01*
X105627976Y-94772142D02*
X105675595Y-94867380D01*
X105675595Y-94867380D02*
X105723214Y-94915000D01*
X105723214Y-94915000D02*
X105818452Y-94962619D01*
X105818452Y-94962619D02*
X106056547Y-94962619D01*
X106056547Y-94962619D02*
X106151785Y-94915000D01*
X106151785Y-94915000D02*
X106199404Y-94867380D01*
%TO.C,J2*%
G36*
X104387619Y-93892592D02*
G01*
X104349447Y-94007106D01*
X104275333Y-94081218D01*
X104198347Y-94119711D01*
X104024813Y-94163095D01*
X103900424Y-94163095D01*
X103726891Y-94119711D01*
X103649902Y-94081217D01*
X103575790Y-94007105D01*
X103537619Y-93892590D01*
X103537619Y-93741667D01*
X104387619Y-93741667D01*
X104387619Y-93892592D01*
G37*
G36*
X105055357Y-97645832D02*
G01*
X102944643Y-97645832D01*
X102944643Y-96963504D01*
X103385249Y-96963504D01*
X103403545Y-97003568D01*
X103440597Y-97027380D01*
X104453823Y-97027380D01*
X104466687Y-97030440D01*
X104485623Y-97023790D01*
X104504879Y-97018137D01*
X104506257Y-97016546D01*
X104508243Y-97015849D01*
X104520578Y-97000018D01*
X104533721Y-96984851D01*
X104534020Y-96982767D01*
X104535314Y-96981108D01*
X104537133Y-96961117D01*
X104539989Y-96941256D01*
X104539115Y-96939342D01*
X104539306Y-96937245D01*
X104530026Y-96919440D01*
X104521693Y-96901192D01*
X104519922Y-96900054D01*
X104518950Y-96898188D01*
X104501526Y-96888231D01*
X104484641Y-96877380D01*
X104482536Y-96877380D01*
X103745037Y-96455952D01*
X104473401Y-96455952D01*
X104504879Y-96446709D01*
X104533721Y-96413423D01*
X104539989Y-96369828D01*
X104521693Y-96329764D01*
X104484641Y-96305952D01*
X103471416Y-96305952D01*
X103458552Y-96302892D01*
X103439617Y-96309540D01*
X103420359Y-96315195D01*
X103418980Y-96316785D01*
X103416995Y-96317483D01*
X103404659Y-96333313D01*
X103391517Y-96348481D01*
X103391217Y-96350564D01*
X103389924Y-96352224D01*
X103388104Y-96372214D01*
X103385249Y-96392076D01*
X103386122Y-96393989D01*
X103385932Y-96396087D01*
X103395211Y-96413891D01*
X103403545Y-96432140D01*
X103405315Y-96433277D01*
X103406288Y-96435144D01*
X103423711Y-96445100D01*
X103440597Y-96455952D01*
X103442702Y-96455952D01*
X104180201Y-96877380D01*
X103451837Y-96877380D01*
X103420359Y-96886623D01*
X103391517Y-96919909D01*
X103385249Y-96963504D01*
X102944643Y-96963504D01*
X102944643Y-95915886D01*
X103385249Y-95915886D01*
X103403545Y-95955950D01*
X103440597Y-95979762D01*
X104473401Y-95979762D01*
X104504879Y-95970519D01*
X104533721Y-95937233D01*
X104539989Y-95893638D01*
X104521693Y-95853574D01*
X104484641Y-95829762D01*
X103451837Y-95829762D01*
X103420359Y-95839005D01*
X103391517Y-95872291D01*
X103385249Y-95915886D01*
X102944643Y-95915886D01*
X102944643Y-94677791D01*
X103385249Y-94677791D01*
X103403545Y-94717855D01*
X103440597Y-94741667D01*
X104473401Y-94741667D01*
X104504879Y-94732424D01*
X104533721Y-94699138D01*
X104539989Y-94655543D01*
X104521693Y-94615479D01*
X104484641Y-94591667D01*
X103451837Y-94591667D01*
X103420359Y-94600910D01*
X103391517Y-94634196D01*
X103385249Y-94677791D01*
X102944643Y-94677791D01*
X102944643Y-93907587D01*
X103384504Y-93907587D01*
X103391041Y-93927199D01*
X103396862Y-93947022D01*
X103397968Y-93947980D01*
X103437810Y-94067506D01*
X103441633Y-94085080D01*
X103452473Y-94095920D01*
X103461219Y-94108504D01*
X103467764Y-94111211D01*
X103545794Y-94189241D01*
X103552238Y-94200091D01*
X103570739Y-94209341D01*
X103588861Y-94219237D01*
X103590321Y-94219132D01*
X103655224Y-94251584D01*
X103661159Y-94257896D01*
X103674536Y-94261240D01*
X103676816Y-94262380D01*
X103684948Y-94263843D01*
X103861026Y-94307862D01*
X103869168Y-94313095D01*
X103881956Y-94313095D01*
X103883460Y-94313471D01*
X103892706Y-94313095D01*
X104021704Y-94313095D01*
X104030873Y-94316197D01*
X104043281Y-94313095D01*
X104044829Y-94313095D01*
X104053698Y-94310490D01*
X104229753Y-94266476D01*
X104238367Y-94267407D01*
X104250700Y-94261240D01*
X104253173Y-94260622D01*
X104260300Y-94256439D01*
X104344890Y-94214144D01*
X104357222Y-94211462D01*
X104371851Y-94196832D01*
X104386967Y-94182773D01*
X104387329Y-94181354D01*
X104465178Y-94103506D01*
X104479187Y-94092228D01*
X104484034Y-94077686D01*
X104491380Y-94064234D01*
X104490874Y-94057165D01*
X104530797Y-93937398D01*
X104537619Y-93926784D01*
X104537619Y-93906105D01*
X104538365Y-93885465D01*
X104537619Y-93884206D01*
X104537619Y-93672027D01*
X104539989Y-93655543D01*
X104533069Y-93640390D01*
X104528376Y-93624407D01*
X104524063Y-93620670D01*
X104521693Y-93615479D01*
X104507676Y-93606471D01*
X104495090Y-93595565D01*
X104489443Y-93594753D01*
X104484641Y-93591667D01*
X104467979Y-93591667D01*
X104451495Y-93589297D01*
X104446305Y-93591667D01*
X103467979Y-93591667D01*
X103451495Y-93589297D01*
X103436342Y-93596216D01*
X103420359Y-93600910D01*
X103416622Y-93605222D01*
X103411431Y-93607593D01*
X103402423Y-93621609D01*
X103391517Y-93634196D01*
X103390705Y-93639842D01*
X103387619Y-93644645D01*
X103387619Y-93661307D01*
X103385249Y-93677791D01*
X103387619Y-93682981D01*
X103387619Y-93895360D01*
X103384504Y-93907587D01*
X102944643Y-93907587D01*
X102944643Y-93201601D01*
X103385249Y-93201601D01*
X103403545Y-93241665D01*
X103440597Y-93265477D01*
X104473401Y-93265477D01*
X104504879Y-93256234D01*
X104533721Y-93222948D01*
X104539989Y-93179353D01*
X104521693Y-93139289D01*
X104484641Y-93115477D01*
X103451837Y-93115477D01*
X103420359Y-93124720D01*
X103391517Y-93158006D01*
X103385249Y-93201601D01*
X102944643Y-93201601D01*
X102944643Y-92714929D01*
X103384456Y-92714929D01*
X103386015Y-92720081D01*
X103385249Y-92725410D01*
X103392298Y-92740846D01*
X103397212Y-92757085D01*
X103401308Y-92760575D01*
X103403545Y-92765474D01*
X103417822Y-92774649D01*
X103430734Y-92785653D01*
X103436067Y-92786375D01*
X103440597Y-92789286D01*
X103457563Y-92789286D01*
X103474379Y-92791563D01*
X103479258Y-92789286D01*
X104473401Y-92789286D01*
X104504879Y-92780043D01*
X104533721Y-92746757D01*
X104539989Y-92703162D01*
X104521693Y-92663098D01*
X104484641Y-92639286D01*
X103800686Y-92639286D01*
X104208071Y-92449172D01*
X104227604Y-92440446D01*
X104234102Y-92430515D01*
X104243007Y-92422670D01*
X104245911Y-92412467D01*
X104251720Y-92403591D01*
X104251817Y-92391722D01*
X104255067Y-92380310D01*
X104251995Y-92370159D01*
X104252083Y-92359549D01*
X104245746Y-92349509D01*
X104242311Y-92338154D01*
X104234240Y-92331276D01*
X104228577Y-92322302D01*
X104217819Y-92317281D01*
X104208789Y-92309586D01*
X104198278Y-92308162D01*
X103800686Y-92122620D01*
X104473401Y-92122620D01*
X104504879Y-92113377D01*
X104533721Y-92080091D01*
X104539989Y-92036496D01*
X104521693Y-91996432D01*
X104484641Y-91972620D01*
X103468289Y-91972620D01*
X103452131Y-91970161D01*
X103436638Y-91977082D01*
X103420359Y-91981863D01*
X103416834Y-91985931D01*
X103411919Y-91988127D01*
X103402627Y-92002326D01*
X103391517Y-92015149D01*
X103390750Y-92020476D01*
X103387803Y-92024982D01*
X103387663Y-92041953D01*
X103385249Y-92058744D01*
X103387484Y-92063638D01*
X103387440Y-92069024D01*
X103396497Y-92083375D01*
X103403545Y-92098808D01*
X103408073Y-92101718D01*
X103410947Y-92106271D01*
X103426322Y-92113446D01*
X103440597Y-92122620D01*
X103445981Y-92122620D01*
X103999551Y-92380952D01*
X103436042Y-92643923D01*
X103420359Y-92648529D01*
X103409248Y-92661351D01*
X103396516Y-92672569D01*
X103395041Y-92677747D01*
X103391517Y-92681815D01*
X103389102Y-92698608D01*
X103384456Y-92714929D01*
X102944643Y-92714929D01*
X102944643Y-91354167D01*
X105055357Y-91354167D01*
X105055357Y-97645832D01*
G37*
%TO.C,J3*%
G36*
X104281418Y-87305817D02*
G01*
X104353360Y-87377759D01*
X104387619Y-87446275D01*
X104387619Y-87601341D01*
X104353360Y-87669859D01*
X104281418Y-87741800D01*
X104120051Y-87782142D01*
X103805186Y-87782142D01*
X103643819Y-87741800D01*
X103571876Y-87669857D01*
X103537619Y-87601342D01*
X103537619Y-87446277D01*
X103571878Y-87377759D01*
X103643819Y-87305817D01*
X103805186Y-87265476D01*
X104120050Y-87265476D01*
X104281418Y-87305817D01*
G37*
G36*
X104387619Y-85225925D02*
G01*
X104349447Y-85340439D01*
X104275333Y-85414551D01*
X104198347Y-85453044D01*
X104024813Y-85496428D01*
X103900424Y-85496428D01*
X103726891Y-85453044D01*
X103649902Y-85414550D01*
X103575790Y-85340438D01*
X103537619Y-85225923D01*
X103537619Y-85075000D01*
X104387619Y-85075000D01*
X104387619Y-85225925D01*
G37*
G36*
X105055357Y-90312499D02*
G01*
X102944643Y-90312499D01*
X102944643Y-89487314D01*
X103385249Y-89487314D01*
X103387619Y-89492504D01*
X103387619Y-89772686D01*
X103396862Y-89804164D01*
X103430148Y-89833006D01*
X103473743Y-89839274D01*
X103513807Y-89820978D01*
X103537619Y-89783926D01*
X103537619Y-89551190D01*
X104473401Y-89551190D01*
X104504879Y-89541947D01*
X104533721Y-89508661D01*
X104539989Y-89465066D01*
X104521693Y-89425002D01*
X104484641Y-89401190D01*
X103537619Y-89401190D01*
X103537619Y-89179694D01*
X103528376Y-89148216D01*
X103495090Y-89119374D01*
X103451495Y-89113106D01*
X103411431Y-89131402D01*
X103387619Y-89168454D01*
X103387619Y-89470830D01*
X103385249Y-89487314D01*
X102944643Y-89487314D01*
X102944643Y-88868266D01*
X103385249Y-88868266D01*
X103403545Y-88908330D01*
X103440597Y-88932142D01*
X104268102Y-88932142D01*
X104285986Y-88934073D01*
X104299699Y-88927216D01*
X104314402Y-88922899D01*
X104319040Y-88917545D01*
X104392509Y-88880810D01*
X104404840Y-88878128D01*
X104419460Y-88863508D01*
X104434586Y-88849439D01*
X104434948Y-88848020D01*
X104461383Y-88821586D01*
X104472234Y-88815142D01*
X104481489Y-88796630D01*
X104491379Y-88778520D01*
X104491274Y-88777060D01*
X104527897Y-88703814D01*
X104537619Y-88688688D01*
X104537619Y-88673358D01*
X104540333Y-88658275D01*
X104537619Y-88651731D01*
X104537619Y-88480221D01*
X104539549Y-88462346D01*
X104532694Y-88448636D01*
X104528376Y-88433930D01*
X104523021Y-88429290D01*
X104486286Y-88355820D01*
X104483604Y-88343490D01*
X104468988Y-88328874D01*
X104454916Y-88313746D01*
X104453496Y-88313383D01*
X104427061Y-88286948D01*
X104420618Y-88276099D01*
X104402119Y-88266849D01*
X104383994Y-88256953D01*
X104382534Y-88257057D01*
X104309293Y-88220437D01*
X104294164Y-88210714D01*
X104278834Y-88210714D01*
X104263751Y-88208000D01*
X104257207Y-88210714D01*
X103451837Y-88210714D01*
X103420359Y-88219957D01*
X103391517Y-88253243D01*
X103385249Y-88296838D01*
X103403545Y-88336902D01*
X103440597Y-88360714D01*
X104254436Y-88360714D01*
X104322954Y-88394973D01*
X104353360Y-88425377D01*
X104387619Y-88493894D01*
X104387619Y-88648960D01*
X104353360Y-88717477D01*
X104322951Y-88747885D01*
X104254437Y-88782142D01*
X103451837Y-88782142D01*
X103420359Y-88791385D01*
X103391517Y-88824671D01*
X103385249Y-88868266D01*
X102944643Y-88868266D01*
X102944643Y-87436962D01*
X103384905Y-87436962D01*
X103387619Y-87443506D01*
X103387619Y-87615007D01*
X103385688Y-87632891D01*
X103392544Y-87646604D01*
X103396862Y-87661307D01*
X103402215Y-87665945D01*
X103438950Y-87739414D01*
X103441633Y-87751746D01*
X103456260Y-87766373D01*
X103470322Y-87781491D01*
X103471740Y-87781853D01*
X103551622Y-87861735D01*
X103565921Y-87876943D01*
X103577967Y-87879954D01*
X103588861Y-87885903D01*
X103598890Y-87885185D01*
X103765788Y-87926909D01*
X103773930Y-87932142D01*
X103786718Y-87932142D01*
X103788222Y-87932518D01*
X103797468Y-87932142D01*
X104116942Y-87932142D01*
X104126111Y-87935244D01*
X104138519Y-87932142D01*
X104140067Y-87932142D01*
X104148936Y-87929537D01*
X104336842Y-87882561D01*
X104357222Y-87878128D01*
X104366002Y-87869347D01*
X104376707Y-87863067D01*
X104381251Y-87854098D01*
X104461383Y-87773967D01*
X104472234Y-87767523D01*
X104481484Y-87749021D01*
X104491380Y-87730900D01*
X104491275Y-87729439D01*
X104527897Y-87656195D01*
X104537619Y-87641069D01*
X104537619Y-87625739D01*
X104540333Y-87610656D01*
X104537619Y-87604112D01*
X104537619Y-87432602D01*
X104539549Y-87414727D01*
X104532694Y-87401017D01*
X104528376Y-87386311D01*
X104523021Y-87381671D01*
X104486287Y-87308202D01*
X104483605Y-87295872D01*
X104468987Y-87281254D01*
X104454916Y-87266127D01*
X104453496Y-87265764D01*
X104373604Y-87185872D01*
X104359315Y-87170675D01*
X104347269Y-87167663D01*
X104336375Y-87161715D01*
X104326345Y-87162432D01*
X104159448Y-87120708D01*
X104151307Y-87115476D01*
X104138519Y-87115476D01*
X104137015Y-87115100D01*
X104127769Y-87115476D01*
X103808295Y-87115476D01*
X103799126Y-87112374D01*
X103786718Y-87115476D01*
X103785170Y-87115476D01*
X103776300Y-87118080D01*
X103588397Y-87165056D01*
X103568015Y-87169490D01*
X103559235Y-87178269D01*
X103548529Y-87184551D01*
X103543983Y-87193521D01*
X103463853Y-87273651D01*
X103453004Y-87280095D01*
X103443753Y-87298595D01*
X103433858Y-87316718D01*
X103433962Y-87318178D01*
X103397342Y-87391419D01*
X103387619Y-87406549D01*
X103387619Y-87421879D01*
X103384905Y-87436962D01*
X102944643Y-87436962D01*
X102944643Y-86011124D01*
X103385249Y-86011124D01*
X103403545Y-86051188D01*
X103440597Y-86075000D01*
X104473401Y-86075000D01*
X104504879Y-86065757D01*
X104533721Y-86032471D01*
X104539989Y-85988876D01*
X104521693Y-85948812D01*
X104484641Y-85925000D01*
X103451837Y-85925000D01*
X103420359Y-85934243D01*
X103391517Y-85967529D01*
X103385249Y-86011124D01*
X102944643Y-86011124D01*
X102944643Y-85240920D01*
X103384504Y-85240920D01*
X103391041Y-85260532D01*
X103396862Y-85280355D01*
X103397968Y-85281313D01*
X103437810Y-85400839D01*
X103441633Y-85418413D01*
X103452473Y-85429253D01*
X103461219Y-85441837D01*
X103467764Y-85444544D01*
X103545794Y-85522574D01*
X103552238Y-85533424D01*
X103570739Y-85542674D01*
X103588861Y-85552570D01*
X103590321Y-85552465D01*
X103655224Y-85584917D01*
X103661159Y-85591229D01*
X103674536Y-85594573D01*
X103676816Y-85595713D01*
X103684948Y-85597176D01*
X103861026Y-85641195D01*
X103869168Y-85646428D01*
X103881956Y-85646428D01*
X103883460Y-85646804D01*
X103892706Y-85646428D01*
X104021704Y-85646428D01*
X104030873Y-85649530D01*
X104043281Y-85646428D01*
X104044829Y-85646428D01*
X104053698Y-85643823D01*
X104229753Y-85599809D01*
X104238367Y-85600740D01*
X104250700Y-85594573D01*
X104253173Y-85593955D01*
X104260300Y-85589772D01*
X104344890Y-85547477D01*
X104357222Y-85544795D01*
X104371851Y-85530165D01*
X104386967Y-85516106D01*
X104387329Y-85514687D01*
X104465178Y-85436839D01*
X104479187Y-85425561D01*
X104484034Y-85411019D01*
X104491380Y-85397567D01*
X104490874Y-85390498D01*
X104530797Y-85270731D01*
X104537619Y-85260117D01*
X104537619Y-85239438D01*
X104538365Y-85218798D01*
X104537619Y-85217539D01*
X104537619Y-85005360D01*
X104539989Y-84988876D01*
X104533069Y-84973723D01*
X104528376Y-84957740D01*
X104524063Y-84954003D01*
X104521693Y-84948812D01*
X104507676Y-84939804D01*
X104495090Y-84928898D01*
X104489443Y-84928086D01*
X104484641Y-84925000D01*
X104467979Y-84925000D01*
X104451495Y-84922630D01*
X104446305Y-84925000D01*
X103467979Y-84925000D01*
X103451495Y-84922630D01*
X103436342Y-84929549D01*
X103420359Y-84934243D01*
X103416622Y-84938555D01*
X103411431Y-84940926D01*
X103402423Y-84954942D01*
X103391517Y-84967529D01*
X103390705Y-84973175D01*
X103387619Y-84977978D01*
X103387619Y-84994640D01*
X103385249Y-85011124D01*
X103387619Y-85016314D01*
X103387619Y-85228693D01*
X103384504Y-85240920D01*
X102944643Y-85240920D01*
X102944643Y-84534934D01*
X103385249Y-84534934D01*
X103403545Y-84574998D01*
X103440597Y-84598810D01*
X104473401Y-84598810D01*
X104504879Y-84589567D01*
X104533721Y-84556281D01*
X104539989Y-84512686D01*
X104521693Y-84472622D01*
X104484641Y-84448810D01*
X103451837Y-84448810D01*
X103420359Y-84458053D01*
X103391517Y-84491339D01*
X103385249Y-84534934D01*
X102944643Y-84534934D01*
X102944643Y-84048262D01*
X103384456Y-84048262D01*
X103386015Y-84053414D01*
X103385249Y-84058743D01*
X103392298Y-84074179D01*
X103397212Y-84090418D01*
X103401308Y-84093908D01*
X103403545Y-84098807D01*
X103417822Y-84107982D01*
X103430734Y-84118986D01*
X103436067Y-84119708D01*
X103440597Y-84122619D01*
X103457563Y-84122619D01*
X103474379Y-84124896D01*
X103479258Y-84122619D01*
X104473401Y-84122619D01*
X104504879Y-84113376D01*
X104533721Y-84080090D01*
X104539989Y-84036495D01*
X104521693Y-83996431D01*
X104484641Y-83972619D01*
X103800686Y-83972619D01*
X104208071Y-83782505D01*
X104227604Y-83773779D01*
X104234102Y-83763848D01*
X104243007Y-83756003D01*
X104245911Y-83745800D01*
X104251720Y-83736924D01*
X104251817Y-83725055D01*
X104255067Y-83713643D01*
X104251995Y-83703492D01*
X104252083Y-83692882D01*
X104245746Y-83682842D01*
X104242311Y-83671487D01*
X104234240Y-83664609D01*
X104228577Y-83655635D01*
X104217819Y-83650614D01*
X104208789Y-83642919D01*
X104198278Y-83641495D01*
X103800686Y-83455953D01*
X104473401Y-83455953D01*
X104504879Y-83446710D01*
X104533721Y-83413424D01*
X104539989Y-83369829D01*
X104521693Y-83329765D01*
X104484641Y-83305953D01*
X103468289Y-83305953D01*
X103452131Y-83303494D01*
X103436638Y-83310415D01*
X103420359Y-83315196D01*
X103416834Y-83319264D01*
X103411919Y-83321460D01*
X103402627Y-83335659D01*
X103391517Y-83348482D01*
X103390750Y-83353809D01*
X103387803Y-83358315D01*
X103387663Y-83375286D01*
X103385249Y-83392077D01*
X103387484Y-83396971D01*
X103387440Y-83402357D01*
X103396497Y-83416708D01*
X103403545Y-83432141D01*
X103408073Y-83435051D01*
X103410947Y-83439604D01*
X103426322Y-83446779D01*
X103440597Y-83455953D01*
X103445981Y-83455953D01*
X103999551Y-83714285D01*
X103436042Y-83977256D01*
X103420359Y-83981862D01*
X103409248Y-83994684D01*
X103396516Y-84005902D01*
X103395041Y-84011080D01*
X103391517Y-84015148D01*
X103389102Y-84031941D01*
X103384456Y-84048262D01*
X102944643Y-84048262D01*
X102944643Y-82687500D01*
X105055357Y-82687500D01*
X105055357Y-90312499D01*
G37*
%TD*%
M02*
