M48
; DRILL file {KiCad 7.0.1} date Thu Mar 30 22:24:38 2023
; FORMAT={-:-/ absolute / inch / decimal}
; #@! TF.CreationDate,2023-03-30T22:24:38-04:00
; #@! TF.GenerationSoftware,Kicad,Pcbnew,7.0.1
; #@! TF.FileFunction,Plated,1,2,PTH
FMAT,2
INCH
; #@! TA.AperFunction,Plated,PTH,ViaDrill
T1C0.0157
; #@! TA.AperFunction,Plated,PTH,ComponentDrill
T2C0.0315
; #@! TA.AperFunction,Plated,PTH,ComponentDrill
T3C0.0354
; #@! TA.AperFunction,Plated,PTH,ComponentDrill
T4C0.0394
%
G90
G05
T1
X3.9665Y-2.9823
X3.9665Y-3.8681
X3.9665Y-3.9862
X3.9665Y-4.1043
X4.0256Y-3.189
X4.065Y-3.5433
X4.0846Y-3.9665
X4.1043Y-4.1043
X4.1339Y-3.2579
X4.2126Y-3.189
X4.2224Y-3.5138
X4.2323Y-3.8287
X4.252Y-4.1043
X4.2618Y-2.9724
X4.3799Y-3.2579
X4.3799Y-3.5728
X4.3996Y-3.1594
X4.4094Y-3.4055
X4.4094Y-3.4941
X4.4488Y-3.3169
X4.5079Y-3.563
X4.5177Y-3.9272
X4.5374Y-3.4055
X4.5866Y-3.6417
X4.5866Y-3.75
X4.5965Y-3.1594
X4.5965Y-3.3366
X4.5965Y-3.4941
X4.5965Y-3.8681
X4.6457Y-3.0709
X4.6457Y-4.0157
X4.6949Y-3.1594
X4.6949Y-3.2382
X4.7047Y-3.4646
X4.7047Y-3.6122
X4.7047Y-3.8681
X4.7146Y-3.061
X4.7146Y-4.0256
X4.7441Y-3.7402
X4.8031Y-3.3071
X4.8031Y-3.5531
X4.8031Y-4.1043
X4.8228Y-3.3858
X4.8228Y-3.9272
X4.872Y-3.2087
X4.9016Y-3.7894
X4.9213Y-4.0256
X4.9409Y-3.2972
X4.9606Y-3.061
X4.9803Y-3.4843
X5.0Y-3.6614
X5.0098Y-3.7205
X5.0098Y-3.7894
X5.0197Y-3.189
X5.0591Y-4.1043
X5.0689Y-3.5827
X5.128Y-3.6417
X5.1378Y-3.7795
X5.1476Y-3.9173
X5.1476Y-4.0256
X5.1772Y-3.1594
X5.187Y-3.5099
X5.1969Y-3.3858
X5.1969Y-3.622
X5.1969Y-3.9764
X5.2067Y-3.061
X5.2461Y-3.5827
X5.2461Y-3.7795
X5.2461Y-3.8878
X5.2756Y-3.4547
X5.2854Y-4.0945
X5.2915Y-3.5048
X5.2953Y-2.9724
X5.3346Y-3.3169
X5.3346Y-3.7795
X5.3445Y-3.6417
X5.3543Y-3.1988
X5.374Y-3.9961
X5.4035Y-3.1004
X5.4232Y-3.7008
X5.4331Y-3.3661
X5.4528Y-4.065
X5.5118Y-3.2677
X5.5118Y-3.3661
X5.5315Y-3.002
X5.5709Y-3.1988
X5.5709Y-3.3858
X5.5709Y-3.6417
X5.5807Y-3.5039
X5.5906Y-4.0256
X5.6693Y-3.4547
X5.7087Y-3.2283
X5.7283Y-3.3465
X5.7283Y-3.7795
X5.7382Y-3.878
X5.7677Y-3.002
X5.7874Y-3.3957
X5.7874Y-3.6909
X5.8366Y-3.1398
X5.935Y-3.7205
X5.9646Y-3.1693
X5.9646Y-3.3465
X5.9744Y-3.8386
X6.0039Y-4.0453
X6.0138Y-3.002
X6.0138Y-3.4941
X6.0236Y-3.6713
X6.0728Y-3.7598
X6.1417Y-3.4055
X6.1811Y-3.6417
X6.1811Y-3.7402
X6.2598Y-3.0217
X6.2697Y-4.1043
X6.2795Y-3.9764
T2
X3.9961Y-3.2874
X3.9961Y-3.3661
X3.9961Y-3.4449
X3.9961Y-3.5236
X3.9961Y-3.6417
X3.9961Y-3.7205
X3.9961Y-3.7992
X5.6496Y-3.0709
X5.6496Y-3.1496
X6.2402Y-3.3858
X6.2402Y-3.4646
X6.2402Y-3.5433
X6.2402Y-3.622
X6.2402Y-3.7008
T3
X4.3307Y-3.0118
X4.3307Y-3.1118
X4.3307Y-3.9748
X4.3307Y-4.0748
X6.0915Y-3.0709
X6.1915Y-3.0709
T4
X5.7963Y-4.0157
X5.8963Y-4.0157
T0
M30
