%TF.GenerationSoftware,KiCad,Pcbnew,7.0.1*%
%TF.CreationDate,2023-03-31T12:03:08-04:00*%
%TF.ProjectId,miditerm,6d696469-7465-4726-9d2e-6b696361645f,0.1*%
%TF.SameCoordinates,Original*%
%TF.FileFunction,Soldermask,Top*%
%TF.FilePolarity,Negative*%
%FSLAX46Y46*%
G04 Gerber Fmt 4.6, Leading zero omitted, Abs format (unit mm)*
G04 Created by KiCad (PCBNEW 7.0.1) date 2023-03-31 12:03:08*
%MOMM*%
%LPD*%
G01*
G04 APERTURE LIST*
G04 Aperture macros list*
%AMRoundRect*
0 Rectangle with rounded corners*
0 $1 Rounding radius*
0 $2 $3 $4 $5 $6 $7 $8 $9 X,Y pos of 4 corners*
0 Add a 4 corners polygon primitive as box body*
4,1,4,$2,$3,$4,$5,$6,$7,$8,$9,$2,$3,0*
0 Add four circle primitives for the rounded corners*
1,1,$1+$1,$2,$3*
1,1,$1+$1,$4,$5*
1,1,$1+$1,$6,$7*
1,1,$1+$1,$8,$9*
0 Add four rect primitives between the rounded corners*
20,1,$1+$1,$2,$3,$4,$5,0*
20,1,$1+$1,$4,$5,$6,$7,0*
20,1,$1+$1,$6,$7,$8,$9,0*
20,1,$1+$1,$8,$9,$2,$3,0*%
%AMFreePoly0*
4,1,19,0.550000,-0.750000,0.000000,-0.750000,0.000000,-0.744911,-0.071157,-0.744911,-0.207708,-0.704816,-0.327430,-0.627875,-0.420627,-0.520320,-0.479746,-0.390866,-0.500000,-0.250000,-0.500000,0.250000,-0.479746,0.390866,-0.420627,0.520320,-0.327430,0.627875,-0.207708,0.704816,-0.071157,0.744911,0.000000,0.744911,0.000000,0.750000,0.550000,0.750000,0.550000,-0.750000,0.550000,-0.750000,
$1*%
%AMFreePoly1*
4,1,19,0.000000,0.744911,0.071157,0.744911,0.207708,0.704816,0.327430,0.627875,0.420627,0.520320,0.479746,0.390866,0.500000,0.250000,0.500000,-0.250000,0.479746,-0.390866,0.420627,-0.520320,0.327430,-0.627875,0.207708,-0.704816,0.071157,-0.744911,0.000000,-0.744911,0.000000,-0.750000,-0.550000,-0.750000,-0.550000,0.750000,0.000000,0.750000,0.000000,0.744911,0.000000,0.744911,
$1*%
G04 Aperture macros list end*
%ADD10C,1.500000*%
%ADD11O,3.300000X2.200000*%
%ADD12RoundRect,0.250000X-0.475000X0.250000X-0.475000X-0.250000X0.475000X-0.250000X0.475000X0.250000X0*%
%ADD13RoundRect,0.250000X0.262500X0.450000X-0.262500X0.450000X-0.262500X-0.450000X0.262500X-0.450000X0*%
%ADD14R,2.000000X1.780000*%
%ADD15RoundRect,0.250000X0.250000X0.475000X-0.250000X0.475000X-0.250000X-0.475000X0.250000X-0.475000X0*%
%ADD16R,1.350000X1.350000*%
%ADD17O,1.350000X1.350000*%
%ADD18RoundRect,0.218750X-0.218750X-0.381250X0.218750X-0.381250X0.218750X0.381250X-0.218750X0.381250X0*%
%ADD19RoundRect,0.225000X-0.375000X0.225000X-0.375000X-0.225000X0.375000X-0.225000X0.375000X0.225000X0*%
%ADD20RoundRect,0.250000X-0.450000X0.262500X-0.450000X-0.262500X0.450000X-0.262500X0.450000X0.262500X0*%
%ADD21R,1.600000X1.600000*%
%ADD22C,1.600000*%
%ADD23R,1.800000X1.800000*%
%ADD24C,1.800000*%
%ADD25RoundRect,0.150000X0.512500X0.150000X-0.512500X0.150000X-0.512500X-0.150000X0.512500X-0.150000X0*%
%ADD26RoundRect,0.250000X0.450000X-0.262500X0.450000X0.262500X-0.450000X0.262500X-0.450000X-0.262500X0*%
%ADD27R,1.000000X1.500000*%
%ADD28RoundRect,0.218750X0.218750X0.381250X-0.218750X0.381250X-0.218750X-0.381250X0.218750X-0.381250X0*%
%ADD29RoundRect,0.250000X-0.262500X-0.450000X0.262500X-0.450000X0.262500X0.450000X-0.262500X0.450000X0*%
%ADD30C,2.200000*%
%ADD31RoundRect,0.250000X0.475000X-0.250000X0.475000X0.250000X-0.475000X0.250000X-0.475000X-0.250000X0*%
%ADD32R,1.200000X0.400000*%
%ADD33FreePoly0,270.000000*%
%ADD34R,1.500000X1.000000*%
%ADD35FreePoly1,270.000000*%
%ADD36FreePoly0,90.000000*%
%ADD37FreePoly1,90.000000*%
%ADD38R,1.700000X1.700000*%
%ADD39O,1.700000X1.700000*%
G04 APERTURE END LIST*
D10*
%TO.C,TP3*%
X134500000Y-97500000D03*
%TD*%
D11*
%TO.C,H2*%
X104000000Y-78000000D03*
%TD*%
D12*
%TO.C,C5*%
X156500000Y-81600000D03*
X156500000Y-83500000D03*
%TD*%
D10*
%TO.C,TP5*%
X128000000Y-87500000D03*
%TD*%
D13*
%TO.C,R8*%
X130412500Y-97500000D03*
X128587500Y-97500000D03*
%TD*%
D10*
%TO.C,TP1*%
X154500000Y-88000000D03*
%TD*%
D14*
%TO.C,U3*%
X113000000Y-92500000D03*
X113000000Y-95040000D03*
X113000000Y-97580000D03*
X122530000Y-97580000D03*
X122530000Y-95040000D03*
X122530000Y-92500000D03*
%TD*%
D15*
%TO.C,C11*%
X105950000Y-96500000D03*
X104050000Y-96500000D03*
%TD*%
D16*
%TO.C,J1*%
X158500000Y-86000000D03*
D17*
X158500000Y-88000000D03*
X158500000Y-90000000D03*
X158500000Y-92000000D03*
X158500000Y-94000000D03*
%TD*%
D12*
%TO.C,C12*%
X125265000Y-92800000D03*
X125265000Y-94700000D03*
%TD*%
D18*
%TO.C,FB3*%
X103937500Y-94500000D03*
X106062500Y-94500000D03*
%TD*%
D16*
%TO.C,J2*%
X101500000Y-92500000D03*
D17*
X101500000Y-94500000D03*
X101500000Y-96500000D03*
%TD*%
D19*
%TO.C,D3*%
X110000000Y-94500000D03*
X110000000Y-97800000D03*
%TD*%
D20*
%TO.C,R1*%
X156500000Y-96500000D03*
X156500000Y-98325000D03*
%TD*%
D13*
%TO.C,R2*%
X146862500Y-91950000D03*
X145037500Y-91950000D03*
%TD*%
%TO.C,R5*%
X118412500Y-76500000D03*
X116587500Y-76500000D03*
%TD*%
D21*
%TO.C,C9*%
X143500000Y-80000000D03*
D22*
X143500000Y-78000000D03*
%TD*%
D23*
%TO.C,D4*%
X154725000Y-78000000D03*
D24*
X157265000Y-78000000D03*
%TD*%
D12*
%TO.C,C6*%
X154500000Y-81600000D03*
X154500000Y-83500000D03*
%TD*%
D25*
%TO.C,U1*%
X155500000Y-91950000D03*
X155500000Y-91000000D03*
X155500000Y-90050000D03*
X153225000Y-90050000D03*
X153225000Y-91000000D03*
X153225000Y-91950000D03*
%TD*%
D26*
%TO.C,R11*%
X158500000Y-83500000D03*
X158500000Y-81675000D03*
%TD*%
D13*
%TO.C,R6*%
X118412500Y-103500000D03*
X116587500Y-103500000D03*
%TD*%
D12*
%TO.C,C3*%
X148862500Y-88150000D03*
X148862500Y-90050000D03*
%TD*%
D27*
%TO.C,JP1*%
X140750000Y-97500000D03*
X142050000Y-97500000D03*
%TD*%
D12*
%TO.C,C10*%
X140000000Y-87050000D03*
X140000000Y-88950000D03*
%TD*%
D28*
%TO.C,FB5*%
X106062500Y-85500000D03*
X103937500Y-85500000D03*
%TD*%
%TO.C,FB1*%
X152562500Y-83500000D03*
X150437500Y-83500000D03*
%TD*%
D29*
%TO.C,R7*%
X108587500Y-92500000D03*
X110412500Y-92500000D03*
%TD*%
D12*
%TO.C,C2*%
X151112500Y-91000000D03*
X151112500Y-92900000D03*
%TD*%
D28*
%TO.C,FB4*%
X106062500Y-87500000D03*
X103937500Y-87500000D03*
%TD*%
D16*
%TO.C,J3*%
X101500000Y-89500000D03*
D17*
X101500000Y-87500000D03*
X101500000Y-85500000D03*
X101500000Y-83500000D03*
%TD*%
D30*
%TO.C,H1*%
X156000000Y-102000000D03*
%TD*%
D10*
%TO.C,TP4*%
X128000000Y-85000000D03*
%TD*%
D13*
%TO.C,R3*%
X146862500Y-90050000D03*
X145037500Y-90050000D03*
%TD*%
D18*
%TO.C,FB2*%
X103937500Y-92500000D03*
X106062500Y-92500000D03*
%TD*%
D12*
%TO.C,C7*%
X148500000Y-81600000D03*
X148500000Y-83500000D03*
%TD*%
D31*
%TO.C,C4*%
X148862500Y-93850000D03*
X148862500Y-91950000D03*
%TD*%
D13*
%TO.C,R9*%
X110412500Y-85500000D03*
X108587500Y-85500000D03*
%TD*%
D12*
%TO.C,C8*%
X138000000Y-87050000D03*
X138000000Y-88950000D03*
%TD*%
D23*
%TO.C,D1*%
X110000000Y-79040000D03*
D24*
X110000000Y-76500000D03*
%TD*%
D29*
%TO.C,R4*%
X136750000Y-97500000D03*
X138575000Y-97500000D03*
%TD*%
D10*
%TO.C,TP6*%
X125765000Y-97540000D03*
%TD*%
D32*
%TO.C,U2*%
X130400000Y-85592500D03*
X130400000Y-86227500D03*
X130400000Y-86862500D03*
X130400000Y-87497500D03*
X130400000Y-88132500D03*
X130400000Y-88767500D03*
X130400000Y-89402500D03*
X130400000Y-90037500D03*
X130400000Y-90672500D03*
X130400000Y-91307500D03*
X135600000Y-91307500D03*
X135600000Y-90672500D03*
X135600000Y-90037500D03*
X135600000Y-89402500D03*
X135600000Y-88767500D03*
X135600000Y-88132500D03*
X135600000Y-87497500D03*
X135600000Y-86862500D03*
X135600000Y-86227500D03*
X135600000Y-85592500D03*
%TD*%
D10*
%TO.C,TP7*%
X115500000Y-83500000D03*
%TD*%
D33*
%TO.C,JP2*%
X120000000Y-83700000D03*
D34*
X120000000Y-85000000D03*
D35*
X120000000Y-86300000D03*
%TD*%
D23*
%TO.C,D2*%
X110000000Y-100960000D03*
D24*
X110000000Y-103500000D03*
%TD*%
D36*
%TO.C,JP3*%
X124500000Y-88800000D03*
D34*
X124500000Y-87500000D03*
D37*
X124500000Y-86200000D03*
%TD*%
D38*
%TO.C,J4*%
X147225000Y-102000000D03*
D39*
X149765000Y-102000000D03*
%TD*%
D13*
%TO.C,R10*%
X110412500Y-87500000D03*
X108587500Y-87500000D03*
%TD*%
D31*
%TO.C,C1*%
X158500000Y-98400000D03*
X158500000Y-96500000D03*
%TD*%
D10*
%TO.C,TP2*%
X143500000Y-83500000D03*
%TD*%
M02*
