%TF.GenerationSoftware,KiCad,Pcbnew,7.0.1*%
%TF.CreationDate,2023-03-30T22:24:36-04:00*%
%TF.ProjectId,miditerm,6d696469-7465-4726-9d2e-6b696361645f,0.1*%
%TF.SameCoordinates,Original*%
%TF.FileFunction,Copper,L1,Top*%
%TF.FilePolarity,Positive*%
%FSLAX46Y46*%
G04 Gerber Fmt 4.6, Leading zero omitted, Abs format (unit mm)*
G04 Created by KiCad (PCBNEW 7.0.1) date 2023-03-30 22:24:36*
%MOMM*%
%LPD*%
G01*
G04 APERTURE LIST*
G04 Aperture macros list*
%AMRoundRect*
0 Rectangle with rounded corners*
0 $1 Rounding radius*
0 $2 $3 $4 $5 $6 $7 $8 $9 X,Y pos of 4 corners*
0 Add a 4 corners polygon primitive as box body*
4,1,4,$2,$3,$4,$5,$6,$7,$8,$9,$2,$3,0*
0 Add four circle primitives for the rounded corners*
1,1,$1+$1,$2,$3*
1,1,$1+$1,$4,$5*
1,1,$1+$1,$6,$7*
1,1,$1+$1,$8,$9*
0 Add four rect primitives between the rounded corners*
20,1,$1+$1,$2,$3,$4,$5,0*
20,1,$1+$1,$4,$5,$6,$7,0*
20,1,$1+$1,$6,$7,$8,$9,0*
20,1,$1+$1,$8,$9,$2,$3,0*%
%AMFreePoly0*
4,1,19,0.550000,-0.750000,0.000000,-0.750000,0.000000,-0.744911,-0.071157,-0.744911,-0.207708,-0.704816,-0.327430,-0.627875,-0.420627,-0.520320,-0.479746,-0.390866,-0.500000,-0.250000,-0.500000,0.250000,-0.479746,0.390866,-0.420627,0.520320,-0.327430,0.627875,-0.207708,0.704816,-0.071157,0.744911,0.000000,0.744911,0.000000,0.750000,0.550000,0.750000,0.550000,-0.750000,0.550000,-0.750000,
$1*%
%AMFreePoly1*
4,1,19,0.000000,0.744911,0.071157,0.744911,0.207708,0.704816,0.327430,0.627875,0.420627,0.520320,0.479746,0.390866,0.500000,0.250000,0.500000,-0.250000,0.479746,-0.390866,0.420627,-0.520320,0.327430,-0.627875,0.207708,-0.704816,0.071157,-0.744911,0.000000,-0.744911,0.000000,-0.750000,-0.550000,-0.750000,-0.550000,0.750000,0.000000,0.750000,0.000000,0.744911,0.000000,0.744911,
$1*%
G04 Aperture macros list end*
%TA.AperFunction,SMDPad,CuDef*%
%ADD10C,1.500000*%
%TD*%
%TA.AperFunction,SMDPad,CuDef*%
%ADD11RoundRect,0.250000X-0.475000X0.250000X-0.475000X-0.250000X0.475000X-0.250000X0.475000X0.250000X0*%
%TD*%
%TA.AperFunction,SMDPad,CuDef*%
%ADD12RoundRect,0.250000X0.262500X0.450000X-0.262500X0.450000X-0.262500X-0.450000X0.262500X-0.450000X0*%
%TD*%
%TA.AperFunction,SMDPad,CuDef*%
%ADD13R,2.000000X1.780000*%
%TD*%
%TA.AperFunction,SMDPad,CuDef*%
%ADD14RoundRect,0.250000X0.250000X0.475000X-0.250000X0.475000X-0.250000X-0.475000X0.250000X-0.475000X0*%
%TD*%
%TA.AperFunction,ComponentPad*%
%ADD15R,1.350000X1.350000*%
%TD*%
%TA.AperFunction,ComponentPad*%
%ADD16O,1.350000X1.350000*%
%TD*%
%TA.AperFunction,SMDPad,CuDef*%
%ADD17RoundRect,0.218750X-0.218750X-0.381250X0.218750X-0.381250X0.218750X0.381250X-0.218750X0.381250X0*%
%TD*%
%TA.AperFunction,SMDPad,CuDef*%
%ADD18RoundRect,0.225000X-0.375000X0.225000X-0.375000X-0.225000X0.375000X-0.225000X0.375000X0.225000X0*%
%TD*%
%TA.AperFunction,SMDPad,CuDef*%
%ADD19RoundRect,0.250000X-0.450000X0.262500X-0.450000X-0.262500X0.450000X-0.262500X0.450000X0.262500X0*%
%TD*%
%TA.AperFunction,ComponentPad*%
%ADD20R,1.600000X1.600000*%
%TD*%
%TA.AperFunction,ComponentPad*%
%ADD21C,1.600000*%
%TD*%
%TA.AperFunction,ComponentPad*%
%ADD22R,1.800000X1.800000*%
%TD*%
%TA.AperFunction,ComponentPad*%
%ADD23C,1.800000*%
%TD*%
%TA.AperFunction,SMDPad,CuDef*%
%ADD24RoundRect,0.150000X0.512500X0.150000X-0.512500X0.150000X-0.512500X-0.150000X0.512500X-0.150000X0*%
%TD*%
%TA.AperFunction,SMDPad,CuDef*%
%ADD25RoundRect,0.250000X0.450000X-0.262500X0.450000X0.262500X-0.450000X0.262500X-0.450000X-0.262500X0*%
%TD*%
%TA.AperFunction,SMDPad,CuDef*%
%ADD26R,1.000000X1.500000*%
%TD*%
%TA.AperFunction,SMDPad,CuDef*%
%ADD27RoundRect,0.218750X0.218750X0.381250X-0.218750X0.381250X-0.218750X-0.381250X0.218750X-0.381250X0*%
%TD*%
%TA.AperFunction,SMDPad,CuDef*%
%ADD28RoundRect,0.250000X-0.262500X-0.450000X0.262500X-0.450000X0.262500X0.450000X-0.262500X0.450000X0*%
%TD*%
%TA.AperFunction,SMDPad,CuDef*%
%ADD29RoundRect,0.250000X0.475000X-0.250000X0.475000X0.250000X-0.475000X0.250000X-0.475000X-0.250000X0*%
%TD*%
%TA.AperFunction,SMDPad,CuDef*%
%ADD30R,1.200000X0.400000*%
%TD*%
%TA.AperFunction,SMDPad,CuDef*%
%ADD31FreePoly0,270.000000*%
%TD*%
%TA.AperFunction,SMDPad,CuDef*%
%ADD32R,1.500000X1.000000*%
%TD*%
%TA.AperFunction,SMDPad,CuDef*%
%ADD33FreePoly1,270.000000*%
%TD*%
%TA.AperFunction,SMDPad,CuDef*%
%ADD34FreePoly0,90.000000*%
%TD*%
%TA.AperFunction,SMDPad,CuDef*%
%ADD35FreePoly1,90.000000*%
%TD*%
%TA.AperFunction,ComponentPad*%
%ADD36R,1.700000X1.700000*%
%TD*%
%TA.AperFunction,ComponentPad*%
%ADD37O,1.700000X1.700000*%
%TD*%
%TA.AperFunction,ViaPad*%
%ADD38C,0.800000*%
%TD*%
%TA.AperFunction,Conductor*%
%ADD39C,0.500000*%
%TD*%
%TA.AperFunction,Conductor*%
%ADD40C,1.000000*%
%TD*%
%TA.AperFunction,Conductor*%
%ADD41C,0.600000*%
%TD*%
%TA.AperFunction,Conductor*%
%ADD42C,0.400000*%
%TD*%
%TA.AperFunction,Conductor*%
%ADD43C,0.261112*%
%TD*%
G04 APERTURE END LIST*
%TA.AperFunction,EtchedComponent*%
%TO.C,JP2*%
G36*
X120300000Y-84600000D02*
G01*
X119700000Y-84600000D01*
X119700000Y-84100000D01*
X120300000Y-84100000D01*
X120300000Y-84600000D01*
G37*
%TD.AperFunction*%
%TA.AperFunction,EtchedComponent*%
%TO.C,JP3*%
G36*
X124800000Y-88400000D02*
G01*
X124200000Y-88400000D01*
X124200000Y-87900000D01*
X124800000Y-87900000D01*
X124800000Y-88400000D01*
G37*
%TD.AperFunction*%
%TD*%
D10*
%TO.P,TP3,1,1*%
%TO.N,+3V3*%
X134500000Y-97500000D03*
%TD*%
D11*
%TO.P,C5,1*%
%TO.N,GND*%
X156500000Y-81600000D03*
%TO.P,C5,2*%
%TO.N,VBUS*%
X156500000Y-83500000D03*
%TD*%
D10*
%TO.P,TP5,1,1*%
%TO.N,/RXD*%
X128000000Y-87500000D03*
%TD*%
D12*
%TO.P,R8,1*%
%TO.N,+3V3*%
X130412500Y-97500000D03*
%TO.P,R8,2*%
%TO.N,/MIDI_IN*%
X128587500Y-97500000D03*
%TD*%
D10*
%TO.P,TP1,1,1*%
%TO.N,VBUS*%
X154500000Y-88000000D03*
%TD*%
D13*
%TO.P,U3,1*%
%TO.N,Net-(D3-K)*%
X113000000Y-92500000D03*
%TO.P,U3,2*%
%TO.N,Net-(D3-A)*%
X113000000Y-95040000D03*
%TO.P,U3,3*%
%TO.N,unconnected-(U3-Pad3)*%
X113000000Y-97580000D03*
%TO.P,U3,4*%
%TO.N,/MIDI_IN*%
X122530000Y-97580000D03*
%TO.P,U3,5*%
%TO.N,GND*%
X122530000Y-95040000D03*
%TO.P,U3,6*%
%TO.N,+3V3*%
X122530000Y-92500000D03*
%TD*%
D14*
%TO.P,C11,1*%
%TO.N,GND*%
X105950000Y-96500000D03*
%TO.P,C11,2*%
%TO.N,Net-(J2-Pin_3)*%
X104050000Y-96500000D03*
%TD*%
D15*
%TO.P,J1,1,Pin_1*%
%TO.N,GND*%
X158500000Y-86000000D03*
D16*
%TO.P,J1,2,Pin_2*%
%TO.N,VBUS*%
X158500000Y-88000000D03*
%TO.P,J1,3,Pin_3*%
%TO.N,/USB_IN_D-*%
X158500000Y-90000000D03*
%TO.P,J1,4,Pin_4*%
%TO.N,/USB_IN_D+*%
X158500000Y-92000000D03*
%TO.P,J1,5,Pin_5*%
%TO.N,/USB_SHEILD*%
X158500000Y-94000000D03*
%TD*%
D11*
%TO.P,C12,1*%
%TO.N,+3V3*%
X125265000Y-92800000D03*
%TO.P,C12,2*%
%TO.N,GND*%
X125265000Y-94700000D03*
%TD*%
D17*
%TO.P,FB3,1*%
%TO.N,/MIDI_IN_PIN5*%
X103937500Y-94500000D03*
%TO.P,FB3,2*%
%TO.N,Net-(D3-A)*%
X106062500Y-94500000D03*
%TD*%
D15*
%TO.P,J2,1,Pin_1*%
%TO.N,/MIDI_IN_PIN4*%
X101500000Y-92500000D03*
D16*
%TO.P,J2,2,Pin_2*%
%TO.N,/MIDI_IN_PIN5*%
X101500000Y-94500000D03*
%TO.P,J2,3,Pin_3*%
%TO.N,Net-(J2-Pin_3)*%
X101500000Y-96500000D03*
%TD*%
D18*
%TO.P,D3,1,K*%
%TO.N,Net-(D3-K)*%
X110000000Y-94500000D03*
%TO.P,D3,2,A*%
%TO.N,Net-(D3-A)*%
X110000000Y-97800000D03*
%TD*%
D19*
%TO.P,R1,1*%
%TO.N,/USB_SHEILD*%
X156500000Y-96500000D03*
%TO.P,R1,2*%
%TO.N,GND*%
X156500000Y-98325000D03*
%TD*%
D12*
%TO.P,R2,1*%
%TO.N,/USB_TVS_D+*%
X146862500Y-91950000D03*
%TO.P,R2,2*%
%TO.N,/USBD+*%
X145037500Y-91950000D03*
%TD*%
%TO.P,R5,1*%
%TO.N,+5V*%
X118412500Y-76500000D03*
%TO.P,R5,2*%
%TO.N,Net-(D1-A)*%
X116587500Y-76500000D03*
%TD*%
D20*
%TO.P,C9,1*%
%TO.N,+5V*%
X143500000Y-80000000D03*
D21*
%TO.P,C9,2*%
%TO.N,GND*%
X143500000Y-78000000D03*
%TD*%
D22*
%TO.P,D4,1,K*%
%TO.N,GND*%
X154725000Y-78000000D03*
D23*
%TO.P,D4,2,A*%
%TO.N,Net-(D4-A)*%
X157265000Y-78000000D03*
%TD*%
D11*
%TO.P,C6,1*%
%TO.N,GND*%
X154500000Y-81600000D03*
%TO.P,C6,2*%
%TO.N,VBUS*%
X154500000Y-83500000D03*
%TD*%
D24*
%TO.P,U1,1,I/O1*%
%TO.N,/USB_IN_D+*%
X155500000Y-91950000D03*
%TO.P,U1,2,GND*%
%TO.N,GND*%
X155500000Y-91000000D03*
%TO.P,U1,3,I/O2*%
%TO.N,/USB_IN_D-*%
X155500000Y-90050000D03*
%TO.P,U1,4,I/O2*%
%TO.N,/USB_TVS_D-*%
X153225000Y-90050000D03*
%TO.P,U1,5,VBUS*%
%TO.N,VBUS*%
X153225000Y-91000000D03*
%TO.P,U1,6,I/O1*%
%TO.N,/USB_TVS_D+*%
X153225000Y-91950000D03*
%TD*%
D25*
%TO.P,R11,1*%
%TO.N,VBUS*%
X158500000Y-83500000D03*
%TO.P,R11,2*%
%TO.N,Net-(D4-A)*%
X158500000Y-81675000D03*
%TD*%
D12*
%TO.P,R6,1*%
%TO.N,+5V*%
X118412500Y-103500000D03*
%TO.P,R6,2*%
%TO.N,Net-(D2-A)*%
X116587500Y-103500000D03*
%TD*%
D11*
%TO.P,C3,1*%
%TO.N,GND*%
X148862500Y-88150000D03*
%TO.P,C3,2*%
%TO.N,/USB_TVS_D-*%
X148862500Y-90050000D03*
%TD*%
D26*
%TO.P,JP1,1,A*%
%TO.N,/~{RESET}*%
X140750000Y-97500000D03*
%TO.P,JP1,2,B*%
%TO.N,GND*%
X142050000Y-97500000D03*
%TD*%
D11*
%TO.P,C10,1*%
%TO.N,GND*%
X140000000Y-87050000D03*
%TO.P,C10,2*%
%TO.N,+3V3*%
X140000000Y-88950000D03*
%TD*%
D27*
%TO.P,FB5,1*%
%TO.N,Net-(FB5-Pad1)*%
X106062500Y-85500000D03*
%TO.P,FB5,2*%
%TO.N,/MIDI_OUT_PIN5*%
X103937500Y-85500000D03*
%TD*%
%TO.P,FB1,1*%
%TO.N,VBUS*%
X152562500Y-83500000D03*
%TO.P,FB1,2*%
%TO.N,+5V*%
X150437500Y-83500000D03*
%TD*%
D28*
%TO.P,R7,1*%
%TO.N,Net-(FB2-Pad2)*%
X108587500Y-92500000D03*
%TO.P,R7,2*%
%TO.N,Net-(D3-K)*%
X110412500Y-92500000D03*
%TD*%
D11*
%TO.P,C2,1*%
%TO.N,VBUS*%
X151112500Y-91000000D03*
%TO.P,C2,2*%
%TO.N,GND*%
X151112500Y-92900000D03*
%TD*%
D27*
%TO.P,FB4,1*%
%TO.N,Net-(FB4-Pad1)*%
X106062500Y-87500000D03*
%TO.P,FB4,2*%
%TO.N,/MIDI_OUT_PIN4*%
X103937500Y-87500000D03*
%TD*%
D15*
%TO.P,J3,1,Pin_1*%
%TO.N,GND*%
X101500000Y-89500000D03*
D16*
%TO.P,J3,2,Pin_2*%
%TO.N,/MIDI_OUT_PIN4*%
X101500000Y-87500000D03*
%TO.P,J3,3,Pin_3*%
%TO.N,/MIDI_OUT_PIN5*%
X101500000Y-85500000D03*
%TO.P,J3,4,Pin_4*%
%TO.N,GND*%
X101500000Y-83500000D03*
%TD*%
D10*
%TO.P,TP4,1,1*%
%TO.N,/TXD*%
X128000000Y-85000000D03*
%TD*%
D12*
%TO.P,R3,1*%
%TO.N,/USB_TVS_D-*%
X146862500Y-90050000D03*
%TO.P,R3,2*%
%TO.N,/USBD-*%
X145037500Y-90050000D03*
%TD*%
D17*
%TO.P,FB2,1*%
%TO.N,/MIDI_IN_PIN4*%
X103937500Y-92500000D03*
%TO.P,FB2,2*%
%TO.N,Net-(FB2-Pad2)*%
X106062500Y-92500000D03*
%TD*%
D11*
%TO.P,C7,1*%
%TO.N,GND*%
X148500000Y-81600000D03*
%TO.P,C7,2*%
%TO.N,+5V*%
X148500000Y-83500000D03*
%TD*%
D29*
%TO.P,C4,1*%
%TO.N,GND*%
X148862500Y-93850000D03*
%TO.P,C4,2*%
%TO.N,/USB_TVS_D+*%
X148862500Y-91950000D03*
%TD*%
D12*
%TO.P,R9,1*%
%TO.N,/MIDI_OUT*%
X110412500Y-85500000D03*
%TO.P,R9,2*%
%TO.N,Net-(FB5-Pad1)*%
X108587500Y-85500000D03*
%TD*%
D11*
%TO.P,C8,1*%
%TO.N,GND*%
X138000000Y-87050000D03*
%TO.P,C8,2*%
%TO.N,+5V*%
X138000000Y-88950000D03*
%TD*%
D22*
%TO.P,D1,1,K*%
%TO.N,/TXLED*%
X110000000Y-79040000D03*
D23*
%TO.P,D1,2,A*%
%TO.N,Net-(D1-A)*%
X110000000Y-76500000D03*
%TD*%
D28*
%TO.P,R4,1*%
%TO.N,+3V3*%
X136750000Y-97500000D03*
%TO.P,R4,2*%
%TO.N,/~{RESET}*%
X138575000Y-97500000D03*
%TD*%
D10*
%TO.P,TP6,1,1*%
%TO.N,/MIDI_IN*%
X125765000Y-97540000D03*
%TD*%
D30*
%TO.P,U2,1,~{DTR}*%
%TO.N,unconnected-(U2-~{DTR}-Pad1)*%
X130400000Y-85592500D03*
%TO.P,U2,2,~{RTS}*%
%TO.N,unconnected-(U2-~{RTS}-Pad2)*%
X130400000Y-86227500D03*
%TO.P,U2,3,VCCIO*%
%TO.N,+3V3*%
X130400000Y-86862500D03*
%TO.P,U2,4,RXD*%
%TO.N,/RXD*%
X130400000Y-87497500D03*
%TO.P,U2,5,~{RI}*%
%TO.N,unconnected-(U2-~{RI}-Pad5)*%
X130400000Y-88132500D03*
%TO.P,U2,6,GND*%
%TO.N,GND*%
X130400000Y-88767500D03*
%TO.P,U2,7,~{DSR}*%
%TO.N,unconnected-(U2-~{DSR}-Pad7)*%
X130400000Y-89402500D03*
%TO.P,U2,8,~{DCD}*%
%TO.N,unconnected-(U2-~{DCD}-Pad8)*%
X130400000Y-90037500D03*
%TO.P,U2,9,~{CTS}*%
%TO.N,unconnected-(U2-~{CTS}-Pad9)*%
X130400000Y-90672500D03*
%TO.P,U2,10,CBUS2*%
%TO.N,/RXLED*%
X130400000Y-91307500D03*
%TO.P,U2,11,USBDP*%
%TO.N,/USBD+*%
X135600000Y-91307500D03*
%TO.P,U2,12,USBDM*%
%TO.N,/USBD-*%
X135600000Y-90672500D03*
%TO.P,U2,13,3V3OUT*%
%TO.N,+3V3*%
X135600000Y-90037500D03*
%TO.P,U2,14,~{RESET}*%
%TO.N,/~{RESET}*%
X135600000Y-89402500D03*
%TO.P,U2,15,VCC*%
%TO.N,+5V*%
X135600000Y-88767500D03*
%TO.P,U2,16,GND*%
%TO.N,GND*%
X135600000Y-88132500D03*
%TO.P,U2,17,CBUS1*%
%TO.N,/TXLED*%
X135600000Y-87497500D03*
%TO.P,U2,18,CBUS0*%
%TO.N,unconnected-(U2-CBUS0-Pad18)*%
X135600000Y-86862500D03*
%TO.P,U2,19,CBUS3*%
%TO.N,unconnected-(U2-CBUS3-Pad19)*%
X135600000Y-86227500D03*
%TO.P,U2,20,TXD*%
%TO.N,/TXD*%
X135600000Y-85592500D03*
%TD*%
D10*
%TO.P,TP7,1,1*%
%TO.N,/MIDI_OUT*%
X115500000Y-83500000D03*
%TD*%
D31*
%TO.P,JP2,1,A*%
%TO.N,/MIDI_OUT*%
X120000000Y-83700000D03*
D32*
%TO.P,JP2,2,C*%
%TO.N,/TXD*%
X120000000Y-85000000D03*
D33*
%TO.P,JP2,3,B*%
%TO.N,/MIDI_IN*%
X120000000Y-86300000D03*
%TD*%
D22*
%TO.P,D2,1,K*%
%TO.N,/RXLED*%
X110000000Y-100960000D03*
D23*
%TO.P,D2,2,A*%
%TO.N,Net-(D2-A)*%
X110000000Y-103500000D03*
%TD*%
D34*
%TO.P,JP3,1,A*%
%TO.N,/MIDI_IN*%
X124500000Y-88800000D03*
D32*
%TO.P,JP3,2,C*%
%TO.N,/RXD*%
X124500000Y-87500000D03*
D35*
%TO.P,JP3,3,B*%
%TO.N,/MIDI_OUT*%
X124500000Y-86200000D03*
%TD*%
D36*
%TO.P,J4,1,Pin_1*%
%TO.N,GND*%
X147225000Y-102000000D03*
D37*
%TO.P,J4,2,Pin_2*%
X149765000Y-102000000D03*
%TD*%
D12*
%TO.P,R10,1*%
%TO.N,+3V3*%
X110412500Y-87500000D03*
%TO.P,R10,2*%
%TO.N,Net-(FB4-Pad1)*%
X108587500Y-87500000D03*
%TD*%
D29*
%TO.P,C1,1*%
%TO.N,GND*%
X158500000Y-98400000D03*
%TO.P,C1,2*%
%TO.N,/USB_SHEILD*%
X158500000Y-96500000D03*
%TD*%
D10*
%TO.P,TP2,1,1*%
%TO.N,+5V*%
X143500000Y-83500000D03*
%TD*%
D38*
%TO.N,GND*%
X145750000Y-98500000D03*
X134000000Y-87750000D03*
X141500000Y-92500000D03*
X132000000Y-86000000D03*
X119250000Y-80250000D03*
X113000000Y-84250000D03*
X145000000Y-82000000D03*
X150750000Y-94500000D03*
X103250000Y-90000000D03*
X133250000Y-91000000D03*
X103750000Y-100750000D03*
X112000000Y-88750000D03*
X119500000Y-88000000D03*
X130750000Y-102250000D03*
X136500000Y-101500000D03*
X111250000Y-90750000D03*
X122000000Y-104250000D03*
X135750000Y-92500000D03*
X105000000Y-82750000D03*
X104250000Y-104250000D03*
X130750000Y-99500000D03*
X145500000Y-85000000D03*
X157000000Y-92500000D03*
X151750000Y-97500000D03*
X108000000Y-104250000D03*
X151500000Y-80500000D03*
X119750000Y-77750000D03*
X107000000Y-81000000D03*
X133250000Y-96000000D03*
X100750000Y-75750000D03*
X159000000Y-76750000D03*
X123750000Y-81500000D03*
X125000000Y-102250000D03*
X126500000Y-88500000D03*
X119500000Y-98250000D03*
X107500000Y-97250000D03*
X127500000Y-81000000D03*
X132250000Y-77750000D03*
X140500000Y-76250000D03*
X141500000Y-81250000D03*
X100750000Y-104250000D03*
X147000000Y-86250000D03*
X107250000Y-89250000D03*
X122000000Y-90250000D03*
X146500000Y-76250000D03*
X148250000Y-79750000D03*
X108250000Y-75500000D03*
X152750000Y-76250000D03*
X144000000Y-87750000D03*
X114500000Y-90500000D03*
X152500000Y-102750000D03*
X128500000Y-104250000D03*
X133250000Y-98750000D03*
X142000000Y-102250000D03*
X115250000Y-86500000D03*
X116500000Y-95250000D03*
X159250000Y-104250000D03*
X151500000Y-85000000D03*
X116750000Y-88750000D03*
X119250000Y-82250000D03*
X134250000Y-104000000D03*
X127250000Y-96250000D03*
X156000000Y-86500000D03*
X141750000Y-89000000D03*
X100750000Y-101250000D03*
X141500000Y-86000000D03*
X125500000Y-83750000D03*
X119500000Y-91750000D03*
X136000000Y-81250000D03*
X147000000Y-93750000D03*
X128750000Y-91000000D03*
X124500000Y-96250000D03*
X116750000Y-80250000D03*
X116750000Y-98250000D03*
X116500000Y-92500000D03*
X116750000Y-84750000D03*
X130250000Y-92500000D03*
X153000000Y-93250000D03*
X137250000Y-78750000D03*
X145500000Y-96000000D03*
X138500000Y-103250000D03*
X138000000Y-85500000D03*
X137750000Y-94000000D03*
X134500000Y-75500000D03*
X100750000Y-98250000D03*
X152750000Y-88750000D03*
X102250000Y-81000000D03*
X140000000Y-85500000D03*
X119750000Y-102250000D03*
X111250000Y-82750000D03*
X154250000Y-95500000D03*
X135500000Y-84250000D03*
X122500000Y-99750000D03*
X157000000Y-95000000D03*
X120500000Y-95000000D03*
X140000000Y-83000000D03*
X112000000Y-86500000D03*
X114750000Y-99750000D03*
X127250000Y-94500000D03*
X131500000Y-80250000D03*
X126000000Y-77750000D03*
X159500000Y-101000000D03*
X111750000Y-80250000D03*
X131750000Y-89152500D03*
%TO.N,+3V3*%
X130500000Y-96000000D03*
X127000000Y-93000000D03*
%TO.N,/~{RESET}*%
X134403014Y-89022350D03*
X135500000Y-96000000D03*
%TO.N,+5V*%
X118000000Y-78000000D03*
X118000000Y-102000000D03*
%TO.N,/RXLED*%
X132000000Y-101000000D03*
X132000000Y-92000000D03*
%TO.N,/MIDI_OUT*%
X122000000Y-84000000D03*
X122500000Y-86000000D03*
%TD*%
D39*
%TO.N,VBUS*%
X154387500Y-90398528D02*
X154387500Y-88112500D01*
D40*
X158500000Y-88000000D02*
X154500000Y-88000000D01*
X154500000Y-83500000D02*
X152562500Y-83500000D01*
X156500000Y-83500000D02*
X158500000Y-83500000D01*
D41*
X153225000Y-91000000D02*
X151112500Y-91000000D01*
D40*
X156500000Y-83500000D02*
X154500000Y-83500000D01*
X154500000Y-83500000D02*
X154500000Y-88000000D01*
D39*
X153225000Y-91000000D02*
X153786028Y-91000000D01*
X153786028Y-91000000D02*
X154387500Y-90398528D01*
X154387500Y-88112500D02*
X154500000Y-88000000D01*
%TO.N,GND*%
X153786028Y-92900000D02*
X153350000Y-92900000D01*
D40*
X140000000Y-87050000D02*
X138000000Y-87050000D01*
D42*
X131750000Y-89152500D02*
X131365000Y-88767500D01*
D40*
X125265000Y-94700000D02*
X122870000Y-94700000D01*
D41*
X140000000Y-87050000D02*
X140450000Y-87050000D01*
D42*
X136917500Y-88132500D02*
X138000000Y-87050000D01*
X131365000Y-88767500D02*
X130400000Y-88767500D01*
D41*
X140450000Y-87050000D02*
X141500000Y-86000000D01*
D39*
X154362500Y-91576472D02*
X154362500Y-92323528D01*
X154362500Y-92323528D02*
X153786028Y-92900000D01*
D42*
X151500000Y-80500000D02*
X151500000Y-85000000D01*
D39*
X153350000Y-92900000D02*
X153000000Y-93250000D01*
X155500000Y-91000000D02*
X154938972Y-91000000D01*
X154938972Y-91000000D02*
X154362500Y-91576472D01*
D40*
X122870000Y-94700000D02*
X122530000Y-95040000D01*
D42*
X134382500Y-88132500D02*
X134000000Y-87750000D01*
D39*
X153000000Y-93250000D02*
X152650000Y-92900000D01*
D42*
X135600000Y-88132500D02*
X136917500Y-88132500D01*
X135600000Y-88132500D02*
X134382500Y-88132500D01*
D39*
X152650000Y-92900000D02*
X151112500Y-92900000D01*
D42*
%TO.N,+3V3*%
X134287500Y-90037500D02*
X135600000Y-90037500D01*
D40*
X130500000Y-97412500D02*
X130412500Y-97500000D01*
D42*
X134500000Y-90075000D02*
X134500000Y-97500000D01*
X134537500Y-90037500D02*
X134500000Y-90075000D01*
D40*
X130412500Y-97500000D02*
X134500000Y-97500000D01*
D42*
X131365000Y-86862500D02*
X131365000Y-87115000D01*
D40*
X125265000Y-92800000D02*
X122830000Y-92800000D01*
D42*
X131365000Y-87115000D02*
X134287500Y-90037500D01*
D40*
X125265000Y-92800000D02*
X126800000Y-92800000D01*
D42*
X130400000Y-86862500D02*
X131365000Y-86862500D01*
D40*
X122830000Y-92800000D02*
X122530000Y-92500000D01*
X130500000Y-96000000D02*
X130500000Y-97412500D01*
D42*
X138912500Y-90037500D02*
X140000000Y-88950000D01*
D41*
X110412500Y-87500000D02*
X117530000Y-87500000D01*
D40*
X126800000Y-92800000D02*
X127000000Y-93000000D01*
D42*
X135600000Y-90037500D02*
X138912500Y-90037500D01*
D41*
X117530000Y-87500000D02*
X122530000Y-92500000D01*
D42*
X134537500Y-90037500D02*
X135600000Y-90037500D01*
D41*
X136750000Y-97500000D02*
X134500000Y-97500000D01*
D43*
%TO.N,/USBD+*%
X145037500Y-91950000D02*
X144319657Y-91232157D01*
X144319656Y-91232156D02*
X136530900Y-91232156D01*
X145037500Y-91950000D02*
X144319656Y-91232156D01*
X135678544Y-91228956D02*
X136500000Y-91228956D01*
X144319657Y-91232157D02*
X144319656Y-91232156D01*
X135600000Y-91307500D02*
X135678544Y-91228956D01*
%TO.N,/USBD-*%
X145037500Y-90050000D02*
X144319656Y-90767844D01*
X144319657Y-90767843D02*
X144319656Y-90767844D01*
X136422844Y-90767844D02*
X144319656Y-90767844D01*
X135600000Y-90672500D02*
X135695344Y-90767844D01*
X145037500Y-90050000D02*
X144319657Y-90767843D01*
X135695344Y-90767844D02*
X136500000Y-90767844D01*
D42*
%TO.N,/~{RESET}*%
X134783164Y-89402500D02*
X134403014Y-89022350D01*
X135600000Y-89402500D02*
X134783164Y-89402500D01*
X135500000Y-96000000D02*
X137075000Y-96000000D01*
D41*
X138575000Y-97500000D02*
X140750000Y-97500000D01*
D42*
X137075000Y-96000000D02*
X138575000Y-97500000D01*
D43*
%TO.N,/USB_TVS_D-*%
X148862500Y-90050000D02*
X146862500Y-90050000D01*
X153225000Y-90050000D02*
X148862500Y-90050000D01*
%TO.N,/USB_TVS_D+*%
X153225000Y-91950000D02*
X148862500Y-91950000D01*
X148862500Y-91950000D02*
X146862500Y-91950000D01*
D42*
%TO.N,+5V*%
X141050000Y-87950000D02*
X143500000Y-85500000D01*
D40*
X148500000Y-83500000D02*
X150437500Y-83500000D01*
D42*
X137817500Y-88767500D02*
X138000000Y-88950000D01*
D41*
X143500000Y-80000000D02*
X136500000Y-80000000D01*
X118412500Y-77587500D02*
X118000000Y-78000000D01*
D42*
X143500000Y-85500000D02*
X143500000Y-83500000D01*
D41*
X118412500Y-102412500D02*
X118000000Y-102000000D01*
X118412500Y-76500000D02*
X118412500Y-77587500D01*
D42*
X139000000Y-87950000D02*
X141050000Y-87950000D01*
X138000000Y-88950000D02*
X139000000Y-87950000D01*
D41*
X133000000Y-76500000D02*
X118412500Y-76500000D01*
X136500000Y-80000000D02*
X133000000Y-76500000D01*
D42*
X135600000Y-88767500D02*
X137817500Y-88767500D01*
D40*
X143500000Y-80000000D02*
X143500000Y-83500000D01*
X143500000Y-83500000D02*
X148500000Y-83500000D01*
D41*
X118412500Y-103500000D02*
X118412500Y-102412500D01*
%TO.N,Net-(J2-Pin_3)*%
X101500000Y-96500000D02*
X104050000Y-96500000D01*
D42*
%TO.N,/TXLED*%
X136565000Y-87497500D02*
X136600000Y-87462500D01*
X135600000Y-87497500D02*
X136565000Y-87497500D01*
X132040000Y-79040000D02*
X110000000Y-79040000D01*
X136600000Y-87462500D02*
X136600000Y-83600000D01*
X136600000Y-83600000D02*
X132040000Y-79040000D01*
D41*
%TO.N,Net-(D1-A)*%
X116587500Y-76500000D02*
X110000000Y-76500000D01*
D42*
%TO.N,/RXLED*%
X132000000Y-101000000D02*
X131960000Y-100960000D01*
X131960000Y-100960000D02*
X110000000Y-100960000D01*
X131307500Y-91307500D02*
X132000000Y-92000000D01*
X130400000Y-91307500D02*
X131307500Y-91307500D01*
D41*
%TO.N,Net-(D2-A)*%
X116500000Y-103500000D02*
X110000000Y-103500000D01*
%TO.N,Net-(D3-K)*%
X110412500Y-92500000D02*
X113000000Y-92500000D01*
X110412500Y-92500000D02*
X110412500Y-94087500D01*
X110412500Y-94087500D02*
X110000000Y-94500000D01*
%TO.N,Net-(D3-A)*%
X106700000Y-94500000D02*
X110000000Y-97800000D01*
X106062500Y-94500000D02*
X106700000Y-94500000D01*
X113000000Y-95040000D02*
X112760000Y-95040000D01*
X112760000Y-95040000D02*
X110000000Y-97800000D01*
X112850000Y-95190000D02*
X113000000Y-95040000D01*
%TO.N,/MIDI_IN_PIN4*%
X101500000Y-92500000D02*
X103937500Y-92500000D01*
%TO.N,Net-(FB2-Pad2)*%
X106062500Y-92500000D02*
X108587500Y-92500000D01*
%TO.N,/MIDI_IN_PIN5*%
X101500000Y-94500000D02*
X103937500Y-94500000D01*
%TO.N,Net-(FB4-Pad1)*%
X106062500Y-87500000D02*
X108587500Y-87500000D01*
%TO.N,/MIDI_OUT_PIN4*%
X101500000Y-87500000D02*
X103937500Y-87500000D01*
%TO.N,Net-(FB5-Pad1)*%
X106062500Y-85500000D02*
X108587500Y-85500000D01*
%TO.N,/MIDI_OUT_PIN5*%
X101500000Y-85500000D02*
X103937500Y-85500000D01*
D43*
%TO.N,/USB_IN_D+*%
X157732157Y-91232157D02*
X156609952Y-91232157D01*
X156211553Y-91630556D02*
X155819444Y-91630556D01*
X156609952Y-91232157D02*
X156211553Y-91630556D01*
X155819444Y-91630556D02*
X155500000Y-91950000D01*
X158500000Y-92000000D02*
X157732157Y-91232157D01*
%TO.N,/USB_IN_D-*%
X156211553Y-90369444D02*
X155819444Y-90369444D01*
X156609952Y-90767843D02*
X156211553Y-90369444D01*
X157732157Y-90767843D02*
X156609952Y-90767843D01*
X158500000Y-90000000D02*
X157732157Y-90767843D01*
X155819444Y-90369444D02*
X155500000Y-90050000D01*
D41*
%TO.N,/MIDI_OUT*%
X124300000Y-86000000D02*
X124500000Y-86200000D01*
X115700000Y-83700000D02*
X115500000Y-83500000D01*
X122500000Y-86000000D02*
X124300000Y-86000000D01*
X113500000Y-85500000D02*
X115500000Y-83500000D01*
X120000000Y-83700000D02*
X121700000Y-83700000D01*
X120000000Y-83700000D02*
X115700000Y-83700000D01*
X110412500Y-85500000D02*
X113500000Y-85500000D01*
X121700000Y-83700000D02*
X122000000Y-84000000D01*
D42*
%TO.N,/TXD*%
X120000000Y-85000000D02*
X128000000Y-85000000D01*
X132492500Y-84992500D02*
X133092500Y-85592500D01*
X128007500Y-84992500D02*
X132492500Y-84992500D01*
X128000000Y-85000000D02*
X128007500Y-84992500D01*
X133092500Y-85592500D02*
X135600000Y-85592500D01*
D41*
%TO.N,/MIDI_IN*%
X128587500Y-92887500D02*
X124500000Y-88800000D01*
X125765000Y-97540000D02*
X128547500Y-97540000D01*
X128587500Y-97500000D02*
X128587500Y-92887500D01*
X125725000Y-97580000D02*
X125765000Y-97540000D01*
X122500000Y-88800000D02*
X124500000Y-88800000D01*
X120000000Y-86300000D02*
X122500000Y-88800000D01*
X128547500Y-97540000D02*
X128587500Y-97500000D01*
X122530000Y-97580000D02*
X125725000Y-97580000D01*
D42*
%TO.N,/RXD*%
X128000000Y-87500000D02*
X130397500Y-87500000D01*
X124500000Y-87500000D02*
X128000000Y-87500000D01*
X130397500Y-87500000D02*
X130400000Y-87497500D01*
D41*
%TO.N,Net-(D4-A)*%
X158500000Y-79235000D02*
X157265000Y-78000000D01*
X158500000Y-81675000D02*
X158500000Y-79235000D01*
%TO.N,/USB_SHEILD*%
X158500000Y-96500000D02*
X156500000Y-96500000D01*
X158500000Y-94000000D02*
X158500000Y-96500000D01*
%TD*%
%TA.AperFunction,Conductor*%
%TO.N,GND*%
G36*
X109401207Y-75017456D02*
G01*
X109446680Y-75063687D01*
X109462599Y-75126550D01*
X109444610Y-75188852D01*
X109397635Y-75233553D01*
X109253369Y-75311626D01*
X109231372Y-75323531D01*
X109048215Y-75466087D01*
X108891020Y-75636848D01*
X108764076Y-75831150D01*
X108670844Y-76043696D01*
X108613865Y-76268700D01*
X108594699Y-76500000D01*
X108613865Y-76731299D01*
X108613865Y-76731301D01*
X108613866Y-76731305D01*
X108670843Y-76956300D01*
X108764076Y-77168849D01*
X108891021Y-77363153D01*
X108985803Y-77466114D01*
X109014575Y-77518865D01*
X109015168Y-77578951D01*
X108987441Y-77632261D01*
X108937906Y-77666276D01*
X108857671Y-77696202D01*
X108742454Y-77782454D01*
X108656204Y-77897668D01*
X108605909Y-78032515D01*
X108605909Y-78032517D01*
X108599755Y-78089762D01*
X108599500Y-78092130D01*
X108599500Y-79987869D01*
X108605909Y-80047483D01*
X108656204Y-80182331D01*
X108742454Y-80297546D01*
X108857669Y-80383796D01*
X108992517Y-80434091D01*
X109052127Y-80440500D01*
X110947872Y-80440499D01*
X111007483Y-80434091D01*
X111142331Y-80383796D01*
X111257546Y-80297546D01*
X111343796Y-80182331D01*
X111394091Y-80047483D01*
X111400500Y-79987873D01*
X111400500Y-79864500D01*
X111417113Y-79802500D01*
X111462500Y-79757113D01*
X111524500Y-79740500D01*
X131698481Y-79740500D01*
X131745934Y-79749939D01*
X131786162Y-79776819D01*
X135863181Y-83853838D01*
X135890061Y-83894066D01*
X135899500Y-83941519D01*
X135899500Y-84768000D01*
X135882887Y-84830000D01*
X135837500Y-84875387D01*
X135775500Y-84892000D01*
X135642375Y-84892000D01*
X135642372Y-84892000D01*
X133434019Y-84892000D01*
X133386566Y-84882561D01*
X133346338Y-84855681D01*
X133005440Y-84514783D01*
X133000322Y-84509347D01*
X132960429Y-84464317D01*
X132957724Y-84462450D01*
X132910936Y-84430154D01*
X132904905Y-84425716D01*
X132857554Y-84388620D01*
X132848313Y-84384461D01*
X132828773Y-84373441D01*
X132820430Y-84367682D01*
X132820427Y-84367681D01*
X132820426Y-84367680D01*
X132764201Y-84346356D01*
X132757283Y-84343491D01*
X132702429Y-84318803D01*
X132692452Y-84316975D01*
X132670839Y-84310950D01*
X132661373Y-84307360D01*
X132601672Y-84300110D01*
X132594271Y-84298983D01*
X132535107Y-84288141D01*
X132475066Y-84291774D01*
X132467579Y-84292000D01*
X129095382Y-84292000D01*
X129038125Y-84277989D01*
X128993807Y-84239123D01*
X128961598Y-84193123D01*
X128806877Y-84038402D01*
X128627639Y-83912898D01*
X128513313Y-83859587D01*
X128429331Y-83820425D01*
X128217974Y-83763792D01*
X127999999Y-83744722D01*
X127782025Y-83763792D01*
X127570668Y-83820425D01*
X127372361Y-83912898D01*
X127193122Y-84038402D01*
X127038405Y-84193119D01*
X127038404Y-84193121D01*
X127038402Y-84193123D01*
X127000938Y-84246625D01*
X126956623Y-84285489D01*
X126899366Y-84299500D01*
X123011697Y-84299500D01*
X122945987Y-84280658D01*
X122900246Y-84229858D01*
X122888376Y-84162541D01*
X122905460Y-84000000D01*
X122885674Y-83811744D01*
X122834476Y-83654173D01*
X122827179Y-83631715D01*
X122732533Y-83467783D01*
X122605870Y-83327110D01*
X122452730Y-83215848D01*
X122284809Y-83141084D01*
X122247564Y-83115486D01*
X122202262Y-83070184D01*
X122169850Y-83049818D01*
X122158510Y-83041772D01*
X122128586Y-83017908D01*
X122094095Y-83001298D01*
X122081933Y-82994576D01*
X122066327Y-82984770D01*
X122049520Y-82974209D01*
X122013398Y-82961570D01*
X122000553Y-82956250D01*
X121966058Y-82939638D01*
X121928736Y-82931119D01*
X121915380Y-82927272D01*
X121879252Y-82914631D01*
X121841219Y-82910345D01*
X121827518Y-82908017D01*
X121790196Y-82899500D01*
X121790194Y-82899500D01*
X121744954Y-82899500D01*
X120900900Y-82899500D01*
X120833861Y-82879815D01*
X120733158Y-82815097D01*
X120602371Y-82755368D01*
X120534773Y-82730156D01*
X120464275Y-82714819D01*
X120321960Y-82694357D01*
X120250000Y-82689210D01*
X120186606Y-82693745D01*
X120182525Y-82694037D01*
X120173680Y-82694353D01*
X119826320Y-82694353D01*
X119817474Y-82694037D01*
X119813099Y-82693724D01*
X119749999Y-82689210D01*
X119678039Y-82694357D01*
X119535724Y-82714819D01*
X119465226Y-82730156D01*
X119397628Y-82755368D01*
X119266841Y-82815097D01*
X119166139Y-82879815D01*
X119099100Y-82899500D01*
X116670654Y-82899500D01*
X116613397Y-82885489D01*
X116569079Y-82846623D01*
X116547004Y-82815097D01*
X116461598Y-82693123D01*
X116306877Y-82538402D01*
X116127639Y-82412898D01*
X116024949Y-82365013D01*
X115929331Y-82320425D01*
X115717974Y-82263792D01*
X115500000Y-82244722D01*
X115282025Y-82263792D01*
X115070668Y-82320425D01*
X114872361Y-82412898D01*
X114693122Y-82538402D01*
X114538402Y-82693122D01*
X114412898Y-82872361D01*
X114320425Y-83070668D01*
X114263792Y-83282025D01*
X114244722Y-83500000D01*
X114249594Y-83555685D01*
X114242588Y-83608903D01*
X114213747Y-83654173D01*
X113204741Y-84663181D01*
X113164513Y-84690061D01*
X113117060Y-84699500D01*
X111409798Y-84699500D01*
X111349366Y-84683777D01*
X111304259Y-84640596D01*
X111267711Y-84581342D01*
X111143657Y-84457288D01*
X110994334Y-84365186D01*
X110827797Y-84310000D01*
X110730980Y-84300110D01*
X110725008Y-84299500D01*
X110099991Y-84299500D01*
X109997203Y-84310000D01*
X109830665Y-84365186D01*
X109681342Y-84457288D01*
X109587681Y-84550950D01*
X109532094Y-84583044D01*
X109467906Y-84583044D01*
X109412319Y-84550950D01*
X109318657Y-84457288D01*
X109169334Y-84365186D01*
X109002797Y-84310000D01*
X108905980Y-84300110D01*
X108900008Y-84299500D01*
X108274991Y-84299500D01*
X108172203Y-84310000D01*
X108005665Y-84365186D01*
X107856342Y-84457288D01*
X107732288Y-84581342D01*
X107695741Y-84640596D01*
X107650634Y-84683777D01*
X107590202Y-84699500D01*
X106930535Y-84699500D01*
X106883082Y-84690061D01*
X106842854Y-84663181D01*
X106730393Y-84550720D01*
X106648974Y-84500500D01*
X106587287Y-84462451D01*
X106587286Y-84462450D01*
X106587285Y-84462450D01*
X106427685Y-84409563D01*
X106329174Y-84399500D01*
X105795826Y-84399500D01*
X105697314Y-84409563D01*
X105537714Y-84462450D01*
X105394606Y-84550720D01*
X105275720Y-84669606D01*
X105187450Y-84812714D01*
X105134563Y-84972314D01*
X105124500Y-85070826D01*
X105124500Y-85929174D01*
X105134563Y-86027685D01*
X105187450Y-86187285D01*
X105187451Y-86187287D01*
X105210837Y-86225202D01*
X105254088Y-86295323D01*
X105275719Y-86330391D01*
X105357647Y-86412319D01*
X105389740Y-86467905D01*
X105389740Y-86532092D01*
X105357647Y-86587680D01*
X105275719Y-86669608D01*
X105187450Y-86812714D01*
X105134563Y-86972314D01*
X105124500Y-87070826D01*
X105124500Y-87929174D01*
X105134563Y-88027685D01*
X105187450Y-88187285D01*
X105187451Y-88187287D01*
X105218853Y-88238198D01*
X105275720Y-88330393D01*
X105394606Y-88449279D01*
X105394608Y-88449280D01*
X105394609Y-88449281D01*
X105537713Y-88537549D01*
X105613493Y-88562660D01*
X105697314Y-88590436D01*
X105795826Y-88600500D01*
X106329174Y-88600500D01*
X106427685Y-88590436D01*
X106450397Y-88582910D01*
X106587287Y-88537549D01*
X106730391Y-88449281D01*
X106782769Y-88396903D01*
X106842854Y-88336819D01*
X106883082Y-88309939D01*
X106930535Y-88300500D01*
X107590202Y-88300500D01*
X107650634Y-88316223D01*
X107695741Y-88359404D01*
X107732288Y-88418657D01*
X107856342Y-88542711D01*
X107874445Y-88553877D01*
X108005666Y-88634814D01*
X108117017Y-88671712D01*
X108172202Y-88689999D01*
X108181729Y-88690972D01*
X108274991Y-88700500D01*
X108900008Y-88700499D01*
X109002797Y-88689999D01*
X109169334Y-88634814D01*
X109318656Y-88542712D01*
X109412320Y-88449047D01*
X109467906Y-88416955D01*
X109532094Y-88416955D01*
X109587679Y-88449047D01*
X109637443Y-88498811D01*
X109681345Y-88542713D01*
X109746516Y-88582910D01*
X109830666Y-88634814D01*
X109942017Y-88671712D01*
X109997202Y-88689999D01*
X110006729Y-88690972D01*
X110099991Y-88700500D01*
X110725008Y-88700499D01*
X110827797Y-88689999D01*
X110994334Y-88634814D01*
X111143656Y-88542712D01*
X111267712Y-88418656D01*
X111292745Y-88378070D01*
X111304259Y-88359404D01*
X111349366Y-88316223D01*
X111409798Y-88300500D01*
X117147060Y-88300500D01*
X117194513Y-88309939D01*
X117234741Y-88336819D01*
X120993181Y-92095259D01*
X121020061Y-92135487D01*
X121029500Y-92182940D01*
X121029500Y-93437869D01*
X121035909Y-93497484D01*
X121081156Y-93618796D01*
X121086204Y-93632331D01*
X121133947Y-93696107D01*
X121155845Y-93744057D01*
X121155845Y-93796773D01*
X121133946Y-93844726D01*
X121086648Y-93907908D01*
X121036402Y-94042624D01*
X121030000Y-94102176D01*
X121030000Y-94790000D01*
X122656000Y-94790000D01*
X122718000Y-94806613D01*
X122763387Y-94852000D01*
X122780000Y-94914000D01*
X122780000Y-95166000D01*
X122763387Y-95228000D01*
X122718000Y-95273387D01*
X122656000Y-95290000D01*
X121030000Y-95290000D01*
X121030000Y-95977824D01*
X121036402Y-96037375D01*
X121086647Y-96172088D01*
X121133946Y-96235271D01*
X121155845Y-96283223D01*
X121155845Y-96335939D01*
X121133947Y-96383892D01*
X121086204Y-96447669D01*
X121035910Y-96582515D01*
X121035909Y-96582517D01*
X121032005Y-96618833D01*
X121029500Y-96642130D01*
X121029500Y-98517869D01*
X121035909Y-98577484D01*
X121043549Y-98597968D01*
X121086204Y-98712331D01*
X121172454Y-98827546D01*
X121287669Y-98913796D01*
X121422517Y-98964091D01*
X121482127Y-98970500D01*
X123577872Y-98970499D01*
X123637483Y-98964091D01*
X123772331Y-98913796D01*
X123887546Y-98827546D01*
X123973796Y-98712331D01*
X124024091Y-98577483D01*
X124030500Y-98517873D01*
X124030500Y-98504500D01*
X124047113Y-98442500D01*
X124092500Y-98397113D01*
X124154500Y-98380500D01*
X124785663Y-98380500D01*
X124833116Y-98389939D01*
X124873344Y-98416819D01*
X124958123Y-98501598D01*
X125137361Y-98627102D01*
X125335670Y-98719575D01*
X125547023Y-98776207D01*
X125765000Y-98795277D01*
X125982977Y-98776207D01*
X126194330Y-98719575D01*
X126392639Y-98627102D01*
X126571877Y-98501598D01*
X126696656Y-98376819D01*
X126736884Y-98349939D01*
X126784337Y-98340500D01*
X127614874Y-98340500D01*
X127675306Y-98356223D01*
X127720413Y-98399404D01*
X127732288Y-98418657D01*
X127856342Y-98542711D01*
X127908691Y-98575000D01*
X128005666Y-98634814D01*
X128117017Y-98671712D01*
X128172202Y-98689999D01*
X128181729Y-98690972D01*
X128274991Y-98700500D01*
X128900008Y-98700499D01*
X129002797Y-98689999D01*
X129169334Y-98634814D01*
X129318656Y-98542712D01*
X129412320Y-98449047D01*
X129467906Y-98416955D01*
X129532094Y-98416955D01*
X129587679Y-98449047D01*
X129639132Y-98500500D01*
X129681345Y-98542713D01*
X129733691Y-98575000D01*
X129830666Y-98634814D01*
X129942017Y-98671712D01*
X129997202Y-98689999D01*
X130006729Y-98690972D01*
X130099991Y-98700500D01*
X130725008Y-98700499D01*
X130827797Y-98689999D01*
X130994334Y-98634814D01*
X131143656Y-98542712D01*
X131143657Y-98542710D01*
X131149550Y-98536819D01*
X131189778Y-98509939D01*
X131237231Y-98500500D01*
X133709583Y-98500500D01*
X133746870Y-98506239D01*
X133780706Y-98522925D01*
X133872359Y-98587101D01*
X133872360Y-98587101D01*
X133872361Y-98587102D01*
X134070670Y-98679575D01*
X134282023Y-98736207D01*
X134500000Y-98755277D01*
X134717977Y-98736207D01*
X134929330Y-98679575D01*
X135127639Y-98587102D01*
X135306877Y-98461598D01*
X135431656Y-98336819D01*
X135471884Y-98309939D01*
X135519337Y-98300500D01*
X135752702Y-98300500D01*
X135813134Y-98316223D01*
X135858241Y-98359404D01*
X135894788Y-98418657D01*
X136018842Y-98542711D01*
X136071191Y-98575000D01*
X136168166Y-98634814D01*
X136279517Y-98671712D01*
X136334702Y-98689999D01*
X136344229Y-98690972D01*
X136437491Y-98700500D01*
X137062508Y-98700499D01*
X137165297Y-98689999D01*
X137331834Y-98634814D01*
X137481156Y-98542712D01*
X137574820Y-98449047D01*
X137630406Y-98416955D01*
X137694594Y-98416955D01*
X137750179Y-98449047D01*
X137801632Y-98500500D01*
X137843845Y-98542713D01*
X137896191Y-98575000D01*
X137993166Y-98634814D01*
X138104517Y-98671712D01*
X138159702Y-98689999D01*
X138169229Y-98690972D01*
X138262491Y-98700500D01*
X138887508Y-98700499D01*
X138990297Y-98689999D01*
X139156834Y-98634814D01*
X139306156Y-98542712D01*
X139430212Y-98418656D01*
X139466758Y-98359404D01*
X139511866Y-98316223D01*
X139572298Y-98300500D01*
X139648561Y-98300500D01*
X139697374Y-98310512D01*
X139738304Y-98338930D01*
X139764741Y-98381165D01*
X139806204Y-98492331D01*
X139892454Y-98607546D01*
X140007669Y-98693796D01*
X140142517Y-98744091D01*
X140202127Y-98750500D01*
X141297872Y-98750499D01*
X141357483Y-98744091D01*
X141357487Y-98744089D01*
X141357770Y-98744059D01*
X141400713Y-98736311D01*
X141438853Y-98743192D01*
X141502176Y-98750000D01*
X141800000Y-98750000D01*
X141800000Y-97750000D01*
X142300000Y-97750000D01*
X142300000Y-98750000D01*
X142597824Y-98750000D01*
X142657375Y-98743597D01*
X142792089Y-98693352D01*
X142907188Y-98607188D01*
X142931284Y-98575000D01*
X155300001Y-98575000D01*
X155300001Y-98637479D01*
X155310493Y-98740195D01*
X155365642Y-98906622D01*
X155457683Y-99055845D01*
X155581654Y-99179816D01*
X155730877Y-99271857D01*
X155897303Y-99327006D01*
X156000021Y-99337500D01*
X156250000Y-99337500D01*
X156250000Y-98575000D01*
X156750000Y-98575000D01*
X156750000Y-99337499D01*
X156999979Y-99337499D01*
X157102695Y-99327006D01*
X157269123Y-99271857D01*
X157381784Y-99202367D01*
X157433680Y-99184610D01*
X157488160Y-99190977D01*
X157534562Y-99220224D01*
X157556654Y-99242316D01*
X157705877Y-99334357D01*
X157872303Y-99389506D01*
X157975021Y-99400000D01*
X158250000Y-99400000D01*
X158250000Y-98650000D01*
X158750000Y-98650000D01*
X158750000Y-99399999D01*
X159024979Y-99399999D01*
X159127695Y-99389506D01*
X159294122Y-99334357D01*
X159443345Y-99242316D01*
X159567316Y-99118345D01*
X159659357Y-98969122D01*
X159714506Y-98802696D01*
X159725000Y-98699979D01*
X159725000Y-98650000D01*
X158750000Y-98650000D01*
X158250000Y-98650000D01*
X157359000Y-98650000D01*
X157297000Y-98633387D01*
X157273125Y-98609512D01*
X157271319Y-98611319D01*
X157235000Y-98575000D01*
X156750000Y-98575000D01*
X156250000Y-98575000D01*
X155300001Y-98575000D01*
X142931284Y-98575000D01*
X142993352Y-98492089D01*
X143043597Y-98357375D01*
X143050000Y-98297824D01*
X143050000Y-97750000D01*
X142300000Y-97750000D01*
X141800000Y-97750000D01*
X141800000Y-96250000D01*
X142300000Y-96250000D01*
X142300000Y-97250000D01*
X143050000Y-97250000D01*
X143050000Y-96702176D01*
X143043597Y-96642624D01*
X142993352Y-96507910D01*
X142907188Y-96392811D01*
X142792089Y-96306647D01*
X142657375Y-96256402D01*
X142597824Y-96250000D01*
X142300000Y-96250000D01*
X141800000Y-96250000D01*
X141502176Y-96250000D01*
X141438864Y-96256806D01*
X141400712Y-96263688D01*
X141357755Y-96255938D01*
X141336064Y-96253606D01*
X141297873Y-96249500D01*
X141297869Y-96249500D01*
X140202130Y-96249500D01*
X140142515Y-96255909D01*
X140025643Y-96299500D01*
X140007669Y-96306204D01*
X139892454Y-96392454D01*
X139806204Y-96507669D01*
X139778289Y-96582515D01*
X139764743Y-96618833D01*
X139738304Y-96661070D01*
X139697374Y-96689488D01*
X139648561Y-96699500D01*
X139572298Y-96699500D01*
X139511866Y-96683777D01*
X139466759Y-96640596D01*
X139430211Y-96581342D01*
X139306157Y-96457288D01*
X139156834Y-96365186D01*
X138990297Y-96310000D01*
X138887509Y-96299500D01*
X138416519Y-96299500D01*
X138369066Y-96290061D01*
X138328838Y-96263181D01*
X137587940Y-95522283D01*
X137582822Y-95516847D01*
X137542929Y-95471817D01*
X137535007Y-95466349D01*
X137499860Y-95442088D01*
X137493432Y-95437651D01*
X137487405Y-95433216D01*
X137440054Y-95396120D01*
X137430813Y-95391961D01*
X137411273Y-95380941D01*
X137402930Y-95375182D01*
X137402927Y-95375181D01*
X137402926Y-95375180D01*
X137346701Y-95353856D01*
X137339783Y-95350991D01*
X137284929Y-95326303D01*
X137274952Y-95324475D01*
X137253339Y-95318450D01*
X137243873Y-95314860D01*
X137184172Y-95307610D01*
X137176771Y-95306483D01*
X137117607Y-95295641D01*
X137057566Y-95299274D01*
X137050079Y-95299500D01*
X136108156Y-95299500D01*
X136069838Y-95293431D01*
X136035270Y-95275818D01*
X136028783Y-95271105D01*
X135952730Y-95215849D01*
X135952729Y-95215848D01*
X135952727Y-95215847D01*
X135779802Y-95138855D01*
X135594648Y-95099500D01*
X135594646Y-95099500D01*
X135405354Y-95099500D01*
X135405353Y-95099500D01*
X135350281Y-95111206D01*
X135295553Y-95110490D01*
X135246464Y-95086282D01*
X135212579Y-95043299D01*
X135200500Y-94989916D01*
X135200500Y-94100000D01*
X147637501Y-94100000D01*
X147637501Y-94149979D01*
X147647993Y-94252695D01*
X147703142Y-94419122D01*
X147795183Y-94568345D01*
X147919154Y-94692316D01*
X148068377Y-94784357D01*
X148234803Y-94839506D01*
X148337521Y-94850000D01*
X148612500Y-94850000D01*
X148612500Y-94100000D01*
X149112500Y-94100000D01*
X149112500Y-94849999D01*
X149387479Y-94849999D01*
X149490195Y-94839506D01*
X149656622Y-94784357D01*
X149805845Y-94692316D01*
X149929816Y-94568345D01*
X150021857Y-94419122D01*
X150077006Y-94252696D01*
X150087500Y-94149979D01*
X150087500Y-94100000D01*
X149112500Y-94100000D01*
X148612500Y-94100000D01*
X147637501Y-94100000D01*
X135200500Y-94100000D01*
X135200500Y-92132000D01*
X135217113Y-92070000D01*
X135262500Y-92024613D01*
X135324500Y-92008000D01*
X136247846Y-92007999D01*
X136247872Y-92007999D01*
X136307483Y-92001591D01*
X136442331Y-91951296D01*
X136526956Y-91887945D01*
X136562109Y-91869558D01*
X136601268Y-91863212D01*
X143900500Y-91863212D01*
X143962500Y-91879825D01*
X144007887Y-91925212D01*
X144024500Y-91987212D01*
X144024500Y-92450008D01*
X144035000Y-92552796D01*
X144090186Y-92719334D01*
X144182288Y-92868657D01*
X144306342Y-92992711D01*
X144362895Y-93027592D01*
X144455666Y-93084814D01*
X144567016Y-93121712D01*
X144622202Y-93139999D01*
X144631729Y-93140972D01*
X144724991Y-93150500D01*
X145350008Y-93150499D01*
X145452797Y-93139999D01*
X145619334Y-93084814D01*
X145768656Y-92992712D01*
X145862320Y-92899047D01*
X145917906Y-92866955D01*
X145982094Y-92866955D01*
X146037679Y-92899047D01*
X146089131Y-92950499D01*
X146131345Y-92992713D01*
X146193040Y-93030766D01*
X146280666Y-93084814D01*
X146392016Y-93121712D01*
X146447202Y-93139999D01*
X146456729Y-93140972D01*
X146549991Y-93150500D01*
X147175008Y-93150499D01*
X147277797Y-93139999D01*
X147444334Y-93084814D01*
X147553760Y-93017319D01*
X147605993Y-92985103D01*
X147606171Y-92985393D01*
X147644027Y-92962545D01*
X147703457Y-92959082D01*
X147757652Y-92983714D01*
X147794122Y-93030766D01*
X147804461Y-93089392D01*
X147786285Y-93146080D01*
X147703142Y-93280877D01*
X147647993Y-93447303D01*
X147637500Y-93550021D01*
X147637500Y-93600000D01*
X150003500Y-93600000D01*
X150065500Y-93616613D01*
X150110887Y-93662000D01*
X150115431Y-93678961D01*
X150118061Y-93677873D01*
X150127499Y-93700660D01*
X150169157Y-93742318D01*
X150318377Y-93834357D01*
X150484803Y-93889506D01*
X150587521Y-93900000D01*
X150862500Y-93900000D01*
X150862500Y-93150000D01*
X151362500Y-93150000D01*
X151362500Y-93899999D01*
X151637479Y-93899999D01*
X151740195Y-93889506D01*
X151906622Y-93834357D01*
X152055845Y-93742316D01*
X152179816Y-93618345D01*
X152271857Y-93469122D01*
X152327006Y-93302696D01*
X152337500Y-93199979D01*
X152337500Y-93150000D01*
X151362500Y-93150000D01*
X150862500Y-93150000D01*
X150862500Y-92774000D01*
X150879113Y-92712000D01*
X150924500Y-92666613D01*
X150986500Y-92650000D01*
X152330685Y-92650000D01*
X152393806Y-92667268D01*
X152452102Y-92701744D01*
X152609927Y-92747597D01*
X152609931Y-92747598D01*
X152646806Y-92750500D01*
X153803192Y-92750500D01*
X153803194Y-92750500D01*
X153840069Y-92747598D01*
X153997898Y-92701744D01*
X154139365Y-92618081D01*
X154255581Y-92501865D01*
X154255767Y-92501549D01*
X154264066Y-92493379D01*
X154266658Y-92490788D01*
X154266678Y-92490808D01*
X154301062Y-92456959D01*
X154362500Y-92440669D01*
X154423938Y-92456959D01*
X154458321Y-92490808D01*
X154458342Y-92490788D01*
X154460933Y-92493379D01*
X154469232Y-92501549D01*
X154469419Y-92501865D01*
X154585635Y-92618081D01*
X154668806Y-92667268D01*
X154727102Y-92701744D01*
X154884927Y-92747597D01*
X154884931Y-92747598D01*
X154921806Y-92750500D01*
X156078192Y-92750500D01*
X156078194Y-92750500D01*
X156115069Y-92747598D01*
X156272898Y-92701744D01*
X156414365Y-92618081D01*
X156530581Y-92501865D01*
X156614244Y-92360398D01*
X156660098Y-92202569D01*
X156663000Y-92165694D01*
X156663000Y-92122918D01*
X156672439Y-92075465D01*
X156699316Y-92035239D01*
X156835027Y-91899529D01*
X156875253Y-91872652D01*
X156922706Y-91863213D01*
X157196118Y-91863213D01*
X157261396Y-91881786D01*
X157307119Y-91931942D01*
X157317713Y-91988622D01*
X157318404Y-91988559D01*
X157319094Y-91996008D01*
X157319589Y-91998655D01*
X157319464Y-92000000D01*
X157339564Y-92216925D01*
X157399181Y-92426457D01*
X157496287Y-92621471D01*
X157627573Y-92795323D01*
X157751572Y-92908362D01*
X157787300Y-92966064D01*
X157787301Y-93033933D01*
X157751573Y-93091636D01*
X157627571Y-93204679D01*
X157496287Y-93378528D01*
X157399181Y-93573542D01*
X157339564Y-93783074D01*
X157319464Y-94000000D01*
X157339564Y-94216925D01*
X157399181Y-94426457D01*
X157496287Y-94621471D01*
X157627573Y-94795322D01*
X157659037Y-94824005D01*
X157688934Y-94865556D01*
X157699500Y-94915643D01*
X157699500Y-95499782D01*
X157683777Y-95560215D01*
X157640595Y-95605322D01*
X157562361Y-95653575D01*
X157510465Y-95671331D01*
X157455986Y-95664962D01*
X157432408Y-95650101D01*
X157430993Y-95652397D01*
X157269334Y-95552686D01*
X157102797Y-95497500D01*
X157000009Y-95487000D01*
X155999991Y-95487000D01*
X155897203Y-95497500D01*
X155730665Y-95552686D01*
X155581342Y-95644788D01*
X155457288Y-95768842D01*
X155365186Y-95918165D01*
X155310000Y-96084702D01*
X155299500Y-96187491D01*
X155299500Y-96812508D01*
X155310000Y-96915296D01*
X155365186Y-97081834D01*
X155457288Y-97231157D01*
X155551303Y-97325172D01*
X155583397Y-97380759D01*
X155583397Y-97444946D01*
X155551304Y-97500534D01*
X155457681Y-97594156D01*
X155365642Y-97743377D01*
X155310493Y-97909803D01*
X155300000Y-98012521D01*
X155300000Y-98075000D01*
X157616000Y-98075000D01*
X157678000Y-98091613D01*
X157701874Y-98115487D01*
X157703681Y-98113681D01*
X157740000Y-98150000D01*
X159724999Y-98150000D01*
X159724999Y-98100021D01*
X159714506Y-97997304D01*
X159659357Y-97830877D01*
X159567316Y-97681654D01*
X159443344Y-97557682D01*
X159440343Y-97555831D01*
X159397161Y-97510723D01*
X159381440Y-97450289D01*
X159397166Y-97389856D01*
X159440347Y-97344752D01*
X159443656Y-97342712D01*
X159567712Y-97218656D01*
X159659814Y-97069334D01*
X159714999Y-96902797D01*
X159725500Y-96800009D01*
X159725499Y-96199992D01*
X159714999Y-96097203D01*
X159659814Y-95930666D01*
X159577715Y-95797562D01*
X159567711Y-95781342D01*
X159443657Y-95657288D01*
X159359404Y-95605321D01*
X159316223Y-95560214D01*
X159300500Y-95499782D01*
X159300500Y-94915643D01*
X159311066Y-94865556D01*
X159340963Y-94824005D01*
X159360041Y-94806613D01*
X159372427Y-94795322D01*
X159503712Y-94621472D01*
X159600817Y-94426459D01*
X159608090Y-94400897D01*
X159660435Y-94216925D01*
X159668408Y-94130877D01*
X159680536Y-94000000D01*
X159662646Y-93806937D01*
X159660435Y-93783074D01*
X159600818Y-93573542D01*
X159503712Y-93378528D01*
X159372426Y-93204676D01*
X159248427Y-93091637D01*
X159212699Y-93033934D01*
X159212699Y-92966066D01*
X159248427Y-92908363D01*
X159372426Y-92795323D01*
X159387187Y-92775776D01*
X159503712Y-92621472D01*
X159600817Y-92426459D01*
X159601648Y-92423540D01*
X159660435Y-92216925D01*
X159671413Y-92098449D01*
X159680536Y-92000000D01*
X159664807Y-91830260D01*
X159660435Y-91783074D01*
X159600818Y-91573542D01*
X159503712Y-91378528D01*
X159372426Y-91204676D01*
X159248427Y-91091637D01*
X159212699Y-91033934D01*
X159212699Y-90966066D01*
X159248427Y-90908363D01*
X159372426Y-90795323D01*
X159372427Y-90795322D01*
X159503712Y-90621472D01*
X159600817Y-90426459D01*
X159601338Y-90424628D01*
X159660435Y-90216925D01*
X159663577Y-90183008D01*
X159680536Y-90000000D01*
X159662581Y-89806237D01*
X159660435Y-89783074D01*
X159600818Y-89573542D01*
X159503712Y-89378528D01*
X159372426Y-89204676D01*
X159248427Y-89091636D01*
X159212698Y-89033933D01*
X159212699Y-88966064D01*
X159248424Y-88908364D01*
X159372427Y-88795322D01*
X159503712Y-88621472D01*
X159600817Y-88426459D01*
X159603037Y-88418657D01*
X159660435Y-88216925D01*
X159663349Y-88185467D01*
X159680536Y-88000000D01*
X159665149Y-87833948D01*
X159660435Y-87783074D01*
X159600818Y-87573542D01*
X159503712Y-87378528D01*
X159452558Y-87310789D01*
X159421950Y-87270258D01*
X159397824Y-87210598D01*
X159406848Y-87146879D01*
X159446594Y-87096265D01*
X159532188Y-87032188D01*
X159618352Y-86917089D01*
X159668597Y-86782375D01*
X159675000Y-86722824D01*
X159675000Y-86250000D01*
X157325000Y-86250000D01*
X157325000Y-86722824D01*
X157331402Y-86782375D01*
X157349973Y-86832166D01*
X157356824Y-86890953D01*
X157335647Y-86946220D01*
X157291266Y-86985376D01*
X157233791Y-86999500D01*
X155624500Y-86999500D01*
X155562500Y-86982887D01*
X155517113Y-86937500D01*
X155500500Y-86875500D01*
X155500500Y-85750000D01*
X157325000Y-85750000D01*
X158250000Y-85750000D01*
X158250000Y-84825000D01*
X158750000Y-84825000D01*
X158750000Y-85750000D01*
X159675000Y-85750000D01*
X159675000Y-85277176D01*
X159668597Y-85217624D01*
X159618352Y-85082910D01*
X159532188Y-84967811D01*
X159417089Y-84881647D01*
X159282375Y-84831402D01*
X159222824Y-84825000D01*
X158750000Y-84825000D01*
X158250000Y-84825000D01*
X157777176Y-84825000D01*
X157717624Y-84831402D01*
X157582910Y-84881647D01*
X157467811Y-84967811D01*
X157381647Y-85082910D01*
X157331402Y-85217624D01*
X157325000Y-85277176D01*
X157325000Y-85750000D01*
X155500500Y-85750000D01*
X155500500Y-84624500D01*
X155517113Y-84562500D01*
X155562500Y-84517113D01*
X155624500Y-84500500D01*
X155974991Y-84500500D01*
X156398259Y-84500500D01*
X156550742Y-84500500D01*
X157871317Y-84500500D01*
X157883919Y-84501142D01*
X157897203Y-84502499D01*
X157999991Y-84513000D01*
X159000008Y-84512999D01*
X159102797Y-84502499D01*
X159269334Y-84447314D01*
X159418656Y-84355212D01*
X159542712Y-84231156D01*
X159634814Y-84081834D01*
X159689999Y-83915297D01*
X159700500Y-83812509D01*
X159700499Y-83187492D01*
X159699393Y-83176669D01*
X159689999Y-83084703D01*
X159675773Y-83041772D01*
X159634814Y-82918166D01*
X159569771Y-82812714D01*
X159542711Y-82768842D01*
X159449049Y-82675180D01*
X159416955Y-82619592D01*
X159416955Y-82555405D01*
X159449048Y-82499819D01*
X159542712Y-82406156D01*
X159634814Y-82256834D01*
X159689999Y-82090297D01*
X159700500Y-81987509D01*
X159700499Y-81362492D01*
X159689999Y-81259703D01*
X159634814Y-81093166D01*
X159542712Y-80943844D01*
X159542711Y-80943842D01*
X159418657Y-80819788D01*
X159359404Y-80783241D01*
X159316223Y-80738134D01*
X159300500Y-80677702D01*
X159300500Y-79144807D01*
X159299880Y-79142089D01*
X159291981Y-79107481D01*
X159289653Y-79093776D01*
X159285368Y-79055745D01*
X159272725Y-79019613D01*
X159268881Y-79006276D01*
X159260360Y-78968939D01*
X159254933Y-78957669D01*
X159243748Y-78934441D01*
X159238428Y-78921597D01*
X159225790Y-78885480D01*
X159205425Y-78853069D01*
X159198699Y-78840899D01*
X159196169Y-78835645D01*
X159182092Y-78806414D01*
X159166127Y-78786394D01*
X159158224Y-78776483D01*
X159150179Y-78765145D01*
X159129815Y-78732737D01*
X158690034Y-78292956D01*
X158661291Y-78247953D01*
X158654139Y-78195035D01*
X158655619Y-78177182D01*
X158670300Y-78000000D01*
X158651134Y-77768695D01*
X158594157Y-77543700D01*
X158500924Y-77331151D01*
X158373979Y-77136847D01*
X158216784Y-76966087D01*
X158033626Y-76823530D01*
X157829503Y-76713064D01*
X157829499Y-76713062D01*
X157829498Y-76713062D01*
X157609984Y-76637702D01*
X157422410Y-76606402D01*
X157381049Y-76599500D01*
X157148951Y-76599500D01*
X157107590Y-76606402D01*
X156920015Y-76637702D01*
X156700501Y-76713062D01*
X156700497Y-76713063D01*
X156700497Y-76713064D01*
X156588391Y-76773733D01*
X156496372Y-76823531D01*
X156313214Y-76966088D01*
X156304485Y-76975571D01*
X156251861Y-77009424D01*
X156189407Y-77013271D01*
X156133026Y-76986133D01*
X156097075Y-76934919D01*
X156068352Y-76857911D01*
X155982188Y-76742811D01*
X155867089Y-76656647D01*
X155732375Y-76606402D01*
X155672824Y-76600000D01*
X154975000Y-76600000D01*
X154975000Y-79400000D01*
X155672824Y-79400000D01*
X155732375Y-79393597D01*
X155867089Y-79343352D01*
X155982188Y-79257188D01*
X156068352Y-79142088D01*
X156097075Y-79065080D01*
X156133027Y-79013866D01*
X156189409Y-78986728D01*
X156251864Y-78990576D01*
X156304487Y-79024431D01*
X156313212Y-79033910D01*
X156313216Y-79033913D01*
X156496374Y-79176470D01*
X156700497Y-79286936D01*
X156810258Y-79324617D01*
X156920015Y-79362297D01*
X156920017Y-79362297D01*
X156920019Y-79362298D01*
X157148951Y-79400500D01*
X157381049Y-79400500D01*
X157381051Y-79400500D01*
X157407732Y-79396047D01*
X157448673Y-79389215D01*
X157506912Y-79393434D01*
X157556764Y-79423842D01*
X157663181Y-79530259D01*
X157690061Y-79570487D01*
X157699500Y-79617940D01*
X157699500Y-80677702D01*
X157683777Y-80738135D01*
X157640594Y-80783242D01*
X157617848Y-80797271D01*
X157565952Y-80815027D01*
X157511473Y-80808658D01*
X157465071Y-80779411D01*
X157443341Y-80757681D01*
X157294122Y-80665642D01*
X157127696Y-80610493D01*
X157024979Y-80600000D01*
X156750000Y-80600000D01*
X156750000Y-81726000D01*
X156733387Y-81788000D01*
X156688000Y-81833387D01*
X156626000Y-81850000D01*
X153275001Y-81850000D01*
X153275001Y-81899979D01*
X153285493Y-82002695D01*
X153340642Y-82169122D01*
X153427785Y-82310404D01*
X153446217Y-82372796D01*
X153430523Y-82435932D01*
X153385025Y-82482434D01*
X153322246Y-82499500D01*
X153182519Y-82499500D01*
X153117422Y-82481038D01*
X153087289Y-82462451D01*
X152927685Y-82409563D01*
X152829174Y-82399500D01*
X152295826Y-82399500D01*
X152197314Y-82409563D01*
X152037714Y-82462450D01*
X151894606Y-82550720D01*
X151775720Y-82669606D01*
X151687450Y-82812714D01*
X151634563Y-82972314D01*
X151624500Y-83070826D01*
X151624500Y-83115394D01*
X151620543Y-83146469D01*
X151619543Y-83150332D01*
X151591513Y-83202381D01*
X151542570Y-83235537D01*
X151483837Y-83242264D01*
X151428664Y-83221033D01*
X151389592Y-83176669D01*
X151375500Y-83119257D01*
X151375500Y-83070826D01*
X151365436Y-82972314D01*
X151332314Y-82872361D01*
X151312549Y-82812713D01*
X151224281Y-82669609D01*
X151224280Y-82669608D01*
X151224279Y-82669606D01*
X151105393Y-82550720D01*
X150962285Y-82462450D01*
X150802685Y-82409563D01*
X150704174Y-82399500D01*
X150170826Y-82399500D01*
X150072314Y-82409563D01*
X149912710Y-82462451D01*
X149882578Y-82481038D01*
X149817481Y-82499500D01*
X149677754Y-82499500D01*
X149614975Y-82482434D01*
X149569477Y-82435932D01*
X149553783Y-82372796D01*
X149572215Y-82310404D01*
X149659357Y-82169122D01*
X149714506Y-82002696D01*
X149725000Y-81899979D01*
X149725000Y-81850000D01*
X147275001Y-81850000D01*
X147275001Y-81899979D01*
X147285493Y-82002695D01*
X147340642Y-82169122D01*
X147427785Y-82310404D01*
X147446217Y-82372796D01*
X147430523Y-82435932D01*
X147385025Y-82482434D01*
X147322246Y-82499500D01*
X144624500Y-82499500D01*
X144562500Y-82482887D01*
X144517113Y-82437500D01*
X144500500Y-82375500D01*
X144500500Y-81350000D01*
X147275000Y-81350000D01*
X148250000Y-81350000D01*
X148250000Y-80600001D01*
X147975021Y-80600001D01*
X147872304Y-80610493D01*
X147705877Y-80665642D01*
X147556654Y-80757683D01*
X147432683Y-80881654D01*
X147340642Y-81030877D01*
X147285493Y-81197303D01*
X147275000Y-81300021D01*
X147275000Y-81350000D01*
X144500500Y-81350000D01*
X144500500Y-81337180D01*
X144513616Y-81281676D01*
X144550187Y-81237914D01*
X144657546Y-81157546D01*
X144743796Y-81042331D01*
X144794091Y-80907483D01*
X144800500Y-80847873D01*
X144800500Y-80600000D01*
X148750000Y-80600000D01*
X148750000Y-81350000D01*
X149724999Y-81350000D01*
X153275000Y-81350000D01*
X154250000Y-81350000D01*
X154250000Y-80600001D01*
X153975021Y-80600001D01*
X153872304Y-80610493D01*
X153705877Y-80665642D01*
X153556654Y-80757683D01*
X153432683Y-80881654D01*
X153340642Y-81030877D01*
X153285493Y-81197303D01*
X153275000Y-81300021D01*
X153275000Y-81350000D01*
X149724999Y-81350000D01*
X149724999Y-81300021D01*
X149714506Y-81197304D01*
X149659357Y-81030877D01*
X149567316Y-80881654D01*
X149443345Y-80757683D01*
X149294122Y-80665642D01*
X149127696Y-80610493D01*
X149024979Y-80600000D01*
X154750000Y-80600000D01*
X154750000Y-81350000D01*
X156250000Y-81350000D01*
X156250000Y-80600001D01*
X155975021Y-80600001D01*
X155872304Y-80610493D01*
X155705877Y-80665642D01*
X155565096Y-80752476D01*
X155500000Y-80770937D01*
X155434904Y-80752476D01*
X155294122Y-80665642D01*
X155127696Y-80610493D01*
X155024979Y-80600000D01*
X154750000Y-80600000D01*
X149024979Y-80600000D01*
X148750000Y-80600000D01*
X144800500Y-80600000D01*
X144800499Y-79152128D01*
X144794091Y-79092517D01*
X144743796Y-78957669D01*
X144657546Y-78842454D01*
X144648452Y-78835646D01*
X144609298Y-78786395D01*
X144599357Y-78724265D01*
X144621190Y-78665255D01*
X144630134Y-78652481D01*
X144726266Y-78446326D01*
X144778872Y-78250000D01*
X153325000Y-78250000D01*
X153325000Y-78947824D01*
X153331402Y-79007375D01*
X153381647Y-79142089D01*
X153467811Y-79257188D01*
X153582910Y-79343352D01*
X153717624Y-79393597D01*
X153777176Y-79400000D01*
X154475000Y-79400000D01*
X154475000Y-78250000D01*
X153325000Y-78250000D01*
X144778872Y-78250000D01*
X144785141Y-78226602D01*
X144804966Y-78000000D01*
X144785141Y-77773397D01*
X144778872Y-77750000D01*
X153325000Y-77750000D01*
X154475000Y-77750000D01*
X154475000Y-76600000D01*
X153777176Y-76600000D01*
X153717624Y-76606402D01*
X153582910Y-76656647D01*
X153467811Y-76742811D01*
X153381647Y-76857910D01*
X153331402Y-76992624D01*
X153325000Y-77052176D01*
X153325000Y-77750000D01*
X144778872Y-77750000D01*
X144726266Y-77553673D01*
X144630133Y-77347515D01*
X144579025Y-77274526D01*
X143587680Y-78265872D01*
X143532093Y-78297966D01*
X143467905Y-78297966D01*
X143412318Y-78265872D01*
X142420973Y-77274527D01*
X142369865Y-77347516D01*
X142273733Y-77553672D01*
X142214858Y-77773397D01*
X142195033Y-78000000D01*
X142214858Y-78226602D01*
X142273733Y-78446326D01*
X142369866Y-78652483D01*
X142378811Y-78665258D01*
X142400642Y-78724267D01*
X142390701Y-78786394D01*
X142351548Y-78835645D01*
X142342455Y-78842451D01*
X142256204Y-78957668D01*
X142200466Y-79107110D01*
X142199695Y-79106822D01*
X142185716Y-79145000D01*
X142141153Y-79185031D01*
X142083024Y-79199500D01*
X136882940Y-79199500D01*
X136835487Y-79190061D01*
X136795259Y-79163181D01*
X134553051Y-76920973D01*
X142774526Y-76920973D01*
X143500000Y-77646446D01*
X143500001Y-77646446D01*
X144225472Y-76920974D01*
X144225471Y-76920972D01*
X144152484Y-76869866D01*
X143946326Y-76773733D01*
X143726602Y-76714858D01*
X143500000Y-76695033D01*
X143273397Y-76714858D01*
X143053672Y-76773733D01*
X142847516Y-76869865D01*
X142774527Y-76920973D01*
X142774526Y-76920973D01*
X134553051Y-76920973D01*
X133536319Y-75904241D01*
X133509439Y-75864013D01*
X133500000Y-75816560D01*
X133500000Y-75124500D01*
X133516613Y-75062500D01*
X133562000Y-75017113D01*
X133624000Y-75000500D01*
X159875500Y-75000500D01*
X159937500Y-75017113D01*
X159982887Y-75062500D01*
X159999500Y-75124500D01*
X159999500Y-104875500D01*
X159982887Y-104937500D01*
X159937500Y-104982887D01*
X159875500Y-104999500D01*
X119374000Y-104999500D01*
X119312000Y-104982887D01*
X119266613Y-104937500D01*
X119250000Y-104875500D01*
X119250000Y-104482538D01*
X119268461Y-104417442D01*
X119301946Y-104363153D01*
X119359814Y-104269334D01*
X119414999Y-104102797D01*
X119425500Y-104000009D01*
X119425499Y-102999992D01*
X119414999Y-102897203D01*
X119359814Y-102730666D01*
X119267712Y-102581344D01*
X119267711Y-102581342D01*
X119249319Y-102562950D01*
X119222439Y-102522722D01*
X119213000Y-102475269D01*
X119213000Y-102322307D01*
X119213000Y-102322306D01*
X119204481Y-102284981D01*
X119202153Y-102271276D01*
X119199756Y-102250000D01*
X145875000Y-102250000D01*
X145875000Y-102897824D01*
X145881402Y-102957375D01*
X145931647Y-103092089D01*
X146017811Y-103207188D01*
X146132910Y-103293352D01*
X146267624Y-103343597D01*
X146327176Y-103350000D01*
X146975000Y-103350000D01*
X146975000Y-102250000D01*
X147475000Y-102250000D01*
X147475000Y-103350000D01*
X148122824Y-103350000D01*
X148182375Y-103343597D01*
X148317089Y-103293352D01*
X148432188Y-103207188D01*
X148518352Y-103092088D01*
X148567614Y-102960013D01*
X148602593Y-102909633D01*
X148657438Y-102882180D01*
X148718731Y-102884369D01*
X148771477Y-102915665D01*
X148893918Y-103038106D01*
X149087423Y-103173600D01*
X149301507Y-103273430D01*
X149514999Y-103330635D01*
X149515000Y-103330636D01*
X149515000Y-102250000D01*
X150015000Y-102250000D01*
X150015000Y-103330635D01*
X150228492Y-103273430D01*
X150442576Y-103173600D01*
X150636081Y-103038106D01*
X150803106Y-102871081D01*
X150938600Y-102677576D01*
X151038430Y-102463492D01*
X151095636Y-102250000D01*
X150015000Y-102250000D01*
X149515000Y-102250000D01*
X147475000Y-102250000D01*
X146975000Y-102250000D01*
X145875000Y-102250000D01*
X119199756Y-102250000D01*
X119197868Y-102233245D01*
X119185225Y-102197111D01*
X119181376Y-102183750D01*
X119172860Y-102146439D01*
X119156253Y-102111955D01*
X119150932Y-102099108D01*
X119138290Y-102062980D01*
X119117923Y-102030566D01*
X119111197Y-102018395D01*
X119102339Y-102000000D01*
X154644340Y-102000000D01*
X154664936Y-102235407D01*
X154698455Y-102360500D01*
X154726097Y-102463663D01*
X154825965Y-102677829D01*
X154961505Y-102871401D01*
X155128599Y-103038495D01*
X155322171Y-103174035D01*
X155536337Y-103273903D01*
X155748066Y-103330635D01*
X155764592Y-103335063D01*
X155941032Y-103350500D01*
X155941034Y-103350500D01*
X156058966Y-103350500D01*
X156058968Y-103350500D01*
X156176594Y-103340208D01*
X156235408Y-103335063D01*
X156463663Y-103273903D01*
X156677829Y-103174035D01*
X156871401Y-103038495D01*
X157038495Y-102871401D01*
X157174035Y-102677830D01*
X157273903Y-102463663D01*
X157335063Y-102235408D01*
X157355659Y-102000000D01*
X157335063Y-101764592D01*
X157273903Y-101536337D01*
X157174035Y-101322171D01*
X157038495Y-101128599D01*
X156871401Y-100961505D01*
X156677829Y-100825965D01*
X156463663Y-100726097D01*
X156235407Y-100664936D01*
X156058968Y-100649500D01*
X156058966Y-100649500D01*
X155941034Y-100649500D01*
X155941032Y-100649500D01*
X155764592Y-100664936D01*
X155536336Y-100726097D01*
X155322170Y-100825965D01*
X155128598Y-100961505D01*
X154961508Y-101128595D01*
X154825964Y-101322172D01*
X154726097Y-101536337D01*
X154664936Y-101764592D01*
X154644340Y-102000000D01*
X119102339Y-102000000D01*
X119094592Y-101983914D01*
X119070725Y-101953986D01*
X119062677Y-101942643D01*
X119042315Y-101910236D01*
X119004260Y-101872181D01*
X118974010Y-101822818D01*
X118969468Y-101765102D01*
X118991623Y-101711615D01*
X119035646Y-101674015D01*
X119091941Y-101660500D01*
X131336788Y-101660500D01*
X131375106Y-101666569D01*
X131409673Y-101684182D01*
X131547269Y-101784151D01*
X131720197Y-101861144D01*
X131905352Y-101900500D01*
X131905354Y-101900500D01*
X132094646Y-101900500D01*
X132094648Y-101900500D01*
X132218084Y-101874262D01*
X132279803Y-101861144D01*
X132452730Y-101784151D01*
X132499735Y-101750000D01*
X145875000Y-101750000D01*
X146975000Y-101750000D01*
X146975000Y-100650000D01*
X147475000Y-100650000D01*
X147475000Y-101750000D01*
X149515000Y-101750000D01*
X149515000Y-100669364D01*
X150015000Y-100669364D01*
X150015000Y-101750000D01*
X151095636Y-101750000D01*
X151095635Y-101749999D01*
X151038430Y-101536507D01*
X150938599Y-101322421D01*
X150803109Y-101128921D01*
X150636081Y-100961893D01*
X150442576Y-100826399D01*
X150228492Y-100726569D01*
X150015000Y-100669364D01*
X149515000Y-100669364D01*
X149514999Y-100669364D01*
X149301507Y-100726569D01*
X149087421Y-100826400D01*
X148893924Y-100961888D01*
X148771477Y-101084335D01*
X148718730Y-101115630D01*
X148657438Y-101117819D01*
X148602593Y-101090366D01*
X148567614Y-101039987D01*
X148518352Y-100907910D01*
X148432188Y-100792811D01*
X148317089Y-100706647D01*
X148182375Y-100656402D01*
X148122824Y-100650000D01*
X147475000Y-100650000D01*
X146975000Y-100650000D01*
X146327176Y-100650000D01*
X146267624Y-100656402D01*
X146132910Y-100706647D01*
X146017811Y-100792811D01*
X145931647Y-100907910D01*
X145881402Y-101042624D01*
X145875000Y-101102176D01*
X145875000Y-101750000D01*
X132499735Y-101750000D01*
X132605870Y-101672889D01*
X132732533Y-101532216D01*
X132827179Y-101368284D01*
X132842162Y-101322170D01*
X132885674Y-101188256D01*
X132905460Y-101000000D01*
X132885674Y-100811744D01*
X132833120Y-100650000D01*
X132827179Y-100631715D01*
X132732533Y-100467783D01*
X132605870Y-100327110D01*
X132452730Y-100215848D01*
X132279802Y-100138855D01*
X132094648Y-100099500D01*
X132094646Y-100099500D01*
X131905354Y-100099500D01*
X131905352Y-100099500D01*
X131720197Y-100138855D01*
X131547273Y-100215846D01*
X131534080Y-100225431D01*
X131519781Y-100235820D01*
X131485218Y-100253431D01*
X131446900Y-100259500D01*
X111524499Y-100259500D01*
X111462499Y-100242887D01*
X111417112Y-100197500D01*
X111400499Y-100135500D01*
X111400499Y-100012130D01*
X111400499Y-100012127D01*
X111394091Y-99952517D01*
X111343796Y-99817669D01*
X111257546Y-99702454D01*
X111142331Y-99616204D01*
X111007483Y-99565909D01*
X110947873Y-99559500D01*
X110947869Y-99559500D01*
X109052130Y-99559500D01*
X108992515Y-99565909D01*
X108857669Y-99616204D01*
X108742454Y-99702454D01*
X108656204Y-99817668D01*
X108605909Y-99952516D01*
X108599500Y-100012130D01*
X108599500Y-101907869D01*
X108603873Y-101948544D01*
X108605909Y-101967483D01*
X108656204Y-102102331D01*
X108742454Y-102217546D01*
X108857669Y-102303796D01*
X108937905Y-102333722D01*
X108987441Y-102367737D01*
X109015168Y-102421047D01*
X109014575Y-102481134D01*
X108985802Y-102533887D01*
X108891020Y-102636848D01*
X108764076Y-102831150D01*
X108670844Y-103043696D01*
X108670842Y-103043700D01*
X108670843Y-103043700D01*
X108637838Y-103174035D01*
X108613865Y-103268700D01*
X108594699Y-103499999D01*
X108613865Y-103731299D01*
X108613865Y-103731301D01*
X108613866Y-103731305D01*
X108670843Y-103956300D01*
X108670844Y-103956303D01*
X108735103Y-104102797D01*
X108764076Y-104168849D01*
X108891021Y-104363153D01*
X109048216Y-104533913D01*
X109231374Y-104676470D01*
X109397635Y-104766446D01*
X109444610Y-104811148D01*
X109462599Y-104873450D01*
X109446680Y-104936313D01*
X109401207Y-104982544D01*
X109338616Y-104999500D01*
X100124500Y-104999500D01*
X100062500Y-104982887D01*
X100017113Y-104937500D01*
X100000500Y-104875500D01*
X100000500Y-96500000D01*
X100319464Y-96500000D01*
X100339564Y-96716925D01*
X100399181Y-96926457D01*
X100496287Y-97121471D01*
X100627573Y-97295323D01*
X100721293Y-97380759D01*
X100788568Y-97442088D01*
X100865947Y-97489999D01*
X100973791Y-97556773D01*
X101070288Y-97594156D01*
X101176931Y-97635470D01*
X101391074Y-97675500D01*
X101608924Y-97675500D01*
X101608926Y-97675500D01*
X101823069Y-97635470D01*
X101997971Y-97567712D01*
X102026208Y-97556773D01*
X102026210Y-97556772D01*
X102211432Y-97442088D01*
X102320447Y-97342708D01*
X102331247Y-97332863D01*
X102369991Y-97308873D01*
X102414785Y-97300500D01*
X103049782Y-97300500D01*
X103110214Y-97316223D01*
X103155321Y-97359404D01*
X103207288Y-97443657D01*
X103331342Y-97567711D01*
X103331344Y-97567712D01*
X103480666Y-97659814D01*
X103546575Y-97681654D01*
X103647202Y-97714999D01*
X103656729Y-97715972D01*
X103749991Y-97725500D01*
X104350008Y-97725499D01*
X104452797Y-97714999D01*
X104619334Y-97659814D01*
X104768656Y-97567712D01*
X104892712Y-97443656D01*
X104894752Y-97440347D01*
X104939856Y-97397166D01*
X105000289Y-97381440D01*
X105060723Y-97397161D01*
X105105831Y-97440343D01*
X105107682Y-97443344D01*
X105231654Y-97567316D01*
X105380877Y-97659357D01*
X105547303Y-97714506D01*
X105650021Y-97725000D01*
X105700000Y-97725000D01*
X105700000Y-96750000D01*
X106200000Y-96750000D01*
X106200000Y-97724999D01*
X106249979Y-97724999D01*
X106352695Y-97714506D01*
X106519122Y-97659357D01*
X106668345Y-97567316D01*
X106792316Y-97443345D01*
X106884357Y-97294122D01*
X106939506Y-97127696D01*
X106950000Y-97024979D01*
X106950000Y-96750000D01*
X106200000Y-96750000D01*
X105700000Y-96750000D01*
X105700000Y-96374000D01*
X105716613Y-96312000D01*
X105762000Y-96266613D01*
X105824000Y-96250000D01*
X106949999Y-96250000D01*
X106949999Y-96181439D01*
X106963514Y-96125144D01*
X107001114Y-96081121D01*
X107054601Y-96058966D01*
X107112317Y-96063508D01*
X107161680Y-96093758D01*
X108863181Y-97795259D01*
X108890061Y-97835487D01*
X108899500Y-97882939D01*
X108899500Y-98073344D01*
X108909650Y-98172707D01*
X108962997Y-98333699D01*
X109052031Y-98478044D01*
X109171955Y-98597968D01*
X109316300Y-98687002D01*
X109316302Y-98687002D01*
X109316303Y-98687003D01*
X109477292Y-98740349D01*
X109576655Y-98750500D01*
X110423344Y-98750499D01*
X110522708Y-98740349D01*
X110683697Y-98687003D01*
X110695742Y-98679574D01*
X110828044Y-98597968D01*
X110947968Y-98478044D01*
X111037002Y-98333699D01*
X111039628Y-98325776D01*
X111090349Y-98172708D01*
X111100500Y-98073345D01*
X111100499Y-97882938D01*
X111109938Y-97835487D01*
X111136815Y-97795261D01*
X111287821Y-97644255D01*
X111337182Y-97614007D01*
X111394898Y-97609465D01*
X111448385Y-97631620D01*
X111485985Y-97675643D01*
X111499500Y-97731938D01*
X111499500Y-98517869D01*
X111505909Y-98577484D01*
X111513549Y-98597968D01*
X111556204Y-98712331D01*
X111642454Y-98827546D01*
X111757669Y-98913796D01*
X111892517Y-98964091D01*
X111952127Y-98970500D01*
X114047872Y-98970499D01*
X114107483Y-98964091D01*
X114242331Y-98913796D01*
X114357546Y-98827546D01*
X114443796Y-98712331D01*
X114494091Y-98577483D01*
X114500500Y-98517873D01*
X114500499Y-96642128D01*
X114494091Y-96582517D01*
X114443796Y-96447669D01*
X114436183Y-96437500D01*
X114396366Y-96384311D01*
X114374466Y-96336358D01*
X114374466Y-96283642D01*
X114396366Y-96235689D01*
X114423089Y-96199992D01*
X114443796Y-96172331D01*
X114494091Y-96037483D01*
X114500500Y-95977873D01*
X114500499Y-94102128D01*
X114494091Y-94042517D01*
X114443796Y-93907669D01*
X114439682Y-93902174D01*
X114396366Y-93844311D01*
X114374466Y-93796358D01*
X114374466Y-93743642D01*
X114396366Y-93695689D01*
X114411210Y-93675860D01*
X114443796Y-93632331D01*
X114494091Y-93497483D01*
X114500500Y-93437873D01*
X114500499Y-91562128D01*
X114494091Y-91502517D01*
X114443796Y-91367669D01*
X114357546Y-91252454D01*
X114242331Y-91166204D01*
X114107483Y-91115909D01*
X114047873Y-91109500D01*
X114047869Y-91109500D01*
X111952130Y-91109500D01*
X111892515Y-91115909D01*
X111757669Y-91166204D01*
X111642454Y-91252454D01*
X111556204Y-91367668D01*
X111505909Y-91502516D01*
X111502048Y-91538430D01*
X111480857Y-91595544D01*
X111435024Y-91635675D01*
X111375611Y-91649135D01*
X111316957Y-91632677D01*
X111273220Y-91590273D01*
X111267711Y-91581342D01*
X111143657Y-91457288D01*
X110994334Y-91365186D01*
X110827797Y-91310000D01*
X110734535Y-91300473D01*
X110725008Y-91299500D01*
X110099991Y-91299500D01*
X109997203Y-91310000D01*
X109830665Y-91365186D01*
X109681342Y-91457288D01*
X109587681Y-91550950D01*
X109532094Y-91583044D01*
X109467906Y-91583044D01*
X109412319Y-91550950D01*
X109318657Y-91457288D01*
X109169334Y-91365186D01*
X109002797Y-91310000D01*
X108909535Y-91300473D01*
X108900008Y-91299500D01*
X108274991Y-91299500D01*
X108172203Y-91310000D01*
X108005665Y-91365186D01*
X107856342Y-91457288D01*
X107732288Y-91581342D01*
X107695741Y-91640596D01*
X107650634Y-91683777D01*
X107590202Y-91699500D01*
X106930535Y-91699500D01*
X106883082Y-91690061D01*
X106842854Y-91663181D01*
X106730393Y-91550720D01*
X106648163Y-91500000D01*
X106587287Y-91462451D01*
X106587286Y-91462450D01*
X106587285Y-91462450D01*
X106427685Y-91409563D01*
X106329174Y-91399500D01*
X105795826Y-91399500D01*
X105697314Y-91409563D01*
X105537713Y-91462450D01*
X105515507Y-91476147D01*
X105506767Y-91481538D01*
X105441671Y-91500000D01*
X104558329Y-91500000D01*
X104493232Y-91481538D01*
X104470933Y-91467784D01*
X104462286Y-91462450D01*
X104302685Y-91409563D01*
X104204174Y-91399500D01*
X103670826Y-91399500D01*
X103572314Y-91409563D01*
X103412714Y-91462450D01*
X103269606Y-91550720D01*
X103157146Y-91663181D01*
X103116918Y-91690061D01*
X103069465Y-91699500D01*
X102748466Y-91699500D01*
X102699653Y-91689488D01*
X102658723Y-91661070D01*
X102632284Y-91618833D01*
X102618796Y-91582669D01*
X102532546Y-91467454D01*
X102417331Y-91381204D01*
X102282483Y-91330909D01*
X102222873Y-91324500D01*
X102222869Y-91324500D01*
X100777130Y-91324500D01*
X100717515Y-91330909D01*
X100582669Y-91381204D01*
X100467454Y-91467454D01*
X100381204Y-91582668D01*
X100330909Y-91717516D01*
X100324500Y-91777130D01*
X100324500Y-93222869D01*
X100330909Y-93282484D01*
X100351175Y-93336818D01*
X100381204Y-93417331D01*
X100419975Y-93469122D01*
X100467455Y-93532548D01*
X100553104Y-93596665D01*
X100592850Y-93647279D01*
X100601874Y-93710997D01*
X100577747Y-93770657D01*
X100496288Y-93878525D01*
X100399181Y-94073542D01*
X100339564Y-94283074D01*
X100319464Y-94500000D01*
X100339564Y-94716925D01*
X100399181Y-94926457D01*
X100496287Y-95121471D01*
X100528790Y-95164512D01*
X100627573Y-95295322D01*
X100751575Y-95408364D01*
X100787301Y-95466064D01*
X100787302Y-95533933D01*
X100751573Y-95591636D01*
X100627573Y-95704676D01*
X100496287Y-95878528D01*
X100399181Y-96073542D01*
X100339564Y-96283074D01*
X100319464Y-96500000D01*
X100000500Y-96500000D01*
X100000500Y-89750000D01*
X100325000Y-89750000D01*
X100325000Y-90222824D01*
X100331402Y-90282375D01*
X100381647Y-90417089D01*
X100467811Y-90532188D01*
X100582910Y-90618352D01*
X100717624Y-90668597D01*
X100777176Y-90675000D01*
X101250000Y-90675000D01*
X101250000Y-89750000D01*
X101750000Y-89750000D01*
X101750000Y-90675000D01*
X102222824Y-90675000D01*
X102282375Y-90668597D01*
X102417089Y-90618352D01*
X102532188Y-90532188D01*
X102618352Y-90417089D01*
X102668597Y-90282375D01*
X102675000Y-90222824D01*
X102675000Y-89750000D01*
X101750000Y-89750000D01*
X101250000Y-89750000D01*
X100325000Y-89750000D01*
X100000500Y-89750000D01*
X100000500Y-87499999D01*
X100319464Y-87499999D01*
X100339564Y-87716925D01*
X100399181Y-87926457D01*
X100496287Y-88121471D01*
X100545989Y-88187287D01*
X100568512Y-88217113D01*
X100578048Y-88229740D01*
X100602175Y-88289401D01*
X100593151Y-88353119D01*
X100553406Y-88403733D01*
X100467811Y-88467809D01*
X100381647Y-88582910D01*
X100331402Y-88717624D01*
X100325000Y-88777176D01*
X100325000Y-89250000D01*
X102675000Y-89250000D01*
X102675000Y-88777176D01*
X102668597Y-88717624D01*
X102618352Y-88582911D01*
X102555395Y-88498811D01*
X102531156Y-88435553D01*
X102543778Y-88368996D01*
X102589495Y-88319005D01*
X102654662Y-88300500D01*
X103069465Y-88300500D01*
X103116918Y-88309939D01*
X103157146Y-88336819D01*
X103269606Y-88449279D01*
X103269608Y-88449280D01*
X103269609Y-88449281D01*
X103412713Y-88537549D01*
X103488493Y-88562660D01*
X103572314Y-88590436D01*
X103670826Y-88600500D01*
X104204174Y-88600500D01*
X104302685Y-88590436D01*
X104325397Y-88582910D01*
X104462287Y-88537549D01*
X104605391Y-88449281D01*
X104724281Y-88330391D01*
X104812549Y-88187287D01*
X104865436Y-88027685D01*
X104875500Y-87929174D01*
X104875500Y-87070826D01*
X104865436Y-86972315D01*
X104858746Y-86952127D01*
X104814763Y-86819395D01*
X104812549Y-86812713D01*
X104724281Y-86669609D01*
X104724280Y-86669608D01*
X104724279Y-86669606D01*
X104642354Y-86587681D01*
X104610260Y-86532094D01*
X104610260Y-86467906D01*
X104642354Y-86412319D01*
X104724279Y-86330393D01*
X104724278Y-86330393D01*
X104724281Y-86330391D01*
X104812549Y-86187287D01*
X104865436Y-86027685D01*
X104875500Y-85929174D01*
X104875500Y-85070826D01*
X104865436Y-84972315D01*
X104812549Y-84812713D01*
X104724281Y-84669609D01*
X104724280Y-84669608D01*
X104724279Y-84669606D01*
X104605393Y-84550720D01*
X104523974Y-84500500D01*
X104462287Y-84462451D01*
X104462286Y-84462450D01*
X104462285Y-84462450D01*
X104302685Y-84409563D01*
X104204174Y-84399500D01*
X103670826Y-84399500D01*
X103572314Y-84409563D01*
X103412714Y-84462450D01*
X103269606Y-84550720D01*
X103157146Y-84663181D01*
X103116918Y-84690061D01*
X103069465Y-84699500D01*
X102414785Y-84699500D01*
X102369991Y-84691127D01*
X102331247Y-84667137D01*
X102248055Y-84591298D01*
X102212327Y-84533595D01*
X102212327Y-84465726D01*
X102248056Y-84408023D01*
X102372055Y-84294984D01*
X102503287Y-84121205D01*
X102600348Y-83926278D01*
X102650505Y-83750000D01*
X100349495Y-83750000D01*
X100399651Y-83926278D01*
X100496712Y-84121205D01*
X100627942Y-84294981D01*
X100751944Y-84408023D01*
X100787672Y-84465726D01*
X100787672Y-84533595D01*
X100751944Y-84591298D01*
X100627573Y-84704676D01*
X100496287Y-84878528D01*
X100399181Y-85073542D01*
X100339564Y-85283074D01*
X100319464Y-85499999D01*
X100339564Y-85716925D01*
X100399181Y-85926457D01*
X100496287Y-86121471D01*
X100627573Y-86295323D01*
X100751572Y-86408363D01*
X100787300Y-86466066D01*
X100787300Y-86533934D01*
X100751572Y-86591637D01*
X100627573Y-86704676D01*
X100496287Y-86878528D01*
X100399181Y-87073542D01*
X100339564Y-87283074D01*
X100319464Y-87499999D01*
X100000500Y-87499999D01*
X100000500Y-83249999D01*
X100349494Y-83249999D01*
X100349495Y-83250000D01*
X101250000Y-83250000D01*
X101250000Y-82351380D01*
X101750000Y-82351380D01*
X101750000Y-83250000D01*
X102650505Y-83250000D01*
X102650505Y-83249999D01*
X102600348Y-83073721D01*
X102503287Y-82878794D01*
X102372055Y-82705014D01*
X102211131Y-82558314D01*
X102025987Y-82443677D01*
X101822930Y-82365013D01*
X101750000Y-82351380D01*
X101250000Y-82351380D01*
X101177069Y-82365013D01*
X100974012Y-82443677D01*
X100788868Y-82558314D01*
X100627944Y-82705014D01*
X100496712Y-82878794D01*
X100399651Y-83073721D01*
X100349494Y-83249999D01*
X100000500Y-83249999D01*
X100000500Y-78000000D01*
X102094340Y-78000000D01*
X102114936Y-78235407D01*
X102171452Y-78446326D01*
X102176097Y-78463663D01*
X102275965Y-78677829D01*
X102411505Y-78871401D01*
X102578599Y-79038495D01*
X102772171Y-79174035D01*
X102986337Y-79273903D01*
X103214592Y-79335063D01*
X103391032Y-79350500D01*
X103391034Y-79350500D01*
X104608966Y-79350500D01*
X104608968Y-79350500D01*
X104726594Y-79340208D01*
X104785408Y-79335063D01*
X105013663Y-79273903D01*
X105227829Y-79174035D01*
X105421401Y-79038495D01*
X105588495Y-78871401D01*
X105724035Y-78677830D01*
X105823903Y-78463663D01*
X105885063Y-78235408D01*
X105905659Y-78000000D01*
X105885063Y-77764592D01*
X105823903Y-77536337D01*
X105724035Y-77322171D01*
X105588495Y-77128599D01*
X105421401Y-76961505D01*
X105227829Y-76825965D01*
X105013663Y-76726097D01*
X104965023Y-76713064D01*
X104785407Y-76664936D01*
X104608968Y-76649500D01*
X104608966Y-76649500D01*
X103391034Y-76649500D01*
X103391032Y-76649500D01*
X103214592Y-76664936D01*
X102986336Y-76726097D01*
X102772170Y-76825965D01*
X102578598Y-76961505D01*
X102411508Y-77128595D01*
X102411505Y-77128598D01*
X102411505Y-77128599D01*
X102280130Y-77316223D01*
X102275964Y-77322172D01*
X102176097Y-77536337D01*
X102114936Y-77764592D01*
X102094340Y-78000000D01*
X100000500Y-78000000D01*
X100000500Y-75124500D01*
X100017113Y-75062500D01*
X100062500Y-75017113D01*
X100124500Y-75000500D01*
X109338616Y-75000500D01*
X109401207Y-75017456D01*
G37*
%TD.AperFunction*%
%TA.AperFunction,Conductor*%
G36*
X127724546Y-93806937D02*
G01*
X127770256Y-93852359D01*
X127787000Y-93914585D01*
X127787000Y-96475269D01*
X127777561Y-96522722D01*
X127750681Y-96562950D01*
X127732288Y-96581342D01*
X127671069Y-96680596D01*
X127625962Y-96723777D01*
X127565530Y-96739500D01*
X126784337Y-96739500D01*
X126736884Y-96730061D01*
X126696656Y-96703181D01*
X126571880Y-96578405D01*
X126571879Y-96578404D01*
X126571877Y-96578402D01*
X126392639Y-96452898D01*
X126263782Y-96392811D01*
X126194331Y-96360425D01*
X125982974Y-96303792D01*
X125765000Y-96284722D01*
X125547025Y-96303792D01*
X125335668Y-96360425D01*
X125137361Y-96452898D01*
X124958121Y-96578403D01*
X124795730Y-96740794D01*
X124793889Y-96738953D01*
X124763641Y-96765486D01*
X124706378Y-96779500D01*
X124154499Y-96779500D01*
X124092499Y-96762887D01*
X124047112Y-96717500D01*
X124030499Y-96655500D01*
X124030499Y-96642130D01*
X124030334Y-96640596D01*
X124024091Y-96582517D01*
X123973796Y-96447669D01*
X123926051Y-96383890D01*
X123904154Y-96335941D01*
X123904154Y-96283224D01*
X123926054Y-96235272D01*
X123973351Y-96172091D01*
X124023597Y-96037375D01*
X124030000Y-95977824D01*
X124030000Y-95550024D01*
X124043515Y-95493729D01*
X124081115Y-95449706D01*
X124134602Y-95427551D01*
X124192318Y-95432093D01*
X124241681Y-95462343D01*
X124321654Y-95542316D01*
X124470877Y-95634357D01*
X124637303Y-95689506D01*
X124740021Y-95700000D01*
X125015000Y-95700000D01*
X125015000Y-94950000D01*
X125515000Y-94950000D01*
X125515000Y-95699999D01*
X125789979Y-95699999D01*
X125892695Y-95689506D01*
X126059122Y-95634357D01*
X126208345Y-95542316D01*
X126332316Y-95418345D01*
X126424357Y-95269122D01*
X126479506Y-95102696D01*
X126490000Y-94999979D01*
X126490000Y-94950000D01*
X125515000Y-94950000D01*
X125015000Y-94950000D01*
X125015000Y-94574000D01*
X125031613Y-94512000D01*
X125077000Y-94466613D01*
X125139000Y-94450000D01*
X126489999Y-94450000D01*
X126489999Y-94400021D01*
X126479506Y-94297304D01*
X126424357Y-94130877D01*
X126385527Y-94067922D01*
X126367128Y-94006757D01*
X126381614Y-93944549D01*
X126425140Y-93897803D01*
X126486158Y-93878923D01*
X126548477Y-93892917D01*
X126576713Y-93907667D01*
X126626951Y-93933909D01*
X126822580Y-93989887D01*
X126847734Y-93991802D01*
X127025477Y-94005337D01*
X127227328Y-93979630D01*
X127419872Y-93913816D01*
X127577713Y-93820900D01*
X127600096Y-93807725D01*
X127662215Y-93790587D01*
X127724546Y-93806937D01*
G37*
%TD.AperFunction*%
%TA.AperFunction,Conductor*%
G36*
X126956623Y-88214511D02*
G01*
X127000938Y-88253374D01*
X127038402Y-88306877D01*
X127193123Y-88461598D01*
X127372361Y-88587102D01*
X127570670Y-88679575D01*
X127782023Y-88736207D01*
X128000000Y-88755277D01*
X128217977Y-88736207D01*
X128429330Y-88679575D01*
X128627639Y-88587102D01*
X128806877Y-88461598D01*
X128961598Y-88306877D01*
X128999061Y-88253374D01*
X129043377Y-88214511D01*
X129100634Y-88200500D01*
X129175501Y-88200500D01*
X129237501Y-88217113D01*
X129282888Y-88262500D01*
X129299501Y-88324500D01*
X129299501Y-88380371D01*
X129305813Y-88439093D01*
X129305813Y-88465598D01*
X129300000Y-88519674D01*
X129300000Y-88567500D01*
X129303513Y-88571013D01*
X129344150Y-88580616D01*
X129387913Y-88617189D01*
X129444806Y-88693189D01*
X129466705Y-88741142D01*
X129466705Y-88793858D01*
X129444806Y-88841811D01*
X129387913Y-88917811D01*
X129344150Y-88954384D01*
X129303513Y-88963986D01*
X129300000Y-88967500D01*
X129300000Y-89015325D01*
X129305813Y-89069399D01*
X129305813Y-89095907D01*
X129302632Y-89125500D01*
X129302004Y-89131342D01*
X129299500Y-89154629D01*
X129299500Y-89650369D01*
X129305561Y-89706745D01*
X129305561Y-89733252D01*
X129299500Y-89789629D01*
X129299500Y-90285369D01*
X129305561Y-90341745D01*
X129305561Y-90368252D01*
X129300311Y-90417089D01*
X129299500Y-90424629D01*
X129299500Y-90920369D01*
X129305561Y-90976745D01*
X129305561Y-91003252D01*
X129304355Y-91014467D01*
X129299685Y-91057912D01*
X129299500Y-91059629D01*
X129299500Y-91555369D01*
X129305909Y-91614984D01*
X129315462Y-91640596D01*
X129356204Y-91749831D01*
X129442454Y-91865046D01*
X129557669Y-91951296D01*
X129692517Y-92001591D01*
X129752127Y-92008000D01*
X130342359Y-92007999D01*
X130342367Y-92008000D01*
X130357628Y-92008000D01*
X130965981Y-92008000D01*
X131013434Y-92017439D01*
X131053662Y-92044319D01*
X131073495Y-92064152D01*
X131097734Y-92098449D01*
X131109134Y-92138869D01*
X131114325Y-92188254D01*
X131172820Y-92368284D01*
X131267466Y-92532216D01*
X131394129Y-92672889D01*
X131547269Y-92784151D01*
X131720197Y-92861144D01*
X131905352Y-92900500D01*
X131905354Y-92900500D01*
X132094646Y-92900500D01*
X132094648Y-92900500D01*
X132218083Y-92874262D01*
X132279803Y-92861144D01*
X132452730Y-92784151D01*
X132503041Y-92747598D01*
X132605870Y-92672889D01*
X132609682Y-92668656D01*
X132732533Y-92532216D01*
X132827179Y-92368284D01*
X132885674Y-92188256D01*
X132905460Y-92000000D01*
X132885674Y-91811744D01*
X132855057Y-91717516D01*
X132827179Y-91631715D01*
X132732533Y-91467783D01*
X132605870Y-91327110D01*
X132452730Y-91215848D01*
X132279802Y-91138855D01*
X132124872Y-91105924D01*
X132091485Y-91093607D01*
X132062972Y-91072315D01*
X131820440Y-90829783D01*
X131815322Y-90824347D01*
X131775429Y-90779317D01*
X131725932Y-90745151D01*
X131719905Y-90740716D01*
X131672554Y-90703620D01*
X131663313Y-90699461D01*
X131643773Y-90688441D01*
X131635430Y-90682682D01*
X131615175Y-90675000D01*
X131580527Y-90661859D01*
X131538600Y-90635346D01*
X131510421Y-90594521D01*
X131500499Y-90545918D01*
X131500499Y-90424633D01*
X131500499Y-90424629D01*
X131500499Y-90424628D01*
X131494438Y-90368245D01*
X131494439Y-90341744D01*
X131500500Y-90285373D01*
X131500499Y-89789628D01*
X131499795Y-89783077D01*
X131494439Y-89733251D01*
X131494439Y-89706744D01*
X131496787Y-89684904D01*
X131500500Y-89650373D01*
X131500499Y-89154628D01*
X131494186Y-89095900D01*
X131494187Y-89069395D01*
X131500000Y-89015331D01*
X131500000Y-88967500D01*
X131496486Y-88963986D01*
X131455850Y-88954384D01*
X131412088Y-88917811D01*
X131355194Y-88841811D01*
X131333294Y-88793858D01*
X131333294Y-88741142D01*
X131355194Y-88693189D01*
X131412088Y-88617189D01*
X131455850Y-88580616D01*
X131496486Y-88571013D01*
X131500000Y-88567500D01*
X131500000Y-88540019D01*
X131513515Y-88483724D01*
X131551115Y-88439701D01*
X131604602Y-88417546D01*
X131662318Y-88422088D01*
X131711681Y-88452338D01*
X133763181Y-90503838D01*
X133790061Y-90544066D01*
X133799500Y-90591519D01*
X133799500Y-96375500D01*
X133782887Y-96437500D01*
X133737500Y-96482887D01*
X133675500Y-96499500D01*
X131624500Y-96499500D01*
X131562500Y-96482887D01*
X131517113Y-96437500D01*
X131500500Y-96375500D01*
X131500500Y-95949260D01*
X131492664Y-95872203D01*
X131485074Y-95797562D01*
X131424159Y-95603412D01*
X131325409Y-95425498D01*
X131192866Y-95271105D01*
X131055160Y-95164512D01*
X131031957Y-95146551D01*
X130849272Y-95056940D01*
X130783609Y-95039939D01*
X130652285Y-95005937D01*
X130631671Y-95004891D01*
X130449062Y-94995630D01*
X130247928Y-95026443D01*
X130057113Y-95097113D01*
X129884431Y-95204745D01*
X129816708Y-95269122D01*
X129736947Y-95344941D01*
X129620705Y-95511951D01*
X129613775Y-95521908D01*
X129566609Y-95562399D01*
X129505719Y-95574912D01*
X129446408Y-95556303D01*
X129403581Y-95511248D01*
X129388000Y-95451071D01*
X129388000Y-92797307D01*
X129383086Y-92775776D01*
X129379481Y-92759981D01*
X129377153Y-92746276D01*
X129372868Y-92708245D01*
X129360225Y-92672111D01*
X129356376Y-92658750D01*
X129347860Y-92621439D01*
X129331249Y-92586946D01*
X129325927Y-92574097D01*
X129318474Y-92552797D01*
X129313289Y-92537978D01*
X129292928Y-92505574D01*
X129286204Y-92493409D01*
X129269592Y-92458912D01*
X129245721Y-92428980D01*
X129237680Y-92417647D01*
X129217316Y-92385238D01*
X129089762Y-92257684D01*
X125791966Y-88959888D01*
X125765086Y-88919660D01*
X125755647Y-88872207D01*
X125755647Y-88324500D01*
X125772260Y-88262500D01*
X125817647Y-88217113D01*
X125879647Y-88200500D01*
X126899366Y-88200500D01*
X126956623Y-88214511D01*
G37*
%TD.AperFunction*%
%TA.AperFunction,Conductor*%
G36*
X118687500Y-84517113D02*
G01*
X118732887Y-84562500D01*
X118749500Y-84624500D01*
X118749500Y-85547868D01*
X118757564Y-85622874D01*
X118757213Y-85652313D01*
X118744353Y-85749999D01*
X118744353Y-86371888D01*
X118764835Y-86514346D01*
X118805341Y-86652299D01*
X118823983Y-86693119D01*
X118865129Y-86783216D01*
X118941578Y-86902174D01*
X118942865Y-86904176D01*
X118986097Y-86961927D01*
X119037114Y-87012944D01*
X119145770Y-87107094D01*
X119145772Y-87107095D01*
X119145774Y-87107097D01*
X119266845Y-87184904D01*
X119397630Y-87244632D01*
X119465227Y-87269844D01*
X119535723Y-87285180D01*
X119678038Y-87305642D01*
X119702025Y-87307357D01*
X119749998Y-87310789D01*
X119749998Y-87310788D01*
X119750000Y-87310789D01*
X119813636Y-87306237D01*
X119865814Y-87313739D01*
X119910161Y-87342239D01*
X121870184Y-89302262D01*
X121997738Y-89429816D01*
X122030147Y-89450180D01*
X122041480Y-89458221D01*
X122071412Y-89482092D01*
X122105909Y-89498704D01*
X122118074Y-89505428D01*
X122150478Y-89525789D01*
X122186597Y-89538427D01*
X122199446Y-89543749D01*
X122233939Y-89560360D01*
X122271250Y-89568876D01*
X122284611Y-89572725D01*
X122320745Y-89585368D01*
X122358776Y-89589653D01*
X122372481Y-89591981D01*
X122409806Y-89600500D01*
X122455046Y-89600500D01*
X122590194Y-89600500D01*
X123599100Y-89600500D01*
X123666139Y-89620185D01*
X123766841Y-89684902D01*
X123766844Y-89684903D01*
X123766845Y-89684904D01*
X123897630Y-89744632D01*
X123965227Y-89769844D01*
X124035723Y-89785180D01*
X124178038Y-89805642D01*
X124202025Y-89807357D01*
X124249998Y-89810789D01*
X124249998Y-89810788D01*
X124250000Y-89810789D01*
X124313636Y-89806237D01*
X124365814Y-89813739D01*
X124410162Y-89842240D01*
X126155741Y-91587819D01*
X126185991Y-91637182D01*
X126190533Y-91694898D01*
X126168378Y-91748385D01*
X126124355Y-91785985D01*
X126068060Y-91799500D01*
X125366741Y-91799500D01*
X124154499Y-91799500D01*
X124092499Y-91782887D01*
X124047112Y-91737500D01*
X124030499Y-91675500D01*
X124030499Y-91562130D01*
X124030499Y-91562127D01*
X124024091Y-91502517D01*
X123973796Y-91367669D01*
X123887546Y-91252454D01*
X123772331Y-91166204D01*
X123637483Y-91115909D01*
X123577873Y-91109500D01*
X123577869Y-91109500D01*
X122322940Y-91109500D01*
X122275487Y-91100061D01*
X122235259Y-91073181D01*
X118032262Y-86870184D01*
X117999850Y-86849818D01*
X117988510Y-86841772D01*
X117958586Y-86817908D01*
X117924095Y-86801298D01*
X117911933Y-86794576D01*
X117892515Y-86782375D01*
X117879520Y-86774209D01*
X117843398Y-86761570D01*
X117830553Y-86756250D01*
X117796058Y-86739638D01*
X117758736Y-86731119D01*
X117745380Y-86727272D01*
X117709252Y-86714631D01*
X117671219Y-86710345D01*
X117657518Y-86708017D01*
X117620196Y-86699500D01*
X117620194Y-86699500D01*
X117574954Y-86699500D01*
X111409798Y-86699500D01*
X111349366Y-86683777D01*
X111304259Y-86640596D01*
X111260103Y-86569007D01*
X111262437Y-86567566D01*
X111241952Y-86532082D01*
X111241961Y-86467885D01*
X111262438Y-86432433D01*
X111260103Y-86430993D01*
X111304259Y-86359404D01*
X111349366Y-86316223D01*
X111409798Y-86300500D01*
X113590195Y-86300500D01*
X113601009Y-86298031D01*
X113627520Y-86291980D01*
X113641197Y-86289655D01*
X113679255Y-86285368D01*
X113715399Y-86272720D01*
X113728721Y-86268882D01*
X113766061Y-86260360D01*
X113800549Y-86243750D01*
X113813391Y-86238431D01*
X113849522Y-86225789D01*
X113881932Y-86205423D01*
X113894103Y-86198697D01*
X113896211Y-86197682D01*
X113928587Y-86182091D01*
X113958515Y-86158222D01*
X113969834Y-86150190D01*
X114002262Y-86129816D01*
X114129816Y-86002262D01*
X114129816Y-86002261D01*
X115345827Y-84786249D01*
X115391097Y-84757410D01*
X115444311Y-84750404D01*
X115500000Y-84755277D01*
X115500001Y-84755276D01*
X115500003Y-84755277D01*
X115613298Y-84745365D01*
X115717977Y-84736207D01*
X115929330Y-84679575D01*
X116127639Y-84587102D01*
X116162774Y-84562500D01*
X116219294Y-84522925D01*
X116253130Y-84506239D01*
X116290417Y-84500500D01*
X118625500Y-84500500D01*
X118687500Y-84517113D01*
G37*
%TD.AperFunction*%
%TA.AperFunction,Conductor*%
G36*
X151571336Y-83778967D02*
G01*
X151610408Y-83823331D01*
X151624500Y-83880743D01*
X151624500Y-83929174D01*
X151634563Y-84027685D01*
X151679250Y-84162538D01*
X151687451Y-84187287D01*
X151719424Y-84239123D01*
X151775720Y-84330393D01*
X151894606Y-84449279D01*
X151894608Y-84449280D01*
X151894609Y-84449281D01*
X152037713Y-84537549D01*
X152113010Y-84562500D01*
X152197314Y-84590436D01*
X152295826Y-84600500D01*
X152829174Y-84600500D01*
X152927685Y-84590436D01*
X152937749Y-84587101D01*
X153087287Y-84537549D01*
X153087289Y-84537548D01*
X153117422Y-84518962D01*
X153182519Y-84500500D01*
X153375500Y-84500500D01*
X153437500Y-84517113D01*
X153482887Y-84562500D01*
X153499500Y-84624500D01*
X153499500Y-87209584D01*
X153493761Y-87246871D01*
X153477075Y-87280707D01*
X153412898Y-87372361D01*
X153320425Y-87570668D01*
X153263792Y-87782025D01*
X153244722Y-87999999D01*
X153263792Y-88217974D01*
X153320425Y-88429331D01*
X153359136Y-88512346D01*
X153412898Y-88627639D01*
X153538402Y-88806877D01*
X153538405Y-88806880D01*
X153600681Y-88869156D01*
X153627561Y-88909384D01*
X153637000Y-88956837D01*
X153637000Y-89125500D01*
X153620387Y-89187500D01*
X153575000Y-89232887D01*
X153513000Y-89249500D01*
X152646806Y-89249500D01*
X152634514Y-89250467D01*
X152609927Y-89252402D01*
X152452102Y-89298255D01*
X152310634Y-89381919D01*
X152309929Y-89382625D01*
X152269701Y-89409505D01*
X152222248Y-89418944D01*
X150053451Y-89418944D01*
X149993019Y-89403221D01*
X149947912Y-89360040D01*
X149930211Y-89331342D01*
X149806159Y-89207290D01*
X149802845Y-89205246D01*
X149759663Y-89160138D01*
X149743940Y-89099704D01*
X149759664Y-89039271D01*
X149802848Y-88994164D01*
X149805848Y-88992313D01*
X149929816Y-88868345D01*
X150021857Y-88719122D01*
X150077006Y-88552696D01*
X150087500Y-88449979D01*
X150087500Y-88400000D01*
X147637501Y-88400000D01*
X147637501Y-88449979D01*
X147647993Y-88552695D01*
X147703142Y-88719122D01*
X147786285Y-88853919D01*
X147804461Y-88910606D01*
X147794123Y-88969231D01*
X147757655Y-89016283D01*
X147703461Y-89040917D01*
X147644032Y-89037455D01*
X147606172Y-89014606D01*
X147605993Y-89014897D01*
X147444334Y-88915186D01*
X147277797Y-88860000D01*
X147184535Y-88850473D01*
X147175008Y-88849500D01*
X146549991Y-88849500D01*
X146447203Y-88860000D01*
X146280665Y-88915186D01*
X146131342Y-89007288D01*
X146037681Y-89100950D01*
X145982094Y-89133044D01*
X145917906Y-89133044D01*
X145862319Y-89100950D01*
X145768657Y-89007288D01*
X145619334Y-88915186D01*
X145452797Y-88860000D01*
X145359535Y-88850473D01*
X145350008Y-88849500D01*
X144724991Y-88849500D01*
X144622203Y-88860000D01*
X144455665Y-88915186D01*
X144306342Y-89007288D01*
X144182288Y-89131342D01*
X144090186Y-89280665D01*
X144035000Y-89447202D01*
X144025681Y-89538427D01*
X144024500Y-89549991D01*
X144024500Y-89842240D01*
X144024501Y-90012788D01*
X144007888Y-90074788D01*
X143962501Y-90120175D01*
X143900501Y-90136788D01*
X140802350Y-90136788D01*
X140736029Y-90117562D01*
X140690275Y-90065846D01*
X140679274Y-89997676D01*
X140706439Y-89934193D01*
X140763344Y-89895082D01*
X140794334Y-89884814D01*
X140943656Y-89792712D01*
X141067712Y-89668656D01*
X141159814Y-89519334D01*
X141214999Y-89352797D01*
X141225500Y-89250009D01*
X141225499Y-88719362D01*
X141234465Y-88673068D01*
X141260067Y-88633468D01*
X141298603Y-88606290D01*
X141314803Y-88598998D01*
X141321673Y-88596152D01*
X141377930Y-88574818D01*
X141386270Y-88569060D01*
X141405819Y-88558035D01*
X141415057Y-88553878D01*
X141462413Y-88516775D01*
X141468420Y-88512355D01*
X141517929Y-88478183D01*
X141557823Y-88433150D01*
X141562924Y-88427731D01*
X142090655Y-87900000D01*
X147637500Y-87900000D01*
X148612500Y-87900000D01*
X148612500Y-87150001D01*
X148337521Y-87150001D01*
X148234804Y-87160493D01*
X148068377Y-87215642D01*
X147919154Y-87307683D01*
X147795183Y-87431654D01*
X147703142Y-87580877D01*
X147647993Y-87747303D01*
X147637500Y-87850021D01*
X147637500Y-87900000D01*
X142090655Y-87900000D01*
X142840655Y-87150000D01*
X149112500Y-87150000D01*
X149112500Y-87900000D01*
X150087499Y-87900000D01*
X150087499Y-87850021D01*
X150077006Y-87747304D01*
X150021857Y-87580877D01*
X149929816Y-87431654D01*
X149805845Y-87307683D01*
X149656622Y-87215642D01*
X149490196Y-87160493D01*
X149387479Y-87150000D01*
X149112500Y-87150000D01*
X142840655Y-87150000D01*
X143977731Y-86012924D01*
X143983150Y-86007823D01*
X144028183Y-85967929D01*
X144062351Y-85918426D01*
X144066763Y-85912428D01*
X144103878Y-85865057D01*
X144108034Y-85855820D01*
X144119062Y-85836267D01*
X144124818Y-85827930D01*
X144146153Y-85771671D01*
X144148997Y-85764803D01*
X144173694Y-85709932D01*
X144175519Y-85699970D01*
X144181545Y-85678348D01*
X144185140Y-85668872D01*
X144192389Y-85609165D01*
X144193516Y-85601762D01*
X144204357Y-85542606D01*
X144200726Y-85482577D01*
X144200500Y-85475090D01*
X144200500Y-84624500D01*
X144217113Y-84562500D01*
X144262500Y-84517113D01*
X144324500Y-84500500D01*
X147974991Y-84500500D01*
X148398259Y-84500500D01*
X148550742Y-84500500D01*
X149817481Y-84500500D01*
X149882578Y-84518962D01*
X149912710Y-84537548D01*
X150072314Y-84590436D01*
X150170826Y-84600500D01*
X150704174Y-84600500D01*
X150802685Y-84590436D01*
X150812749Y-84587101D01*
X150962287Y-84537549D01*
X151105391Y-84449281D01*
X151224281Y-84330391D01*
X151312549Y-84187287D01*
X151365436Y-84027685D01*
X151375500Y-83929174D01*
X151375500Y-83884606D01*
X151379457Y-83853531D01*
X151380457Y-83849668D01*
X151408487Y-83797619D01*
X151457430Y-83764463D01*
X151516163Y-83757736D01*
X151571336Y-83778967D01*
G37*
%TD.AperFunction*%
%TA.AperFunction,Conductor*%
G36*
X132198434Y-85702439D02*
G01*
X132238662Y-85729319D01*
X132579558Y-86070215D01*
X132584678Y-86075653D01*
X132624571Y-86120683D01*
X132674077Y-86154854D01*
X132680096Y-86159285D01*
X132715839Y-86187287D01*
X132727443Y-86196378D01*
X132736690Y-86200539D01*
X132756226Y-86211558D01*
X132764570Y-86217318D01*
X132820834Y-86238655D01*
X132827695Y-86241497D01*
X132882568Y-86266194D01*
X132892536Y-86268020D01*
X132914152Y-86274046D01*
X132923628Y-86277640D01*
X132983356Y-86284892D01*
X132990701Y-86286009D01*
X133049894Y-86296857D01*
X133109922Y-86293226D01*
X133117410Y-86293000D01*
X134375501Y-86293000D01*
X134437501Y-86309613D01*
X134482888Y-86355000D01*
X134499501Y-86417000D01*
X134499501Y-86475372D01*
X134503691Y-86514346D01*
X134505561Y-86531745D01*
X134505561Y-86558252D01*
X134499500Y-86614629D01*
X134499500Y-87110369D01*
X134505561Y-87166745D01*
X134505561Y-87193252D01*
X134499797Y-87246871D01*
X134499500Y-87249629D01*
X134499500Y-87745371D01*
X134505813Y-87804093D01*
X134505813Y-87830598D01*
X134500000Y-87884674D01*
X134500000Y-87997850D01*
X134483387Y-88059850D01*
X134438000Y-88105237D01*
X134376000Y-88121850D01*
X134308366Y-88121850D01*
X134123211Y-88161205D01*
X133950283Y-88238198D01*
X133797142Y-88349461D01*
X133786485Y-88361297D01*
X133730589Y-88396903D01*
X133664339Y-88398636D01*
X133606658Y-88366001D01*
X132101819Y-86861162D01*
X132074939Y-86820934D01*
X132069192Y-86792043D01*
X132069104Y-86792065D01*
X132057080Y-86743286D01*
X132054380Y-86728553D01*
X132050140Y-86693628D01*
X132042275Y-86672889D01*
X132037665Y-86660733D01*
X132033210Y-86646437D01*
X132025370Y-86614629D01*
X132024790Y-86612275D01*
X132008433Y-86581110D01*
X132002297Y-86567475D01*
X131989818Y-86534570D01*
X131975857Y-86514345D01*
X131969830Y-86505613D01*
X131962082Y-86492797D01*
X131945734Y-86461648D01*
X131922394Y-86435302D01*
X131913178Y-86423538D01*
X131893183Y-86394571D01*
X131893181Y-86394568D01*
X131866847Y-86371239D01*
X131856263Y-86360656D01*
X131832929Y-86334317D01*
X131830823Y-86332863D01*
X131803965Y-86314323D01*
X131792180Y-86305090D01*
X131765851Y-86281765D01*
X131734705Y-86265418D01*
X131721891Y-86257672D01*
X131692929Y-86237681D01*
X131660026Y-86225202D01*
X131646377Y-86219059D01*
X131615227Y-86202711D01*
X131615226Y-86202710D01*
X131615225Y-86202710D01*
X131594819Y-86197680D01*
X131546075Y-86173336D01*
X131512471Y-86130443D01*
X131500499Y-86077285D01*
X131500499Y-85979633D01*
X131500499Y-85979630D01*
X131500499Y-85979628D01*
X131494438Y-85923245D01*
X131494439Y-85896744D01*
X131500500Y-85840375D01*
X131500500Y-85817000D01*
X131517113Y-85755000D01*
X131562500Y-85709613D01*
X131624500Y-85693000D01*
X132150981Y-85693000D01*
X132198434Y-85702439D01*
G37*
%TD.AperFunction*%
%TA.AperFunction,Conductor*%
G36*
X132664513Y-77309939D02*
G01*
X132704741Y-77336819D01*
X135852742Y-80484819D01*
X135852743Y-80484821D01*
X135997738Y-80629816D01*
X136030143Y-80650177D01*
X136041486Y-80658225D01*
X136071411Y-80682090D01*
X136071412Y-80682090D01*
X136071413Y-80682091D01*
X136105899Y-80698698D01*
X136118058Y-80705418D01*
X136150478Y-80725789D01*
X136186620Y-80738435D01*
X136199458Y-80743754D01*
X136233939Y-80760359D01*
X136268837Y-80768324D01*
X136271249Y-80768875D01*
X136284611Y-80772724D01*
X136320745Y-80785368D01*
X136358800Y-80789655D01*
X136372481Y-80791980D01*
X136395475Y-80797229D01*
X136409804Y-80800500D01*
X136409805Y-80800500D01*
X136455046Y-80800500D01*
X136590194Y-80800500D01*
X142083024Y-80800500D01*
X142141153Y-80814969D01*
X142185716Y-80854999D01*
X142199696Y-80893177D01*
X142200466Y-80892890D01*
X142205909Y-80907483D01*
X142256204Y-81042331D01*
X142342454Y-81157546D01*
X142449812Y-81237914D01*
X142486384Y-81281676D01*
X142499500Y-81337180D01*
X142499500Y-82709584D01*
X142493761Y-82746871D01*
X142477075Y-82780707D01*
X142412898Y-82872361D01*
X142320425Y-83070668D01*
X142263792Y-83282025D01*
X142244722Y-83499999D01*
X142263792Y-83717974D01*
X142320425Y-83929331D01*
X142353378Y-83999999D01*
X142412898Y-84127639D01*
X142538402Y-84306877D01*
X142693123Y-84461598D01*
X142746625Y-84499061D01*
X142785489Y-84543377D01*
X142799500Y-84600634D01*
X142799500Y-85158481D01*
X142790061Y-85205934D01*
X142763181Y-85246162D01*
X141393377Y-86615964D01*
X141339528Y-86647578D01*
X141277099Y-86648941D01*
X141221923Y-86619705D01*
X141187990Y-86567286D01*
X141159357Y-86480878D01*
X141067316Y-86331654D01*
X140943345Y-86207683D01*
X140794122Y-86115642D01*
X140627696Y-86060493D01*
X140524979Y-86050000D01*
X140250000Y-86050000D01*
X140250000Y-87125500D01*
X140233387Y-87187500D01*
X140188000Y-87232887D01*
X140126000Y-87249500D01*
X139024921Y-87249500D01*
X139017434Y-87249274D01*
X138957391Y-87245641D01*
X138898227Y-87256483D01*
X138890828Y-87257610D01*
X138831124Y-87264860D01*
X138821651Y-87268453D01*
X138800047Y-87274476D01*
X138790067Y-87276305D01*
X138761692Y-87289076D01*
X138710802Y-87300000D01*
X137874000Y-87300000D01*
X137812000Y-87283387D01*
X137766613Y-87238000D01*
X137750000Y-87176000D01*
X137750000Y-86050001D01*
X137475023Y-86050001D01*
X137437102Y-86053875D01*
X137415433Y-86050000D01*
X138250000Y-86050000D01*
X138250000Y-86800000D01*
X139750000Y-86800000D01*
X139750000Y-86050001D01*
X139475021Y-86050001D01*
X139372304Y-86060493D01*
X139205877Y-86115642D01*
X139065096Y-86202476D01*
X139000000Y-86220937D01*
X138934904Y-86202476D01*
X138794122Y-86115642D01*
X138627696Y-86060493D01*
X138524979Y-86050000D01*
X138250000Y-86050000D01*
X137415433Y-86050000D01*
X137369926Y-86041862D01*
X137319278Y-85996125D01*
X137300500Y-85930517D01*
X137300500Y-83624921D01*
X137300726Y-83617434D01*
X137301242Y-83608903D01*
X137304358Y-83557394D01*
X137293507Y-83498185D01*
X137292390Y-83490841D01*
X137285140Y-83431128D01*
X137281547Y-83421656D01*
X137275522Y-83400044D01*
X137273695Y-83390069D01*
X137249009Y-83335220D01*
X137246152Y-83328326D01*
X137224818Y-83272070D01*
X137224816Y-83272068D01*
X137224816Y-83272066D01*
X137219062Y-83263731D01*
X137208033Y-83244177D01*
X137207172Y-83242264D01*
X137203878Y-83234944D01*
X137166780Y-83187591D01*
X137162352Y-83181573D01*
X137128184Y-83132072D01*
X137109462Y-83115486D01*
X137083153Y-83092178D01*
X137077715Y-83087058D01*
X132552940Y-78562283D01*
X132547822Y-78556847D01*
X132507929Y-78511817D01*
X132458432Y-78477651D01*
X132452405Y-78473216D01*
X132423709Y-78450735D01*
X132405057Y-78436122D01*
X132405055Y-78436121D01*
X132405054Y-78436120D01*
X132395813Y-78431961D01*
X132376273Y-78420941D01*
X132367930Y-78415182D01*
X132367927Y-78415181D01*
X132367926Y-78415180D01*
X132311701Y-78393856D01*
X132304783Y-78390991D01*
X132249929Y-78366303D01*
X132239952Y-78364475D01*
X132218339Y-78358450D01*
X132208873Y-78354860D01*
X132149172Y-78347610D01*
X132141771Y-78346483D01*
X132082607Y-78335641D01*
X132022566Y-78339274D01*
X132015079Y-78339500D01*
X119091941Y-78339500D01*
X119035646Y-78325985D01*
X118991623Y-78288385D01*
X118969468Y-78234898D01*
X118974010Y-78177182D01*
X119004260Y-78127819D01*
X119047105Y-78084973D01*
X119049129Y-78078918D01*
X119062686Y-78057342D01*
X119070716Y-78046023D01*
X119094591Y-78016087D01*
X119111198Y-77981600D01*
X119117926Y-77969428D01*
X119138289Y-77937022D01*
X119150931Y-77900891D01*
X119156251Y-77888049D01*
X119172860Y-77853561D01*
X119181382Y-77816221D01*
X119185220Y-77802899D01*
X119197868Y-77766755D01*
X119202155Y-77728697D01*
X119204480Y-77715020D01*
X119213000Y-77677694D01*
X119213000Y-77524731D01*
X119222439Y-77477278D01*
X119249319Y-77437050D01*
X119267711Y-77418657D01*
X119304259Y-77359404D01*
X119349366Y-77316223D01*
X119409798Y-77300500D01*
X132617060Y-77300500D01*
X132664513Y-77309939D01*
G37*
%TD.AperFunction*%
%TD*%
M02*
